G04 #@! TF.GenerationSoftware,KiCad,Pcbnew,5.1.5+dfsg1-2build2*
G04 #@! TF.CreationDate,2023-08-25T20:20:15+01:00*
G04 #@! TF.ProjectId,pico-sp0256,7069636f-2d73-4703-9032-35362e6b6963,rev?*
G04 #@! TF.SameCoordinates,Original*
G04 #@! TF.FileFunction,Copper,L4,Bot*
G04 #@! TF.FilePolarity,Positive*
%FSLAX46Y46*%
G04 Gerber Fmt 4.6, Leading zero omitted, Abs format (unit mm)*
G04 Created by KiCad (PCBNEW 5.1.5+dfsg1-2build2) date 2023-08-25 20:20:15*
%MOMM*%
%LPD*%
G04 APERTURE LIST*
%ADD10O,1.600000X1.600000*%
%ADD11R,1.600000X1.600000*%
%ADD12R,0.900000X1.200000*%
%ADD13R,1.200000X0.900000*%
%ADD14R,2.000000X1.500000*%
%ADD15R,2.000000X3.800000*%
%ADD16O,1.700000X1.700000*%
%ADD17R,1.700000X1.700000*%
%ADD18O,1.050000X1.900000*%
%ADD19C,0.100000*%
%ADD20C,0.400000*%
%ADD21C,0.200000*%
G04 APERTURE END LIST*
D10*
X89403501Y-69520001D03*
X74163501Y-102540001D03*
X89403501Y-72060001D03*
X74163501Y-100000001D03*
X89403501Y-74600001D03*
X74163501Y-97460001D03*
X89403501Y-77140001D03*
X74163501Y-94920001D03*
X89403501Y-79680001D03*
X74163501Y-92380001D03*
X89403501Y-82220001D03*
X74163501Y-89840001D03*
X89403501Y-84760001D03*
X74163501Y-87300001D03*
X89403501Y-87300001D03*
X74163501Y-84760001D03*
X89403501Y-89840001D03*
X74163501Y-82220001D03*
X89403501Y-92380001D03*
X74163501Y-79680001D03*
X89403501Y-94920001D03*
X74163501Y-77140001D03*
X89403501Y-97460001D03*
X74163501Y-74600001D03*
X89403501Y-100000001D03*
X74163501Y-72060001D03*
X89403501Y-102540001D03*
D11*
X74163501Y-69520001D03*
D12*
X83628500Y-71882000D03*
X80328500Y-71882000D03*
D13*
X86931500Y-82295000D03*
X86931500Y-78995000D03*
D14*
X77431500Y-78944500D03*
X77431500Y-74344500D03*
X77431500Y-76644500D03*
D15*
X83731500Y-76644500D03*
D16*
X80645000Y-68897500D03*
X83185000Y-68897500D03*
D17*
X85725000Y-68897500D03*
D18*
X85172500Y-103054000D03*
X78022500Y-103054000D03*
G04 #@! TA.AperFunction,SMDPad,CuDef*
D19*
G36*
X82929722Y-88082674D02*
G01*
X82943313Y-88084690D01*
X82956640Y-88088028D01*
X82969576Y-88092657D01*
X82981996Y-88098531D01*
X82993780Y-88105594D01*
X83004815Y-88113779D01*
X83014995Y-88123005D01*
X83024221Y-88133185D01*
X83032406Y-88144220D01*
X83039469Y-88156004D01*
X83045343Y-88168424D01*
X83049972Y-88181360D01*
X83053310Y-88194687D01*
X83055326Y-88208278D01*
X83056000Y-88222000D01*
X83056000Y-88562000D01*
X83055326Y-88575722D01*
X83053310Y-88589313D01*
X83049972Y-88602640D01*
X83045343Y-88615576D01*
X83039469Y-88627996D01*
X83032406Y-88639780D01*
X83024221Y-88650815D01*
X83014995Y-88660995D01*
X83004815Y-88670221D01*
X82993780Y-88678406D01*
X82981996Y-88685469D01*
X82969576Y-88691343D01*
X82956640Y-88695972D01*
X82943313Y-88699310D01*
X82929722Y-88701326D01*
X82916000Y-88702000D01*
X82636000Y-88702000D01*
X82622278Y-88701326D01*
X82608687Y-88699310D01*
X82595360Y-88695972D01*
X82582424Y-88691343D01*
X82570004Y-88685469D01*
X82558220Y-88678406D01*
X82547185Y-88670221D01*
X82537005Y-88660995D01*
X82527779Y-88650815D01*
X82519594Y-88639780D01*
X82512531Y-88627996D01*
X82506657Y-88615576D01*
X82502028Y-88602640D01*
X82498690Y-88589313D01*
X82496674Y-88575722D01*
X82496000Y-88562000D01*
X82496000Y-88222000D01*
X82496674Y-88208278D01*
X82498690Y-88194687D01*
X82502028Y-88181360D01*
X82506657Y-88168424D01*
X82512531Y-88156004D01*
X82519594Y-88144220D01*
X82527779Y-88133185D01*
X82537005Y-88123005D01*
X82547185Y-88113779D01*
X82558220Y-88105594D01*
X82570004Y-88098531D01*
X82582424Y-88092657D01*
X82595360Y-88088028D01*
X82608687Y-88084690D01*
X82622278Y-88082674D01*
X82636000Y-88082000D01*
X82916000Y-88082000D01*
X82929722Y-88082674D01*
G37*
G04 #@! TD.AperFunction*
G04 #@! TA.AperFunction,SMDPad,CuDef*
G36*
X81969722Y-88082674D02*
G01*
X81983313Y-88084690D01*
X81996640Y-88088028D01*
X82009576Y-88092657D01*
X82021996Y-88098531D01*
X82033780Y-88105594D01*
X82044815Y-88113779D01*
X82054995Y-88123005D01*
X82064221Y-88133185D01*
X82072406Y-88144220D01*
X82079469Y-88156004D01*
X82085343Y-88168424D01*
X82089972Y-88181360D01*
X82093310Y-88194687D01*
X82095326Y-88208278D01*
X82096000Y-88222000D01*
X82096000Y-88562000D01*
X82095326Y-88575722D01*
X82093310Y-88589313D01*
X82089972Y-88602640D01*
X82085343Y-88615576D01*
X82079469Y-88627996D01*
X82072406Y-88639780D01*
X82064221Y-88650815D01*
X82054995Y-88660995D01*
X82044815Y-88670221D01*
X82033780Y-88678406D01*
X82021996Y-88685469D01*
X82009576Y-88691343D01*
X81996640Y-88695972D01*
X81983313Y-88699310D01*
X81969722Y-88701326D01*
X81956000Y-88702000D01*
X81676000Y-88702000D01*
X81662278Y-88701326D01*
X81648687Y-88699310D01*
X81635360Y-88695972D01*
X81622424Y-88691343D01*
X81610004Y-88685469D01*
X81598220Y-88678406D01*
X81587185Y-88670221D01*
X81577005Y-88660995D01*
X81567779Y-88650815D01*
X81559594Y-88639780D01*
X81552531Y-88627996D01*
X81546657Y-88615576D01*
X81542028Y-88602640D01*
X81538690Y-88589313D01*
X81536674Y-88575722D01*
X81536000Y-88562000D01*
X81536000Y-88222000D01*
X81536674Y-88208278D01*
X81538690Y-88194687D01*
X81542028Y-88181360D01*
X81546657Y-88168424D01*
X81552531Y-88156004D01*
X81559594Y-88144220D01*
X81567779Y-88133185D01*
X81577005Y-88123005D01*
X81587185Y-88113779D01*
X81598220Y-88105594D01*
X81610004Y-88098531D01*
X81622424Y-88092657D01*
X81635360Y-88088028D01*
X81648687Y-88084690D01*
X81662278Y-88082674D01*
X81676000Y-88082000D01*
X81956000Y-88082000D01*
X81969722Y-88082674D01*
G37*
G04 #@! TD.AperFunction*
G04 #@! TA.AperFunction,SMDPad,CuDef*
G36*
X78159722Y-88082674D02*
G01*
X78173313Y-88084690D01*
X78186640Y-88088028D01*
X78199576Y-88092657D01*
X78211996Y-88098531D01*
X78223780Y-88105594D01*
X78234815Y-88113779D01*
X78244995Y-88123005D01*
X78254221Y-88133185D01*
X78262406Y-88144220D01*
X78269469Y-88156004D01*
X78275343Y-88168424D01*
X78279972Y-88181360D01*
X78283310Y-88194687D01*
X78285326Y-88208278D01*
X78286000Y-88222000D01*
X78286000Y-88562000D01*
X78285326Y-88575722D01*
X78283310Y-88589313D01*
X78279972Y-88602640D01*
X78275343Y-88615576D01*
X78269469Y-88627996D01*
X78262406Y-88639780D01*
X78254221Y-88650815D01*
X78244995Y-88660995D01*
X78234815Y-88670221D01*
X78223780Y-88678406D01*
X78211996Y-88685469D01*
X78199576Y-88691343D01*
X78186640Y-88695972D01*
X78173313Y-88699310D01*
X78159722Y-88701326D01*
X78146000Y-88702000D01*
X77866000Y-88702000D01*
X77852278Y-88701326D01*
X77838687Y-88699310D01*
X77825360Y-88695972D01*
X77812424Y-88691343D01*
X77800004Y-88685469D01*
X77788220Y-88678406D01*
X77777185Y-88670221D01*
X77767005Y-88660995D01*
X77757779Y-88650815D01*
X77749594Y-88639780D01*
X77742531Y-88627996D01*
X77736657Y-88615576D01*
X77732028Y-88602640D01*
X77728690Y-88589313D01*
X77726674Y-88575722D01*
X77726000Y-88562000D01*
X77726000Y-88222000D01*
X77726674Y-88208278D01*
X77728690Y-88194687D01*
X77732028Y-88181360D01*
X77736657Y-88168424D01*
X77742531Y-88156004D01*
X77749594Y-88144220D01*
X77757779Y-88133185D01*
X77767005Y-88123005D01*
X77777185Y-88113779D01*
X77788220Y-88105594D01*
X77800004Y-88098531D01*
X77812424Y-88092657D01*
X77825360Y-88088028D01*
X77838687Y-88084690D01*
X77852278Y-88082674D01*
X77866000Y-88082000D01*
X78146000Y-88082000D01*
X78159722Y-88082674D01*
G37*
G04 #@! TD.AperFunction*
G04 #@! TA.AperFunction,SMDPad,CuDef*
G36*
X79119722Y-88082674D02*
G01*
X79133313Y-88084690D01*
X79146640Y-88088028D01*
X79159576Y-88092657D01*
X79171996Y-88098531D01*
X79183780Y-88105594D01*
X79194815Y-88113779D01*
X79204995Y-88123005D01*
X79214221Y-88133185D01*
X79222406Y-88144220D01*
X79229469Y-88156004D01*
X79235343Y-88168424D01*
X79239972Y-88181360D01*
X79243310Y-88194687D01*
X79245326Y-88208278D01*
X79246000Y-88222000D01*
X79246000Y-88562000D01*
X79245326Y-88575722D01*
X79243310Y-88589313D01*
X79239972Y-88602640D01*
X79235343Y-88615576D01*
X79229469Y-88627996D01*
X79222406Y-88639780D01*
X79214221Y-88650815D01*
X79204995Y-88660995D01*
X79194815Y-88670221D01*
X79183780Y-88678406D01*
X79171996Y-88685469D01*
X79159576Y-88691343D01*
X79146640Y-88695972D01*
X79133313Y-88699310D01*
X79119722Y-88701326D01*
X79106000Y-88702000D01*
X78826000Y-88702000D01*
X78812278Y-88701326D01*
X78798687Y-88699310D01*
X78785360Y-88695972D01*
X78772424Y-88691343D01*
X78760004Y-88685469D01*
X78748220Y-88678406D01*
X78737185Y-88670221D01*
X78727005Y-88660995D01*
X78717779Y-88650815D01*
X78709594Y-88639780D01*
X78702531Y-88627996D01*
X78696657Y-88615576D01*
X78692028Y-88602640D01*
X78688690Y-88589313D01*
X78686674Y-88575722D01*
X78686000Y-88562000D01*
X78686000Y-88222000D01*
X78686674Y-88208278D01*
X78688690Y-88194687D01*
X78692028Y-88181360D01*
X78696657Y-88168424D01*
X78702531Y-88156004D01*
X78709594Y-88144220D01*
X78717779Y-88133185D01*
X78727005Y-88123005D01*
X78737185Y-88113779D01*
X78748220Y-88105594D01*
X78760004Y-88098531D01*
X78772424Y-88092657D01*
X78785360Y-88088028D01*
X78798687Y-88084690D01*
X78812278Y-88082674D01*
X78826000Y-88082000D01*
X79106000Y-88082000D01*
X79119722Y-88082674D01*
G37*
G04 #@! TD.AperFunction*
G04 #@! TA.AperFunction,SMDPad,CuDef*
G36*
X84199722Y-78811674D02*
G01*
X84213313Y-78813690D01*
X84226640Y-78817028D01*
X84239576Y-78821657D01*
X84251996Y-78827531D01*
X84263780Y-78834594D01*
X84274815Y-78842779D01*
X84284995Y-78852005D01*
X84294221Y-78862185D01*
X84302406Y-78873220D01*
X84309469Y-78885004D01*
X84315343Y-78897424D01*
X84319972Y-78910360D01*
X84323310Y-78923687D01*
X84325326Y-78937278D01*
X84326000Y-78951000D01*
X84326000Y-79291000D01*
X84325326Y-79304722D01*
X84323310Y-79318313D01*
X84319972Y-79331640D01*
X84315343Y-79344576D01*
X84309469Y-79356996D01*
X84302406Y-79368780D01*
X84294221Y-79379815D01*
X84284995Y-79389995D01*
X84274815Y-79399221D01*
X84263780Y-79407406D01*
X84251996Y-79414469D01*
X84239576Y-79420343D01*
X84226640Y-79424972D01*
X84213313Y-79428310D01*
X84199722Y-79430326D01*
X84186000Y-79431000D01*
X83906000Y-79431000D01*
X83892278Y-79430326D01*
X83878687Y-79428310D01*
X83865360Y-79424972D01*
X83852424Y-79420343D01*
X83840004Y-79414469D01*
X83828220Y-79407406D01*
X83817185Y-79399221D01*
X83807005Y-79389995D01*
X83797779Y-79379815D01*
X83789594Y-79368780D01*
X83782531Y-79356996D01*
X83776657Y-79344576D01*
X83772028Y-79331640D01*
X83768690Y-79318313D01*
X83766674Y-79304722D01*
X83766000Y-79291000D01*
X83766000Y-78951000D01*
X83766674Y-78937278D01*
X83768690Y-78923687D01*
X83772028Y-78910360D01*
X83776657Y-78897424D01*
X83782531Y-78885004D01*
X83789594Y-78873220D01*
X83797779Y-78862185D01*
X83807005Y-78852005D01*
X83817185Y-78842779D01*
X83828220Y-78834594D01*
X83840004Y-78827531D01*
X83852424Y-78821657D01*
X83865360Y-78817028D01*
X83878687Y-78813690D01*
X83892278Y-78811674D01*
X83906000Y-78811000D01*
X84186000Y-78811000D01*
X84199722Y-78811674D01*
G37*
G04 #@! TD.AperFunction*
G04 #@! TA.AperFunction,SMDPad,CuDef*
G36*
X83239722Y-78811674D02*
G01*
X83253313Y-78813690D01*
X83266640Y-78817028D01*
X83279576Y-78821657D01*
X83291996Y-78827531D01*
X83303780Y-78834594D01*
X83314815Y-78842779D01*
X83324995Y-78852005D01*
X83334221Y-78862185D01*
X83342406Y-78873220D01*
X83349469Y-78885004D01*
X83355343Y-78897424D01*
X83359972Y-78910360D01*
X83363310Y-78923687D01*
X83365326Y-78937278D01*
X83366000Y-78951000D01*
X83366000Y-79291000D01*
X83365326Y-79304722D01*
X83363310Y-79318313D01*
X83359972Y-79331640D01*
X83355343Y-79344576D01*
X83349469Y-79356996D01*
X83342406Y-79368780D01*
X83334221Y-79379815D01*
X83324995Y-79389995D01*
X83314815Y-79399221D01*
X83303780Y-79407406D01*
X83291996Y-79414469D01*
X83279576Y-79420343D01*
X83266640Y-79424972D01*
X83253313Y-79428310D01*
X83239722Y-79430326D01*
X83226000Y-79431000D01*
X82946000Y-79431000D01*
X82932278Y-79430326D01*
X82918687Y-79428310D01*
X82905360Y-79424972D01*
X82892424Y-79420343D01*
X82880004Y-79414469D01*
X82868220Y-79407406D01*
X82857185Y-79399221D01*
X82847005Y-79389995D01*
X82837779Y-79379815D01*
X82829594Y-79368780D01*
X82822531Y-79356996D01*
X82816657Y-79344576D01*
X82812028Y-79331640D01*
X82808690Y-79318313D01*
X82806674Y-79304722D01*
X82806000Y-79291000D01*
X82806000Y-78951000D01*
X82806674Y-78937278D01*
X82808690Y-78923687D01*
X82812028Y-78910360D01*
X82816657Y-78897424D01*
X82822531Y-78885004D01*
X82829594Y-78873220D01*
X82837779Y-78862185D01*
X82847005Y-78852005D01*
X82857185Y-78842779D01*
X82868220Y-78834594D01*
X82880004Y-78827531D01*
X82892424Y-78821657D01*
X82905360Y-78817028D01*
X82918687Y-78813690D01*
X82932278Y-78811674D01*
X82946000Y-78811000D01*
X83226000Y-78811000D01*
X83239722Y-78811674D01*
G37*
G04 #@! TD.AperFunction*
G04 #@! TA.AperFunction,SMDPad,CuDef*
G36*
X81024722Y-88082674D02*
G01*
X81038313Y-88084690D01*
X81051640Y-88088028D01*
X81064576Y-88092657D01*
X81076996Y-88098531D01*
X81088780Y-88105594D01*
X81099815Y-88113779D01*
X81109995Y-88123005D01*
X81119221Y-88133185D01*
X81127406Y-88144220D01*
X81134469Y-88156004D01*
X81140343Y-88168424D01*
X81144972Y-88181360D01*
X81148310Y-88194687D01*
X81150326Y-88208278D01*
X81151000Y-88222000D01*
X81151000Y-88562000D01*
X81150326Y-88575722D01*
X81148310Y-88589313D01*
X81144972Y-88602640D01*
X81140343Y-88615576D01*
X81134469Y-88627996D01*
X81127406Y-88639780D01*
X81119221Y-88650815D01*
X81109995Y-88660995D01*
X81099815Y-88670221D01*
X81088780Y-88678406D01*
X81076996Y-88685469D01*
X81064576Y-88691343D01*
X81051640Y-88695972D01*
X81038313Y-88699310D01*
X81024722Y-88701326D01*
X81011000Y-88702000D01*
X80731000Y-88702000D01*
X80717278Y-88701326D01*
X80703687Y-88699310D01*
X80690360Y-88695972D01*
X80677424Y-88691343D01*
X80665004Y-88685469D01*
X80653220Y-88678406D01*
X80642185Y-88670221D01*
X80632005Y-88660995D01*
X80622779Y-88650815D01*
X80614594Y-88639780D01*
X80607531Y-88627996D01*
X80601657Y-88615576D01*
X80597028Y-88602640D01*
X80593690Y-88589313D01*
X80591674Y-88575722D01*
X80591000Y-88562000D01*
X80591000Y-88222000D01*
X80591674Y-88208278D01*
X80593690Y-88194687D01*
X80597028Y-88181360D01*
X80601657Y-88168424D01*
X80607531Y-88156004D01*
X80614594Y-88144220D01*
X80622779Y-88133185D01*
X80632005Y-88123005D01*
X80642185Y-88113779D01*
X80653220Y-88105594D01*
X80665004Y-88098531D01*
X80677424Y-88092657D01*
X80690360Y-88088028D01*
X80703687Y-88084690D01*
X80717278Y-88082674D01*
X80731000Y-88082000D01*
X81011000Y-88082000D01*
X81024722Y-88082674D01*
G37*
G04 #@! TD.AperFunction*
G04 #@! TA.AperFunction,SMDPad,CuDef*
G36*
X80064722Y-88082674D02*
G01*
X80078313Y-88084690D01*
X80091640Y-88088028D01*
X80104576Y-88092657D01*
X80116996Y-88098531D01*
X80128780Y-88105594D01*
X80139815Y-88113779D01*
X80149995Y-88123005D01*
X80159221Y-88133185D01*
X80167406Y-88144220D01*
X80174469Y-88156004D01*
X80180343Y-88168424D01*
X80184972Y-88181360D01*
X80188310Y-88194687D01*
X80190326Y-88208278D01*
X80191000Y-88222000D01*
X80191000Y-88562000D01*
X80190326Y-88575722D01*
X80188310Y-88589313D01*
X80184972Y-88602640D01*
X80180343Y-88615576D01*
X80174469Y-88627996D01*
X80167406Y-88639780D01*
X80159221Y-88650815D01*
X80149995Y-88660995D01*
X80139815Y-88670221D01*
X80128780Y-88678406D01*
X80116996Y-88685469D01*
X80104576Y-88691343D01*
X80091640Y-88695972D01*
X80078313Y-88699310D01*
X80064722Y-88701326D01*
X80051000Y-88702000D01*
X79771000Y-88702000D01*
X79757278Y-88701326D01*
X79743687Y-88699310D01*
X79730360Y-88695972D01*
X79717424Y-88691343D01*
X79705004Y-88685469D01*
X79693220Y-88678406D01*
X79682185Y-88670221D01*
X79672005Y-88660995D01*
X79662779Y-88650815D01*
X79654594Y-88639780D01*
X79647531Y-88627996D01*
X79641657Y-88615576D01*
X79637028Y-88602640D01*
X79633690Y-88589313D01*
X79631674Y-88575722D01*
X79631000Y-88562000D01*
X79631000Y-88222000D01*
X79631674Y-88208278D01*
X79633690Y-88194687D01*
X79637028Y-88181360D01*
X79641657Y-88168424D01*
X79647531Y-88156004D01*
X79654594Y-88144220D01*
X79662779Y-88133185D01*
X79672005Y-88123005D01*
X79682185Y-88113779D01*
X79693220Y-88105594D01*
X79705004Y-88098531D01*
X79717424Y-88092657D01*
X79730360Y-88088028D01*
X79743687Y-88084690D01*
X79757278Y-88082674D01*
X79771000Y-88082000D01*
X80051000Y-88082000D01*
X80064722Y-88082674D01*
G37*
G04 #@! TD.AperFunction*
G04 #@! TA.AperFunction,SMDPad,CuDef*
G36*
X80701722Y-82115674D02*
G01*
X80715313Y-82117690D01*
X80728640Y-82121028D01*
X80741576Y-82125657D01*
X80753996Y-82131531D01*
X80765780Y-82138594D01*
X80776815Y-82146779D01*
X80786995Y-82156005D01*
X80796221Y-82166185D01*
X80804406Y-82177220D01*
X80811469Y-82189004D01*
X80817343Y-82201424D01*
X80821972Y-82214360D01*
X80825310Y-82227687D01*
X80827326Y-82241278D01*
X80828000Y-82255000D01*
X80828000Y-82535000D01*
X80827326Y-82548722D01*
X80825310Y-82562313D01*
X80821972Y-82575640D01*
X80817343Y-82588576D01*
X80811469Y-82600996D01*
X80804406Y-82612780D01*
X80796221Y-82623815D01*
X80786995Y-82633995D01*
X80776815Y-82643221D01*
X80765780Y-82651406D01*
X80753996Y-82658469D01*
X80741576Y-82664343D01*
X80728640Y-82668972D01*
X80715313Y-82672310D01*
X80701722Y-82674326D01*
X80688000Y-82675000D01*
X80348000Y-82675000D01*
X80334278Y-82674326D01*
X80320687Y-82672310D01*
X80307360Y-82668972D01*
X80294424Y-82664343D01*
X80282004Y-82658469D01*
X80270220Y-82651406D01*
X80259185Y-82643221D01*
X80249005Y-82633995D01*
X80239779Y-82623815D01*
X80231594Y-82612780D01*
X80224531Y-82600996D01*
X80218657Y-82588576D01*
X80214028Y-82575640D01*
X80210690Y-82562313D01*
X80208674Y-82548722D01*
X80208000Y-82535000D01*
X80208000Y-82255000D01*
X80208674Y-82241278D01*
X80210690Y-82227687D01*
X80214028Y-82214360D01*
X80218657Y-82201424D01*
X80224531Y-82189004D01*
X80231594Y-82177220D01*
X80239779Y-82166185D01*
X80249005Y-82156005D01*
X80259185Y-82146779D01*
X80270220Y-82138594D01*
X80282004Y-82131531D01*
X80294424Y-82125657D01*
X80307360Y-82121028D01*
X80320687Y-82117690D01*
X80334278Y-82115674D01*
X80348000Y-82115000D01*
X80688000Y-82115000D01*
X80701722Y-82115674D01*
G37*
G04 #@! TD.AperFunction*
G04 #@! TA.AperFunction,SMDPad,CuDef*
G36*
X80701722Y-81155674D02*
G01*
X80715313Y-81157690D01*
X80728640Y-81161028D01*
X80741576Y-81165657D01*
X80753996Y-81171531D01*
X80765780Y-81178594D01*
X80776815Y-81186779D01*
X80786995Y-81196005D01*
X80796221Y-81206185D01*
X80804406Y-81217220D01*
X80811469Y-81229004D01*
X80817343Y-81241424D01*
X80821972Y-81254360D01*
X80825310Y-81267687D01*
X80827326Y-81281278D01*
X80828000Y-81295000D01*
X80828000Y-81575000D01*
X80827326Y-81588722D01*
X80825310Y-81602313D01*
X80821972Y-81615640D01*
X80817343Y-81628576D01*
X80811469Y-81640996D01*
X80804406Y-81652780D01*
X80796221Y-81663815D01*
X80786995Y-81673995D01*
X80776815Y-81683221D01*
X80765780Y-81691406D01*
X80753996Y-81698469D01*
X80741576Y-81704343D01*
X80728640Y-81708972D01*
X80715313Y-81712310D01*
X80701722Y-81714326D01*
X80688000Y-81715000D01*
X80348000Y-81715000D01*
X80334278Y-81714326D01*
X80320687Y-81712310D01*
X80307360Y-81708972D01*
X80294424Y-81704343D01*
X80282004Y-81698469D01*
X80270220Y-81691406D01*
X80259185Y-81683221D01*
X80249005Y-81673995D01*
X80239779Y-81663815D01*
X80231594Y-81652780D01*
X80224531Y-81640996D01*
X80218657Y-81628576D01*
X80214028Y-81615640D01*
X80210690Y-81602313D01*
X80208674Y-81588722D01*
X80208000Y-81575000D01*
X80208000Y-81295000D01*
X80208674Y-81281278D01*
X80210690Y-81267687D01*
X80214028Y-81254360D01*
X80218657Y-81241424D01*
X80224531Y-81229004D01*
X80231594Y-81217220D01*
X80239779Y-81206185D01*
X80249005Y-81196005D01*
X80259185Y-81186779D01*
X80270220Y-81178594D01*
X80282004Y-81171531D01*
X80294424Y-81165657D01*
X80307360Y-81161028D01*
X80320687Y-81157690D01*
X80334278Y-81155674D01*
X80348000Y-81155000D01*
X80688000Y-81155000D01*
X80701722Y-81155674D01*
G37*
G04 #@! TD.AperFunction*
G04 #@! TA.AperFunction,SMDPad,CuDef*
G36*
X82675722Y-85669674D02*
G01*
X82689313Y-85671690D01*
X82702640Y-85675028D01*
X82715576Y-85679657D01*
X82727996Y-85685531D01*
X82739780Y-85692594D01*
X82750815Y-85700779D01*
X82760995Y-85710005D01*
X82770221Y-85720185D01*
X82778406Y-85731220D01*
X82785469Y-85743004D01*
X82791343Y-85755424D01*
X82795972Y-85768360D01*
X82799310Y-85781687D01*
X82801326Y-85795278D01*
X82802000Y-85809000D01*
X82802000Y-86149000D01*
X82801326Y-86162722D01*
X82799310Y-86176313D01*
X82795972Y-86189640D01*
X82791343Y-86202576D01*
X82785469Y-86214996D01*
X82778406Y-86226780D01*
X82770221Y-86237815D01*
X82760995Y-86247995D01*
X82750815Y-86257221D01*
X82739780Y-86265406D01*
X82727996Y-86272469D01*
X82715576Y-86278343D01*
X82702640Y-86282972D01*
X82689313Y-86286310D01*
X82675722Y-86288326D01*
X82662000Y-86289000D01*
X82382000Y-86289000D01*
X82368278Y-86288326D01*
X82354687Y-86286310D01*
X82341360Y-86282972D01*
X82328424Y-86278343D01*
X82316004Y-86272469D01*
X82304220Y-86265406D01*
X82293185Y-86257221D01*
X82283005Y-86247995D01*
X82273779Y-86237815D01*
X82265594Y-86226780D01*
X82258531Y-86214996D01*
X82252657Y-86202576D01*
X82248028Y-86189640D01*
X82244690Y-86176313D01*
X82242674Y-86162722D01*
X82242000Y-86149000D01*
X82242000Y-85809000D01*
X82242674Y-85795278D01*
X82244690Y-85781687D01*
X82248028Y-85768360D01*
X82252657Y-85755424D01*
X82258531Y-85743004D01*
X82265594Y-85731220D01*
X82273779Y-85720185D01*
X82283005Y-85710005D01*
X82293185Y-85700779D01*
X82304220Y-85692594D01*
X82316004Y-85685531D01*
X82328424Y-85679657D01*
X82341360Y-85675028D01*
X82354687Y-85671690D01*
X82368278Y-85669674D01*
X82382000Y-85669000D01*
X82662000Y-85669000D01*
X82675722Y-85669674D01*
G37*
G04 #@! TD.AperFunction*
G04 #@! TA.AperFunction,SMDPad,CuDef*
G36*
X81715722Y-85669674D02*
G01*
X81729313Y-85671690D01*
X81742640Y-85675028D01*
X81755576Y-85679657D01*
X81767996Y-85685531D01*
X81779780Y-85692594D01*
X81790815Y-85700779D01*
X81800995Y-85710005D01*
X81810221Y-85720185D01*
X81818406Y-85731220D01*
X81825469Y-85743004D01*
X81831343Y-85755424D01*
X81835972Y-85768360D01*
X81839310Y-85781687D01*
X81841326Y-85795278D01*
X81842000Y-85809000D01*
X81842000Y-86149000D01*
X81841326Y-86162722D01*
X81839310Y-86176313D01*
X81835972Y-86189640D01*
X81831343Y-86202576D01*
X81825469Y-86214996D01*
X81818406Y-86226780D01*
X81810221Y-86237815D01*
X81800995Y-86247995D01*
X81790815Y-86257221D01*
X81779780Y-86265406D01*
X81767996Y-86272469D01*
X81755576Y-86278343D01*
X81742640Y-86282972D01*
X81729313Y-86286310D01*
X81715722Y-86288326D01*
X81702000Y-86289000D01*
X81422000Y-86289000D01*
X81408278Y-86288326D01*
X81394687Y-86286310D01*
X81381360Y-86282972D01*
X81368424Y-86278343D01*
X81356004Y-86272469D01*
X81344220Y-86265406D01*
X81333185Y-86257221D01*
X81323005Y-86247995D01*
X81313779Y-86237815D01*
X81305594Y-86226780D01*
X81298531Y-86214996D01*
X81292657Y-86202576D01*
X81288028Y-86189640D01*
X81284690Y-86176313D01*
X81282674Y-86162722D01*
X81282000Y-86149000D01*
X81282000Y-85809000D01*
X81282674Y-85795278D01*
X81284690Y-85781687D01*
X81288028Y-85768360D01*
X81292657Y-85755424D01*
X81298531Y-85743004D01*
X81305594Y-85731220D01*
X81313779Y-85720185D01*
X81323005Y-85710005D01*
X81333185Y-85700779D01*
X81344220Y-85692594D01*
X81356004Y-85685531D01*
X81368424Y-85679657D01*
X81381360Y-85675028D01*
X81394687Y-85671690D01*
X81408278Y-85669674D01*
X81422000Y-85669000D01*
X81702000Y-85669000D01*
X81715722Y-85669674D01*
G37*
G04 #@! TD.AperFunction*
G04 #@! TA.AperFunction,SMDPad,CuDef*
G36*
X87304004Y-74619204D02*
G01*
X87328273Y-74622804D01*
X87352071Y-74628765D01*
X87375171Y-74637030D01*
X87397349Y-74647520D01*
X87418393Y-74660133D01*
X87438098Y-74674747D01*
X87456277Y-74691223D01*
X87472753Y-74709402D01*
X87487367Y-74729107D01*
X87499980Y-74750151D01*
X87510470Y-74772329D01*
X87518735Y-74795429D01*
X87524696Y-74819227D01*
X87528296Y-74843496D01*
X87529500Y-74868000D01*
X87529500Y-75368000D01*
X87528296Y-75392504D01*
X87524696Y-75416773D01*
X87518735Y-75440571D01*
X87510470Y-75463671D01*
X87499980Y-75485849D01*
X87487367Y-75506893D01*
X87472753Y-75526598D01*
X87456277Y-75544777D01*
X87438098Y-75561253D01*
X87418393Y-75575867D01*
X87397349Y-75588480D01*
X87375171Y-75598970D01*
X87352071Y-75607235D01*
X87328273Y-75613196D01*
X87304004Y-75616796D01*
X87279500Y-75618000D01*
X86329500Y-75618000D01*
X86304996Y-75616796D01*
X86280727Y-75613196D01*
X86256929Y-75607235D01*
X86233829Y-75598970D01*
X86211651Y-75588480D01*
X86190607Y-75575867D01*
X86170902Y-75561253D01*
X86152723Y-75544777D01*
X86136247Y-75526598D01*
X86121633Y-75506893D01*
X86109020Y-75485849D01*
X86098530Y-75463671D01*
X86090265Y-75440571D01*
X86084304Y-75416773D01*
X86080704Y-75392504D01*
X86079500Y-75368000D01*
X86079500Y-74868000D01*
X86080704Y-74843496D01*
X86084304Y-74819227D01*
X86090265Y-74795429D01*
X86098530Y-74772329D01*
X86109020Y-74750151D01*
X86121633Y-74729107D01*
X86136247Y-74709402D01*
X86152723Y-74691223D01*
X86170902Y-74674747D01*
X86190607Y-74660133D01*
X86211651Y-74647520D01*
X86233829Y-74637030D01*
X86256929Y-74628765D01*
X86280727Y-74622804D01*
X86304996Y-74619204D01*
X86329500Y-74618000D01*
X87279500Y-74618000D01*
X87304004Y-74619204D01*
G37*
G04 #@! TD.AperFunction*
G04 #@! TA.AperFunction,SMDPad,CuDef*
G36*
X87304004Y-72719204D02*
G01*
X87328273Y-72722804D01*
X87352071Y-72728765D01*
X87375171Y-72737030D01*
X87397349Y-72747520D01*
X87418393Y-72760133D01*
X87438098Y-72774747D01*
X87456277Y-72791223D01*
X87472753Y-72809402D01*
X87487367Y-72829107D01*
X87499980Y-72850151D01*
X87510470Y-72872329D01*
X87518735Y-72895429D01*
X87524696Y-72919227D01*
X87528296Y-72943496D01*
X87529500Y-72968000D01*
X87529500Y-73468000D01*
X87528296Y-73492504D01*
X87524696Y-73516773D01*
X87518735Y-73540571D01*
X87510470Y-73563671D01*
X87499980Y-73585849D01*
X87487367Y-73606893D01*
X87472753Y-73626598D01*
X87456277Y-73644777D01*
X87438098Y-73661253D01*
X87418393Y-73675867D01*
X87397349Y-73688480D01*
X87375171Y-73698970D01*
X87352071Y-73707235D01*
X87328273Y-73713196D01*
X87304004Y-73716796D01*
X87279500Y-73718000D01*
X86329500Y-73718000D01*
X86304996Y-73716796D01*
X86280727Y-73713196D01*
X86256929Y-73707235D01*
X86233829Y-73698970D01*
X86211651Y-73688480D01*
X86190607Y-73675867D01*
X86170902Y-73661253D01*
X86152723Y-73644777D01*
X86136247Y-73626598D01*
X86121633Y-73606893D01*
X86109020Y-73585849D01*
X86098530Y-73563671D01*
X86090265Y-73540571D01*
X86084304Y-73516773D01*
X86080704Y-73492504D01*
X86079500Y-73468000D01*
X86079500Y-72968000D01*
X86080704Y-72943496D01*
X86084304Y-72919227D01*
X86090265Y-72895429D01*
X86098530Y-72872329D01*
X86109020Y-72850151D01*
X86121633Y-72829107D01*
X86136247Y-72809402D01*
X86152723Y-72791223D01*
X86170902Y-72774747D01*
X86190607Y-72760133D01*
X86211651Y-72747520D01*
X86233829Y-72737030D01*
X86256929Y-72728765D01*
X86280727Y-72722804D01*
X86304996Y-72719204D01*
X86329500Y-72718000D01*
X87279500Y-72718000D01*
X87304004Y-72719204D01*
G37*
G04 #@! TD.AperFunction*
G04 #@! TA.AperFunction,SMDPad,CuDef*
G36*
X76953504Y-69734704D02*
G01*
X76977773Y-69738304D01*
X77001571Y-69744265D01*
X77024671Y-69752530D01*
X77046849Y-69763020D01*
X77067893Y-69775633D01*
X77087598Y-69790247D01*
X77105777Y-69806723D01*
X77122253Y-69824902D01*
X77136867Y-69844607D01*
X77149480Y-69865651D01*
X77159970Y-69887829D01*
X77168235Y-69910929D01*
X77174196Y-69934727D01*
X77177796Y-69958996D01*
X77179000Y-69983500D01*
X77179000Y-70483500D01*
X77177796Y-70508004D01*
X77174196Y-70532273D01*
X77168235Y-70556071D01*
X77159970Y-70579171D01*
X77149480Y-70601349D01*
X77136867Y-70622393D01*
X77122253Y-70642098D01*
X77105777Y-70660277D01*
X77087598Y-70676753D01*
X77067893Y-70691367D01*
X77046849Y-70703980D01*
X77024671Y-70714470D01*
X77001571Y-70722735D01*
X76977773Y-70728696D01*
X76953504Y-70732296D01*
X76929000Y-70733500D01*
X75979000Y-70733500D01*
X75954496Y-70732296D01*
X75930227Y-70728696D01*
X75906429Y-70722735D01*
X75883329Y-70714470D01*
X75861151Y-70703980D01*
X75840107Y-70691367D01*
X75820402Y-70676753D01*
X75802223Y-70660277D01*
X75785747Y-70642098D01*
X75771133Y-70622393D01*
X75758520Y-70601349D01*
X75748030Y-70579171D01*
X75739765Y-70556071D01*
X75733804Y-70532273D01*
X75730204Y-70508004D01*
X75729000Y-70483500D01*
X75729000Y-69983500D01*
X75730204Y-69958996D01*
X75733804Y-69934727D01*
X75739765Y-69910929D01*
X75748030Y-69887829D01*
X75758520Y-69865651D01*
X75771133Y-69844607D01*
X75785747Y-69824902D01*
X75802223Y-69806723D01*
X75820402Y-69790247D01*
X75840107Y-69775633D01*
X75861151Y-69763020D01*
X75883329Y-69752530D01*
X75906429Y-69744265D01*
X75930227Y-69738304D01*
X75954496Y-69734704D01*
X75979000Y-69733500D01*
X76929000Y-69733500D01*
X76953504Y-69734704D01*
G37*
G04 #@! TD.AperFunction*
G04 #@! TA.AperFunction,SMDPad,CuDef*
G36*
X76953504Y-71634704D02*
G01*
X76977773Y-71638304D01*
X77001571Y-71644265D01*
X77024671Y-71652530D01*
X77046849Y-71663020D01*
X77067893Y-71675633D01*
X77087598Y-71690247D01*
X77105777Y-71706723D01*
X77122253Y-71724902D01*
X77136867Y-71744607D01*
X77149480Y-71765651D01*
X77159970Y-71787829D01*
X77168235Y-71810929D01*
X77174196Y-71834727D01*
X77177796Y-71858996D01*
X77179000Y-71883500D01*
X77179000Y-72383500D01*
X77177796Y-72408004D01*
X77174196Y-72432273D01*
X77168235Y-72456071D01*
X77159970Y-72479171D01*
X77149480Y-72501349D01*
X77136867Y-72522393D01*
X77122253Y-72542098D01*
X77105777Y-72560277D01*
X77087598Y-72576753D01*
X77067893Y-72591367D01*
X77046849Y-72603980D01*
X77024671Y-72614470D01*
X77001571Y-72622735D01*
X76977773Y-72628696D01*
X76953504Y-72632296D01*
X76929000Y-72633500D01*
X75979000Y-72633500D01*
X75954496Y-72632296D01*
X75930227Y-72628696D01*
X75906429Y-72622735D01*
X75883329Y-72614470D01*
X75861151Y-72603980D01*
X75840107Y-72591367D01*
X75820402Y-72576753D01*
X75802223Y-72560277D01*
X75785747Y-72542098D01*
X75771133Y-72522393D01*
X75758520Y-72501349D01*
X75748030Y-72479171D01*
X75739765Y-72456071D01*
X75733804Y-72432273D01*
X75730204Y-72408004D01*
X75729000Y-72383500D01*
X75729000Y-71883500D01*
X75730204Y-71858996D01*
X75733804Y-71834727D01*
X75739765Y-71810929D01*
X75748030Y-71787829D01*
X75758520Y-71765651D01*
X75771133Y-71744607D01*
X75785747Y-71724902D01*
X75802223Y-71706723D01*
X75820402Y-71690247D01*
X75840107Y-71675633D01*
X75861151Y-71663020D01*
X75883329Y-71652530D01*
X75906429Y-71644265D01*
X75930227Y-71638304D01*
X75954496Y-71634704D01*
X75979000Y-71633500D01*
X76929000Y-71633500D01*
X76953504Y-71634704D01*
G37*
G04 #@! TD.AperFunction*
D20*
X82550000Y-82423000D03*
X80518000Y-82423000D03*
X80137000Y-84963000D03*
X82423000Y-84836000D03*
X85381402Y-93604999D03*
X86351753Y-89023260D03*
X77470000Y-88519000D03*
X80443500Y-89154000D03*
X83820000Y-70104000D03*
X86741000Y-75946000D03*
X83947000Y-78994000D03*
X82296000Y-81026000D03*
X78814499Y-77531451D03*
X76073000Y-78867000D03*
X76581000Y-81407001D03*
X83279610Y-85696364D03*
X78966000Y-88392000D03*
X80645000Y-86106000D03*
X77089000Y-86614000D03*
X78994000Y-86360000D03*
X81835804Y-88852196D03*
X76835000Y-98171000D03*
X87329999Y-96520000D03*
X85725000Y-83058000D03*
X85075042Y-76242050D03*
X86614000Y-72263000D03*
X86360000Y-86741000D03*
X76073000Y-76581000D03*
X81280000Y-81280000D03*
X76835000Y-83018148D03*
X79358596Y-89228577D03*
X81562000Y-85979000D03*
X80518000Y-81407000D03*
X87376000Y-71882000D03*
X86931500Y-78995000D03*
X77851000Y-69088000D03*
X75819000Y-80772000D03*
X75565000Y-67818000D03*
X79756000Y-81407000D03*
X83947000Y-84582000D03*
X75692000Y-84328000D03*
X83439000Y-83820000D03*
X75438000Y-83693000D03*
X76192000Y-84836000D03*
X76192000Y-95250000D03*
X85657519Y-83882686D03*
X85725000Y-80899000D03*
X83745028Y-83303910D03*
X75947235Y-83320000D03*
X76708000Y-92329000D03*
X87368000Y-90932000D03*
X90634000Y-91059000D03*
X87937904Y-85290095D03*
X85344000Y-72898000D03*
X78439490Y-72771000D03*
X77582671Y-68551342D03*
X87965029Y-84610113D03*
X86129548Y-81468283D03*
X90634000Y-80899000D03*
X83693000Y-81153000D03*
X82865212Y-81215737D03*
X75569172Y-81735224D03*
X86394325Y-83172382D03*
X90170000Y-83312000D03*
X86917189Y-83872381D03*
X85949235Y-92718598D03*
X87630000Y-92964000D03*
X83312000Y-96647000D03*
X79121000Y-96647000D03*
X83923010Y-95377000D03*
X79121000Y-95377000D03*
X84323020Y-93345000D03*
X78232000Y-93472000D03*
X83659971Y-86194962D03*
X86868000Y-86233000D03*
D21*
X80871000Y-88082000D02*
X80871000Y-88392000D01*
X82138260Y-87781990D02*
X81171010Y-87781990D01*
X81171010Y-87781990D02*
X80871000Y-88082000D01*
X82748270Y-88392000D02*
X82138260Y-87781990D01*
X82776000Y-88392000D02*
X82748270Y-88392000D01*
X77597000Y-88392000D02*
X77470000Y-88519000D01*
X78006000Y-88392000D02*
X77597000Y-88392000D01*
X80871000Y-88726500D02*
X80443500Y-89154000D01*
X80871000Y-88392000D02*
X80871000Y-88726500D01*
X75740501Y-69520001D02*
X76454000Y-70233500D01*
X74163501Y-69520001D02*
X75740501Y-69520001D01*
X83185000Y-69469000D02*
X83820000Y-70104000D01*
X83185000Y-68897500D02*
X83185000Y-69469000D01*
X86804500Y-75882500D02*
X86741000Y-75946000D01*
X86804500Y-75118000D02*
X86804500Y-75882500D01*
X76150500Y-78944500D02*
X76073000Y-78867000D01*
X77431500Y-78944500D02*
X76150500Y-78944500D01*
X82996974Y-85979000D02*
X83279610Y-85696364D01*
X82522000Y-85979000D02*
X82996974Y-85979000D01*
X81816000Y-88832392D02*
X81835804Y-88852196D01*
X81816000Y-88392000D02*
X81816000Y-88832392D01*
X84672592Y-76644500D02*
X85075042Y-76242050D01*
X83731500Y-76644500D02*
X84672592Y-76644500D01*
X86804500Y-72453500D02*
X86614000Y-72263000D01*
X86804500Y-73218000D02*
X86804500Y-72453500D01*
X85725000Y-83058000D02*
X85852000Y-83058000D01*
X76136500Y-76644500D02*
X76073000Y-76581000D01*
X77431500Y-76644500D02*
X76136500Y-76644500D01*
X84328000Y-77241000D02*
X83731500Y-76644500D01*
X83086000Y-79474000D02*
X83086000Y-79121000D01*
X81280000Y-81280000D02*
X83086000Y-79474000D01*
X77431500Y-73111000D02*
X76454000Y-72133500D01*
X77431500Y-74344500D02*
X77431500Y-73111000D01*
X77431500Y-74344500D02*
X77431500Y-72174500D01*
X77724000Y-71882000D02*
X80328500Y-71882000D01*
X77431500Y-72174500D02*
X77724000Y-71882000D01*
X79358596Y-88944404D02*
X79911000Y-88392000D01*
X79358596Y-89228577D02*
X79358596Y-88944404D01*
X87006499Y-82220001D02*
X86931500Y-82295000D01*
X89403501Y-82220001D02*
X87006499Y-82220001D01*
X74163501Y-83848003D02*
X74163501Y-84760001D01*
X77531864Y-82975010D02*
X77075001Y-82518147D01*
X80870260Y-82975010D02*
X77531864Y-82975010D01*
X82790001Y-82923001D02*
X80922269Y-82923001D01*
X83790003Y-81922999D02*
X82790001Y-82923001D01*
X77075001Y-82518147D02*
X75469853Y-82518147D01*
X80922269Y-82923001D02*
X80870260Y-82975010D01*
X86131500Y-82295000D02*
X85759499Y-81922999D01*
X86931500Y-82295000D02*
X86131500Y-82295000D01*
X74295000Y-83693000D02*
X74163501Y-83848003D01*
X75469853Y-82518147D02*
X74295000Y-83693000D01*
X85759499Y-81922999D02*
X83790003Y-81922999D01*
X87256999Y-71762999D02*
X87376000Y-71882000D01*
X84278500Y-71882000D02*
X84397501Y-71762999D01*
X84397501Y-71762999D02*
X87256999Y-71762999D01*
X83628500Y-71882000D02*
X84278500Y-71882000D01*
X80454500Y-69088000D02*
X80645000Y-68897500D01*
X77851000Y-69088000D02*
X80454500Y-69088000D01*
X79648894Y-80772000D02*
X75819000Y-80772000D01*
X85725000Y-67847500D02*
X85725000Y-68897500D01*
X85495501Y-67618001D02*
X85725000Y-67847500D01*
X75764999Y-67618001D02*
X85495501Y-67618001D01*
X75565000Y-67818000D02*
X75764999Y-67618001D01*
X79756000Y-80879106D02*
X79648894Y-80772000D01*
X79756000Y-81407000D02*
X79756000Y-80879106D01*
X83700999Y-84335999D02*
X76969999Y-84335999D01*
X83947000Y-84582000D02*
X83700999Y-84335999D01*
X76969999Y-84335999D02*
X76962000Y-84328000D01*
X76962000Y-84328000D02*
X75692000Y-84328000D01*
X83156158Y-83820000D02*
X83058000Y-83918158D01*
X83439000Y-83820000D02*
X83156158Y-83820000D01*
X76355842Y-83918158D02*
X76257684Y-83820000D01*
X83058000Y-83918158D02*
X76355842Y-83918158D01*
X75565000Y-83820000D02*
X75438000Y-83693000D01*
X76257684Y-83820000D02*
X75565000Y-83820000D01*
X85525001Y-84019999D02*
X84890001Y-84019999D01*
X83706999Y-85082001D02*
X83446999Y-84822001D01*
X84187001Y-85082001D02*
X83706999Y-85082001D01*
X84447001Y-84822001D02*
X84187001Y-85082001D01*
X84447001Y-84462999D02*
X84447001Y-84822001D01*
X84890001Y-84019999D02*
X84447001Y-84462999D01*
X76819001Y-85463001D02*
X76192000Y-84836000D01*
X80377001Y-85463001D02*
X76819001Y-85463001D01*
X80504001Y-85336001D02*
X80377001Y-85463001D01*
X82932999Y-85336001D02*
X80504001Y-85336001D01*
X83446999Y-84822001D02*
X82932999Y-85336001D01*
X75862001Y-94920001D02*
X74163501Y-94920001D01*
X76192000Y-95250000D02*
X75862001Y-94920001D01*
X85525001Y-83892999D02*
X85598000Y-83820000D01*
X85525001Y-84019999D02*
X85525001Y-83892999D01*
X88184502Y-80899000D02*
X89403501Y-79680001D01*
X85725000Y-80899000D02*
X88184502Y-80899000D01*
X83745028Y-83303910D02*
X83215088Y-83303910D01*
X83099008Y-83419990D02*
X82990469Y-83419990D01*
X82990469Y-83419990D02*
X82892311Y-83518148D01*
X83215088Y-83303910D02*
X83099008Y-83419990D01*
X76521531Y-83518148D02*
X76423373Y-83419990D01*
X82892311Y-83518148D02*
X76521531Y-83518148D01*
X76047225Y-83419990D02*
X75947235Y-83320000D01*
X76423373Y-83419990D02*
X76047225Y-83419990D01*
X74214502Y-92329000D02*
X74163501Y-92380001D01*
X76708000Y-92329000D02*
X74214502Y-92329000D01*
X90561001Y-91131999D02*
X90634000Y-91059000D01*
X87567999Y-91131999D02*
X90561001Y-91131999D01*
X87368000Y-90932000D02*
X87567999Y-91131999D01*
X88303500Y-92897498D02*
X88303500Y-98900000D01*
X86867999Y-91461997D02*
X88303500Y-92897498D01*
X88603502Y-99200002D02*
X89403501Y-100000001D01*
X88303500Y-98900000D02*
X88603502Y-99200002D01*
X86867999Y-90691999D02*
X86867999Y-91461997D01*
X87937904Y-89622094D02*
X86867999Y-90691999D01*
X87937904Y-85290095D02*
X87937904Y-89622094D01*
X78566490Y-72898000D02*
X78439490Y-72771000D01*
X85344000Y-72898000D02*
X78566490Y-72898000D01*
X73063500Y-70960000D02*
X73363502Y-71260002D01*
X73063500Y-68480000D02*
X73063500Y-70960000D01*
X73363502Y-71260002D02*
X74163501Y-72060001D01*
X73123500Y-68420000D02*
X73063500Y-68480000D01*
X77168487Y-68420000D02*
X73123500Y-68420000D01*
X77299829Y-68551342D02*
X77168487Y-68420000D01*
X77582671Y-68551342D02*
X77299829Y-68551342D01*
X87437903Y-89556397D02*
X87437903Y-85050094D01*
X85449234Y-91545066D02*
X87437903Y-89556397D01*
X85449234Y-92958599D02*
X85449234Y-91545066D01*
X86189236Y-93698601D02*
X85449234Y-92958599D01*
X87437903Y-85050094D02*
X87877884Y-84610113D01*
X86189236Y-99325736D02*
X86189236Y-93698601D01*
X87877884Y-84610113D02*
X87965029Y-84610113D01*
X89403501Y-102540001D02*
X86189236Y-99325736D01*
X86129548Y-81468283D02*
X86548283Y-81468283D01*
X86548283Y-81468283D02*
X86614000Y-81534000D01*
X86614000Y-81534000D02*
X88519000Y-81534000D01*
X88519000Y-81534000D02*
X89154000Y-80899000D01*
X89812504Y-80899000D02*
X90634000Y-80899000D01*
X89154000Y-80899000D02*
X89812504Y-80899000D01*
X75369173Y-81535225D02*
X75569172Y-81735224D01*
X74953948Y-81120000D02*
X75369173Y-81535225D01*
X73635500Y-81120000D02*
X74953948Y-81120000D01*
X73063500Y-81692000D02*
X73635500Y-81120000D01*
X73063500Y-85288002D02*
X73063500Y-81692000D01*
X74163501Y-86388003D02*
X73063500Y-85288002D01*
X74163501Y-87300001D02*
X74163501Y-86388003D01*
X90109619Y-83372381D02*
X90170000Y-83312000D01*
X86594324Y-83372381D02*
X90109619Y-83372381D01*
X86394325Y-83172382D02*
X86594324Y-83372381D01*
X87384598Y-92718598D02*
X87630000Y-92964000D01*
X85949235Y-92718598D02*
X87384598Y-92718598D01*
X83312000Y-96647000D02*
X79121000Y-96647000D01*
X83923010Y-95377000D02*
X79121000Y-95377000D01*
X78359000Y-93345000D02*
X78232000Y-93472000D01*
X84323020Y-93345000D02*
X78359000Y-93345000D01*
X86829962Y-86194962D02*
X86868000Y-86233000D01*
X83659971Y-86194962D02*
X86829962Y-86194962D01*
M02*
