G04 #@! TF.GenerationSoftware,KiCad,Pcbnew,5.1.5+dfsg1-2build2*
G04 #@! TF.CreationDate,2023-08-25T20:20:15+01:00*
G04 #@! TF.ProjectId,pico-sp0256,7069636f-2d73-4703-9032-35362e6b6963,rev?*
G04 #@! TF.SameCoordinates,Original*
G04 #@! TF.FileFunction,Soldermask,Top*
G04 #@! TF.FilePolarity,Negative*
%FSLAX46Y46*%
G04 Gerber Fmt 4.6, Leading zero omitted, Abs format (unit mm)*
G04 Created by KiCad (PCBNEW 5.1.5+dfsg1-2build2) date 2023-08-25 20:20:15*
%MOMM*%
%LPD*%
G04 APERTURE LIST*
%ADD10C,0.100000*%
G04 APERTURE END LIST*
D10*
G36*
X85285415Y-102061334D02*
G01*
X85393991Y-102094271D01*
X85393994Y-102094272D01*
X85430100Y-102113571D01*
X85494056Y-102147756D01*
X85581764Y-102219736D01*
X85653744Y-102307443D01*
X85687929Y-102371399D01*
X85707228Y-102407505D01*
X85707228Y-102407506D01*
X85707229Y-102407508D01*
X85740166Y-102516084D01*
X85748500Y-102600702D01*
X85748500Y-103507298D01*
X85740166Y-103591916D01*
X85707229Y-103700491D01*
X85707228Y-103700495D01*
X85687929Y-103736601D01*
X85653744Y-103800557D01*
X85581764Y-103888264D01*
X85494057Y-103960244D01*
X85430101Y-103994429D01*
X85393995Y-104013728D01*
X85393992Y-104013729D01*
X85285416Y-104046666D01*
X85172500Y-104057787D01*
X85059585Y-104046666D01*
X84951009Y-104013729D01*
X84951006Y-104013728D01*
X84914900Y-103994429D01*
X84850944Y-103960244D01*
X84763237Y-103888264D01*
X84691257Y-103800557D01*
X84657072Y-103736601D01*
X84637773Y-103700495D01*
X84637772Y-103700491D01*
X84604835Y-103591916D01*
X84596500Y-103507298D01*
X84596500Y-102600703D01*
X84604834Y-102516085D01*
X84637771Y-102407509D01*
X84637772Y-102407506D01*
X84657071Y-102371400D01*
X84691256Y-102307444D01*
X84763236Y-102219736D01*
X84850943Y-102147756D01*
X84914899Y-102113571D01*
X84951005Y-102094272D01*
X84951008Y-102094271D01*
X85059584Y-102061334D01*
X85172500Y-102050213D01*
X85285415Y-102061334D01*
G37*
G36*
X78135416Y-102061334D02*
G01*
X78243992Y-102094271D01*
X78243995Y-102094272D01*
X78280101Y-102113571D01*
X78344057Y-102147756D01*
X78431764Y-102219736D01*
X78503744Y-102307443D01*
X78537929Y-102371399D01*
X78557228Y-102407505D01*
X78557228Y-102407506D01*
X78557229Y-102407508D01*
X78590166Y-102516084D01*
X78598500Y-102600702D01*
X78598500Y-103507298D01*
X78590166Y-103591916D01*
X78557229Y-103700491D01*
X78557228Y-103700495D01*
X78537929Y-103736601D01*
X78503744Y-103800557D01*
X78431764Y-103888264D01*
X78344056Y-103960244D01*
X78280100Y-103994429D01*
X78243994Y-104013728D01*
X78243991Y-104013729D01*
X78135415Y-104046666D01*
X78022500Y-104057787D01*
X77909584Y-104046666D01*
X77801008Y-104013729D01*
X77801005Y-104013728D01*
X77764899Y-103994429D01*
X77700943Y-103960244D01*
X77613236Y-103888264D01*
X77541256Y-103800556D01*
X77487773Y-103700495D01*
X77487772Y-103700494D01*
X77487771Y-103700491D01*
X77454834Y-103591915D01*
X77446500Y-103507297D01*
X77446500Y-102600702D01*
X77454835Y-102516084D01*
X77487772Y-102407508D01*
X77487773Y-102407506D01*
X77487773Y-102407505D01*
X77507072Y-102371399D01*
X77541257Y-102307443D01*
X77613237Y-102219736D01*
X77700944Y-102147756D01*
X77764900Y-102113571D01*
X77801006Y-102094272D01*
X77801009Y-102094271D01*
X77909585Y-102061334D01*
X78022500Y-102050213D01*
X78135416Y-102061334D01*
G37*
G36*
X81398500Y-104055000D02*
G01*
X79546500Y-104055000D01*
X79546500Y-102053000D01*
X81398500Y-102053000D01*
X81398500Y-104055000D01*
G37*
G36*
X83648500Y-104055000D02*
G01*
X81796500Y-104055000D01*
X81796500Y-102053000D01*
X83648500Y-102053000D01*
X83648500Y-104055000D01*
G37*
G36*
X74411729Y-101721704D02*
G01*
X74566601Y-101785854D01*
X74705982Y-101878986D01*
X74824516Y-101997520D01*
X74917648Y-102136901D01*
X74981798Y-102291773D01*
X75014501Y-102456185D01*
X75014501Y-102623817D01*
X74981798Y-102788229D01*
X74917648Y-102943101D01*
X74824516Y-103082482D01*
X74705982Y-103201016D01*
X74566601Y-103294148D01*
X74411729Y-103358298D01*
X74247317Y-103391001D01*
X74079685Y-103391001D01*
X73915273Y-103358298D01*
X73760401Y-103294148D01*
X73621020Y-103201016D01*
X73502486Y-103082482D01*
X73409354Y-102943101D01*
X73345204Y-102788229D01*
X73312501Y-102623817D01*
X73312501Y-102456185D01*
X73345204Y-102291773D01*
X73409354Y-102136901D01*
X73502486Y-101997520D01*
X73621020Y-101878986D01*
X73760401Y-101785854D01*
X73915273Y-101721704D01*
X74079685Y-101689001D01*
X74247317Y-101689001D01*
X74411729Y-101721704D01*
G37*
G36*
X89651729Y-101721704D02*
G01*
X89806601Y-101785854D01*
X89945982Y-101878986D01*
X90064516Y-101997520D01*
X90157648Y-102136901D01*
X90221798Y-102291773D01*
X90254501Y-102456185D01*
X90254501Y-102623817D01*
X90221798Y-102788229D01*
X90157648Y-102943101D01*
X90064516Y-103082482D01*
X89945982Y-103201016D01*
X89806601Y-103294148D01*
X89651729Y-103358298D01*
X89487317Y-103391001D01*
X89319685Y-103391001D01*
X89155273Y-103358298D01*
X89000401Y-103294148D01*
X88861020Y-103201016D01*
X88742486Y-103082482D01*
X88649354Y-102943101D01*
X88585204Y-102788229D01*
X88552501Y-102623817D01*
X88552501Y-102456185D01*
X88585204Y-102291773D01*
X88649354Y-102136901D01*
X88742486Y-101997520D01*
X88861020Y-101878986D01*
X89000401Y-101785854D01*
X89155273Y-101721704D01*
X89319685Y-101689001D01*
X89487317Y-101689001D01*
X89651729Y-101721704D01*
G37*
G36*
X83148500Y-99923001D02*
G01*
X83150902Y-99947387D01*
X83158015Y-99970836D01*
X83169566Y-99992447D01*
X83185111Y-100011389D01*
X83204053Y-100026934D01*
X83225664Y-100038485D01*
X83249113Y-100045598D01*
X83273499Y-100048000D01*
X84543500Y-100048000D01*
X84543500Y-101600000D01*
X83291500Y-101600000D01*
X83291500Y-101279999D01*
X83289098Y-101255613D01*
X83281985Y-101232164D01*
X83270434Y-101210553D01*
X83254889Y-101191611D01*
X83235947Y-101176066D01*
X83214336Y-101164515D01*
X83190887Y-101157402D01*
X83166501Y-101155000D01*
X80028499Y-101155000D01*
X80004113Y-101157402D01*
X79980664Y-101164515D01*
X79959053Y-101176066D01*
X79940111Y-101191611D01*
X79924566Y-101210553D01*
X79913015Y-101232164D01*
X79905902Y-101255613D01*
X79903500Y-101279999D01*
X79903500Y-101600000D01*
X78651500Y-101600000D01*
X78651500Y-100048000D01*
X79921501Y-100048000D01*
X79945887Y-100045598D01*
X79969336Y-100038485D01*
X79990947Y-100026934D01*
X80009889Y-100011389D01*
X80025434Y-99992447D01*
X80036985Y-99970836D01*
X80044098Y-99947387D01*
X80046500Y-99923001D01*
X80046500Y-99653000D01*
X83148500Y-99653000D01*
X83148500Y-99923001D01*
G37*
G36*
X89651729Y-99181704D02*
G01*
X89806601Y-99245854D01*
X89945982Y-99338986D01*
X90064516Y-99457520D01*
X90157648Y-99596901D01*
X90221798Y-99751773D01*
X90254501Y-99916185D01*
X90254501Y-100083817D01*
X90221798Y-100248229D01*
X90157648Y-100403101D01*
X90064516Y-100542482D01*
X89945982Y-100661016D01*
X89806601Y-100754148D01*
X89651729Y-100818298D01*
X89487317Y-100851001D01*
X89319685Y-100851001D01*
X89155273Y-100818298D01*
X89000401Y-100754148D01*
X88861020Y-100661016D01*
X88742486Y-100542482D01*
X88649354Y-100403101D01*
X88585204Y-100248229D01*
X88552501Y-100083817D01*
X88552501Y-99916185D01*
X88585204Y-99751773D01*
X88649354Y-99596901D01*
X88742486Y-99457520D01*
X88861020Y-99338986D01*
X89000401Y-99245854D01*
X89155273Y-99181704D01*
X89319685Y-99149001D01*
X89487317Y-99149001D01*
X89651729Y-99181704D01*
G37*
G36*
X74411729Y-99181704D02*
G01*
X74566601Y-99245854D01*
X74705982Y-99338986D01*
X74824516Y-99457520D01*
X74917648Y-99596901D01*
X74981798Y-99751773D01*
X75014501Y-99916185D01*
X75014501Y-100083817D01*
X74981798Y-100248229D01*
X74917648Y-100403101D01*
X74824516Y-100542482D01*
X74705982Y-100661016D01*
X74566601Y-100754148D01*
X74411729Y-100818298D01*
X74247317Y-100851001D01*
X74079685Y-100851001D01*
X73915273Y-100818298D01*
X73760401Y-100754148D01*
X73621020Y-100661016D01*
X73502486Y-100542482D01*
X73409354Y-100403101D01*
X73345204Y-100248229D01*
X73312501Y-100083817D01*
X73312501Y-99916185D01*
X73345204Y-99751773D01*
X73409354Y-99596901D01*
X73502486Y-99457520D01*
X73621020Y-99338986D01*
X73760401Y-99245854D01*
X73915273Y-99181704D01*
X74079685Y-99149001D01*
X74247317Y-99149001D01*
X74411729Y-99181704D01*
G37*
G36*
X87463476Y-97814572D02*
G01*
X87482681Y-97820398D01*
X87500393Y-97829865D01*
X87515905Y-97842595D01*
X87528635Y-97858107D01*
X87538102Y-97875819D01*
X87543928Y-97895024D01*
X87546500Y-97921140D01*
X87546500Y-98364860D01*
X87543928Y-98390976D01*
X87538102Y-98410181D01*
X87528635Y-98427893D01*
X87515905Y-98443405D01*
X87500393Y-98456135D01*
X87482681Y-98465602D01*
X87463476Y-98471428D01*
X87437360Y-98474000D01*
X86933640Y-98474000D01*
X86907524Y-98471428D01*
X86888319Y-98465602D01*
X86870607Y-98456135D01*
X86855095Y-98443405D01*
X86842365Y-98427893D01*
X86832898Y-98410181D01*
X86827072Y-98390976D01*
X86824500Y-98364860D01*
X86824500Y-97921140D01*
X86827072Y-97895024D01*
X86832898Y-97875819D01*
X86842365Y-97858107D01*
X86855095Y-97842595D01*
X86870607Y-97829865D01*
X86888319Y-97820398D01*
X86907524Y-97814572D01*
X86933640Y-97812000D01*
X87437360Y-97812000D01*
X87463476Y-97814572D01*
G37*
G36*
X74411729Y-96641704D02*
G01*
X74566601Y-96705854D01*
X74705982Y-96798986D01*
X74824516Y-96917520D01*
X74917648Y-97056901D01*
X74981798Y-97211773D01*
X75014501Y-97376185D01*
X75014501Y-97543817D01*
X74981798Y-97708229D01*
X74917648Y-97863101D01*
X74824516Y-98002482D01*
X74705982Y-98121016D01*
X74566601Y-98214148D01*
X74411729Y-98278298D01*
X74247317Y-98311001D01*
X74079685Y-98311001D01*
X73915273Y-98278298D01*
X73760401Y-98214148D01*
X73621020Y-98121016D01*
X73502486Y-98002482D01*
X73409354Y-97863101D01*
X73345204Y-97708229D01*
X73312501Y-97543817D01*
X73312501Y-97376185D01*
X73345204Y-97211773D01*
X73409354Y-97056901D01*
X73502486Y-96917520D01*
X73621020Y-96798986D01*
X73760401Y-96705854D01*
X73915273Y-96641704D01*
X74079685Y-96609001D01*
X74247317Y-96609001D01*
X74411729Y-96641704D01*
G37*
G36*
X89651729Y-96641704D02*
G01*
X89806601Y-96705854D01*
X89945982Y-96798986D01*
X90064516Y-96917520D01*
X90157648Y-97056901D01*
X90221798Y-97211773D01*
X90254501Y-97376185D01*
X90254501Y-97543817D01*
X90221798Y-97708229D01*
X90157648Y-97863101D01*
X90064516Y-98002482D01*
X89945982Y-98121016D01*
X89806601Y-98214148D01*
X89651729Y-98278298D01*
X89487317Y-98311001D01*
X89319685Y-98311001D01*
X89155273Y-98278298D01*
X89000401Y-98214148D01*
X88861020Y-98121016D01*
X88742486Y-98002482D01*
X88649354Y-97863101D01*
X88585204Y-97708229D01*
X88552501Y-97543817D01*
X88552501Y-97376185D01*
X88585204Y-97211773D01*
X88649354Y-97056901D01*
X88742486Y-96917520D01*
X88861020Y-96798986D01*
X89000401Y-96705854D01*
X89155273Y-96641704D01*
X89319685Y-96609001D01*
X89487317Y-96609001D01*
X89651729Y-96641704D01*
G37*
G36*
X78757428Y-97568764D02*
G01*
X78778509Y-97575160D01*
X78797945Y-97585548D01*
X78814976Y-97599524D01*
X78828952Y-97616555D01*
X78839340Y-97635991D01*
X78845736Y-97657072D01*
X78848500Y-97685140D01*
X78848500Y-98148860D01*
X78845736Y-98176928D01*
X78839340Y-98198009D01*
X78828952Y-98217445D01*
X78814976Y-98234476D01*
X78797945Y-98248452D01*
X78778509Y-98258840D01*
X78757428Y-98265236D01*
X78729360Y-98268000D01*
X77265640Y-98268000D01*
X77237572Y-98265236D01*
X77216491Y-98258840D01*
X77197055Y-98248452D01*
X77180024Y-98234476D01*
X77166048Y-98217445D01*
X77155660Y-98198009D01*
X77149264Y-98176928D01*
X77146500Y-98148860D01*
X77146500Y-97685140D01*
X77149264Y-97657072D01*
X77155660Y-97635991D01*
X77166048Y-97616555D01*
X77180024Y-97599524D01*
X77197055Y-97585548D01*
X77216491Y-97575160D01*
X77237572Y-97568764D01*
X77265640Y-97566000D01*
X78729360Y-97566000D01*
X78757428Y-97568764D01*
G37*
G36*
X85957428Y-97568764D02*
G01*
X85978509Y-97575160D01*
X85997945Y-97585548D01*
X86014976Y-97599524D01*
X86028952Y-97616555D01*
X86039340Y-97635991D01*
X86045736Y-97657072D01*
X86048500Y-97685140D01*
X86048500Y-98148860D01*
X86045736Y-98176928D01*
X86039340Y-98198009D01*
X86028952Y-98217445D01*
X86014976Y-98234476D01*
X85997945Y-98248452D01*
X85978509Y-98258840D01*
X85957428Y-98265236D01*
X85929360Y-98268000D01*
X84465640Y-98268000D01*
X84437572Y-98265236D01*
X84416491Y-98258840D01*
X84397055Y-98248452D01*
X84380024Y-98234476D01*
X84366048Y-98217445D01*
X84355660Y-98198009D01*
X84349264Y-98176928D01*
X84346500Y-98148860D01*
X84346500Y-97685140D01*
X84349264Y-97657072D01*
X84355660Y-97635991D01*
X84366048Y-97616555D01*
X84380024Y-97599524D01*
X84397055Y-97585548D01*
X84416491Y-97575160D01*
X84437572Y-97568764D01*
X84465640Y-97566000D01*
X85929360Y-97566000D01*
X85957428Y-97568764D01*
G37*
G36*
X87463476Y-96854572D02*
G01*
X87482681Y-96860398D01*
X87500393Y-96869865D01*
X87515905Y-96882595D01*
X87528635Y-96898107D01*
X87538102Y-96915819D01*
X87543928Y-96935024D01*
X87546500Y-96961140D01*
X87546500Y-97404860D01*
X87543928Y-97430976D01*
X87538102Y-97450181D01*
X87528635Y-97467893D01*
X87515905Y-97483405D01*
X87500393Y-97496135D01*
X87482681Y-97505602D01*
X87463476Y-97511428D01*
X87437360Y-97514000D01*
X86933640Y-97514000D01*
X86907524Y-97511428D01*
X86888319Y-97505602D01*
X86870607Y-97496135D01*
X86855095Y-97483405D01*
X86842365Y-97467893D01*
X86832898Y-97450181D01*
X86827072Y-97430976D01*
X86824500Y-97404860D01*
X86824500Y-96961140D01*
X86827072Y-96935024D01*
X86832898Y-96915819D01*
X86842365Y-96898107D01*
X86855095Y-96882595D01*
X86870607Y-96869865D01*
X86888319Y-96860398D01*
X86907524Y-96854572D01*
X86933640Y-96852000D01*
X87437360Y-96852000D01*
X87463476Y-96854572D01*
G37*
G36*
X85957428Y-96298764D02*
G01*
X85978509Y-96305160D01*
X85997945Y-96315548D01*
X86014976Y-96329524D01*
X86028952Y-96346555D01*
X86039340Y-96365991D01*
X86045736Y-96387072D01*
X86048500Y-96415140D01*
X86048500Y-96878860D01*
X86045736Y-96906928D01*
X86039340Y-96928009D01*
X86028952Y-96947445D01*
X86014976Y-96964476D01*
X85997945Y-96978452D01*
X85978509Y-96988840D01*
X85957428Y-96995236D01*
X85929360Y-96998000D01*
X84465640Y-96998000D01*
X84437572Y-96995236D01*
X84416491Y-96988840D01*
X84397055Y-96978452D01*
X84380024Y-96964476D01*
X84366048Y-96947445D01*
X84355660Y-96928009D01*
X84349264Y-96906928D01*
X84346500Y-96878860D01*
X84346500Y-96415140D01*
X84349264Y-96387072D01*
X84355660Y-96365991D01*
X84366048Y-96346555D01*
X84380024Y-96329524D01*
X84397055Y-96315548D01*
X84416491Y-96305160D01*
X84437572Y-96298764D01*
X84465640Y-96296000D01*
X85929360Y-96296000D01*
X85957428Y-96298764D01*
G37*
G36*
X78757428Y-96298764D02*
G01*
X78778509Y-96305160D01*
X78797945Y-96315548D01*
X78814976Y-96329524D01*
X78828952Y-96346555D01*
X78839340Y-96365991D01*
X78845736Y-96387072D01*
X78848500Y-96415140D01*
X78848500Y-96878860D01*
X78845736Y-96906928D01*
X78839340Y-96928009D01*
X78828952Y-96947445D01*
X78814976Y-96964476D01*
X78797945Y-96978452D01*
X78778509Y-96988840D01*
X78757428Y-96995236D01*
X78729360Y-96998000D01*
X77265640Y-96998000D01*
X77237572Y-96995236D01*
X77216491Y-96988840D01*
X77197055Y-96978452D01*
X77180024Y-96964476D01*
X77166048Y-96947445D01*
X77155660Y-96928009D01*
X77149264Y-96906928D01*
X77146500Y-96878860D01*
X77146500Y-96415140D01*
X77149264Y-96387072D01*
X77155660Y-96365991D01*
X77166048Y-96346555D01*
X77180024Y-96329524D01*
X77197055Y-96315548D01*
X77216491Y-96305160D01*
X77237572Y-96298764D01*
X77265640Y-96296000D01*
X78729360Y-96296000D01*
X78757428Y-96298764D01*
G37*
G36*
X89651729Y-94101704D02*
G01*
X89806601Y-94165854D01*
X89945982Y-94258986D01*
X90064516Y-94377520D01*
X90157648Y-94516901D01*
X90221798Y-94671773D01*
X90254501Y-94836185D01*
X90254501Y-95003817D01*
X90221798Y-95168229D01*
X90157648Y-95323101D01*
X90064516Y-95462482D01*
X89945982Y-95581016D01*
X89806601Y-95674148D01*
X89651729Y-95738298D01*
X89487317Y-95771001D01*
X89319685Y-95771001D01*
X89155273Y-95738298D01*
X89000401Y-95674148D01*
X88861020Y-95581016D01*
X88742486Y-95462482D01*
X88649354Y-95323101D01*
X88585204Y-95168229D01*
X88552501Y-95003817D01*
X88552501Y-94836185D01*
X88585204Y-94671773D01*
X88649354Y-94516901D01*
X88742486Y-94377520D01*
X88861020Y-94258986D01*
X89000401Y-94165854D01*
X89155273Y-94101704D01*
X89319685Y-94069001D01*
X89487317Y-94069001D01*
X89651729Y-94101704D01*
G37*
G36*
X74411729Y-94101704D02*
G01*
X74566601Y-94165854D01*
X74705982Y-94258986D01*
X74824516Y-94377520D01*
X74917648Y-94516901D01*
X74981798Y-94671773D01*
X75014501Y-94836185D01*
X75014501Y-95003817D01*
X74981798Y-95168229D01*
X74917648Y-95323101D01*
X74824516Y-95462482D01*
X74705982Y-95581016D01*
X74566601Y-95674148D01*
X74411729Y-95738298D01*
X74247317Y-95771001D01*
X74079685Y-95771001D01*
X73915273Y-95738298D01*
X73760401Y-95674148D01*
X73621020Y-95581016D01*
X73502486Y-95462482D01*
X73409354Y-95323101D01*
X73345204Y-95168229D01*
X73312501Y-95003817D01*
X73312501Y-94836185D01*
X73345204Y-94671773D01*
X73409354Y-94516901D01*
X73502486Y-94377520D01*
X73621020Y-94258986D01*
X73760401Y-94165854D01*
X73915273Y-94101704D01*
X74079685Y-94069001D01*
X74247317Y-94069001D01*
X74411729Y-94101704D01*
G37*
G36*
X78757428Y-95028764D02*
G01*
X78778509Y-95035160D01*
X78797945Y-95045548D01*
X78814976Y-95059524D01*
X78828952Y-95076555D01*
X78839340Y-95095991D01*
X78845736Y-95117072D01*
X78848500Y-95145140D01*
X78848500Y-95608860D01*
X78845736Y-95636928D01*
X78839340Y-95658009D01*
X78828952Y-95677445D01*
X78814976Y-95694476D01*
X78797945Y-95708452D01*
X78778509Y-95718840D01*
X78757428Y-95725236D01*
X78729360Y-95728000D01*
X77265640Y-95728000D01*
X77237572Y-95725236D01*
X77216491Y-95718840D01*
X77197055Y-95708452D01*
X77180024Y-95694476D01*
X77166048Y-95677445D01*
X77155660Y-95658009D01*
X77149264Y-95636928D01*
X77146500Y-95608860D01*
X77146500Y-95145140D01*
X77149264Y-95117072D01*
X77155660Y-95095991D01*
X77166048Y-95076555D01*
X77180024Y-95059524D01*
X77197055Y-95045548D01*
X77216491Y-95035160D01*
X77237572Y-95028764D01*
X77265640Y-95026000D01*
X78729360Y-95026000D01*
X78757428Y-95028764D01*
G37*
G36*
X85957428Y-95028764D02*
G01*
X85978509Y-95035160D01*
X85997945Y-95045548D01*
X86014976Y-95059524D01*
X86028952Y-95076555D01*
X86039340Y-95095991D01*
X86045736Y-95117072D01*
X86048500Y-95145140D01*
X86048500Y-95608860D01*
X86045736Y-95636928D01*
X86039340Y-95658009D01*
X86028952Y-95677445D01*
X86014976Y-95694476D01*
X85997945Y-95708452D01*
X85978509Y-95718840D01*
X85957428Y-95725236D01*
X85929360Y-95728000D01*
X84465640Y-95728000D01*
X84437572Y-95725236D01*
X84416491Y-95718840D01*
X84397055Y-95708452D01*
X84380024Y-95694476D01*
X84366048Y-95677445D01*
X84355660Y-95658009D01*
X84349264Y-95636928D01*
X84346500Y-95608860D01*
X84346500Y-95145140D01*
X84349264Y-95117072D01*
X84355660Y-95095991D01*
X84366048Y-95076555D01*
X84380024Y-95059524D01*
X84397055Y-95045548D01*
X84416491Y-95035160D01*
X84437572Y-95028764D01*
X84465640Y-95026000D01*
X85929360Y-95026000D01*
X85957428Y-95028764D01*
G37*
G36*
X85957428Y-93758764D02*
G01*
X85978509Y-93765160D01*
X85997945Y-93775548D01*
X86014976Y-93789524D01*
X86028952Y-93806555D01*
X86039340Y-93825991D01*
X86045736Y-93847072D01*
X86048500Y-93875140D01*
X86048500Y-94338860D01*
X86045736Y-94366928D01*
X86039340Y-94388009D01*
X86028952Y-94407445D01*
X86014976Y-94424476D01*
X85997945Y-94438452D01*
X85978509Y-94448840D01*
X85957428Y-94455236D01*
X85929360Y-94458000D01*
X84465640Y-94458000D01*
X84437572Y-94455236D01*
X84416491Y-94448840D01*
X84397055Y-94438452D01*
X84380024Y-94424476D01*
X84366048Y-94407445D01*
X84355660Y-94388009D01*
X84349264Y-94366928D01*
X84346500Y-94338860D01*
X84346500Y-93875140D01*
X84349264Y-93847072D01*
X84355660Y-93825991D01*
X84366048Y-93806555D01*
X84380024Y-93789524D01*
X84397055Y-93775548D01*
X84416491Y-93765160D01*
X84437572Y-93758764D01*
X84465640Y-93756000D01*
X85929360Y-93756000D01*
X85957428Y-93758764D01*
G37*
G36*
X78757428Y-93758764D02*
G01*
X78778509Y-93765160D01*
X78797945Y-93775548D01*
X78814976Y-93789524D01*
X78828952Y-93806555D01*
X78839340Y-93825991D01*
X78845736Y-93847072D01*
X78848500Y-93875140D01*
X78848500Y-94338860D01*
X78845736Y-94366928D01*
X78839340Y-94388009D01*
X78828952Y-94407445D01*
X78814976Y-94424476D01*
X78797945Y-94438452D01*
X78778509Y-94448840D01*
X78757428Y-94455236D01*
X78729360Y-94458000D01*
X77265640Y-94458000D01*
X77237572Y-94455236D01*
X77216491Y-94448840D01*
X77197055Y-94438452D01*
X77180024Y-94424476D01*
X77166048Y-94407445D01*
X77155660Y-94388009D01*
X77149264Y-94366928D01*
X77146500Y-94338860D01*
X77146500Y-93875140D01*
X77149264Y-93847072D01*
X77155660Y-93825991D01*
X77166048Y-93806555D01*
X77180024Y-93789524D01*
X77197055Y-93775548D01*
X77216491Y-93765160D01*
X77237572Y-93758764D01*
X77265640Y-93756000D01*
X78729360Y-93756000D01*
X78757428Y-93758764D01*
G37*
G36*
X89651729Y-91561704D02*
G01*
X89806601Y-91625854D01*
X89945982Y-91718986D01*
X90064516Y-91837520D01*
X90157648Y-91976901D01*
X90221798Y-92131773D01*
X90254501Y-92296185D01*
X90254501Y-92463817D01*
X90221798Y-92628229D01*
X90157648Y-92783101D01*
X90064516Y-92922482D01*
X89945982Y-93041016D01*
X89806601Y-93134148D01*
X89651729Y-93198298D01*
X89487317Y-93231001D01*
X89319685Y-93231001D01*
X89155273Y-93198298D01*
X89000401Y-93134148D01*
X88861020Y-93041016D01*
X88742486Y-92922482D01*
X88649354Y-92783101D01*
X88585204Y-92628229D01*
X88552501Y-92463817D01*
X88552501Y-92296185D01*
X88585204Y-92131773D01*
X88649354Y-91976901D01*
X88742486Y-91837520D01*
X88861020Y-91718986D01*
X89000401Y-91625854D01*
X89155273Y-91561704D01*
X89319685Y-91529001D01*
X89487317Y-91529001D01*
X89651729Y-91561704D01*
G37*
G36*
X74411729Y-91561704D02*
G01*
X74566601Y-91625854D01*
X74705982Y-91718986D01*
X74824516Y-91837520D01*
X74917648Y-91976901D01*
X74981798Y-92131773D01*
X75014501Y-92296185D01*
X75014501Y-92463817D01*
X74981798Y-92628229D01*
X74917648Y-92783101D01*
X74824516Y-92922482D01*
X74705982Y-93041016D01*
X74566601Y-93134148D01*
X74411729Y-93198298D01*
X74247317Y-93231001D01*
X74079685Y-93231001D01*
X73915273Y-93198298D01*
X73760401Y-93134148D01*
X73621020Y-93041016D01*
X73502486Y-92922482D01*
X73409354Y-92783101D01*
X73345204Y-92628229D01*
X73312501Y-92463817D01*
X73312501Y-92296185D01*
X73345204Y-92131773D01*
X73409354Y-91976901D01*
X73502486Y-91837520D01*
X73621020Y-91718986D01*
X73760401Y-91625854D01*
X73915273Y-91561704D01*
X74079685Y-91529001D01*
X74247317Y-91529001D01*
X74411729Y-91561704D01*
G37*
G36*
X83004162Y-91412644D02*
G01*
X83043608Y-91424610D01*
X83079953Y-91444037D01*
X83111815Y-91470185D01*
X83137963Y-91502047D01*
X83157390Y-91538392D01*
X83169356Y-91577838D01*
X83174000Y-91624993D01*
X83174000Y-92318007D01*
X83169356Y-92365162D01*
X83157390Y-92404608D01*
X83137963Y-92440953D01*
X83111815Y-92472815D01*
X83079953Y-92498963D01*
X83043608Y-92518390D01*
X83004162Y-92530356D01*
X82957007Y-92535000D01*
X81888993Y-92535000D01*
X81841838Y-92530356D01*
X81802392Y-92518390D01*
X81766047Y-92498963D01*
X81734185Y-92472815D01*
X81708037Y-92440953D01*
X81688610Y-92404608D01*
X81676644Y-92365162D01*
X81672000Y-92318007D01*
X81672000Y-91624993D01*
X81676644Y-91577838D01*
X81688610Y-91538392D01*
X81708037Y-91502047D01*
X81734185Y-91470185D01*
X81766047Y-91444037D01*
X81802392Y-91424610D01*
X81841838Y-91412644D01*
X81888993Y-91408000D01*
X82957007Y-91408000D01*
X83004162Y-91412644D01*
G37*
G36*
X80972162Y-91412644D02*
G01*
X81011608Y-91424610D01*
X81047953Y-91444037D01*
X81079815Y-91470185D01*
X81105963Y-91502047D01*
X81125390Y-91538392D01*
X81137356Y-91577838D01*
X81142000Y-91624993D01*
X81142000Y-92318007D01*
X81137356Y-92365162D01*
X81125390Y-92404608D01*
X81105963Y-92440953D01*
X81079815Y-92472815D01*
X81047953Y-92498963D01*
X81011608Y-92518390D01*
X80972162Y-92530356D01*
X80925007Y-92535000D01*
X79856993Y-92535000D01*
X79809838Y-92530356D01*
X79770392Y-92518390D01*
X79734047Y-92498963D01*
X79702185Y-92472815D01*
X79676037Y-92440953D01*
X79656610Y-92404608D01*
X79644644Y-92365162D01*
X79640000Y-92318007D01*
X79640000Y-91624993D01*
X79644644Y-91577838D01*
X79656610Y-91538392D01*
X79676037Y-91502047D01*
X79702185Y-91470185D01*
X79734047Y-91444037D01*
X79770392Y-91424610D01*
X79809838Y-91412644D01*
X79856993Y-91408000D01*
X80925007Y-91408000D01*
X80972162Y-91412644D01*
G37*
G36*
X80972162Y-89587644D02*
G01*
X81011608Y-89599610D01*
X81047953Y-89619037D01*
X81079815Y-89645185D01*
X81105963Y-89677047D01*
X81125390Y-89713392D01*
X81137356Y-89752838D01*
X81142000Y-89799993D01*
X81142000Y-90493007D01*
X81137356Y-90540162D01*
X81125390Y-90579608D01*
X81105963Y-90615953D01*
X81079815Y-90647815D01*
X81047953Y-90673963D01*
X81011608Y-90693390D01*
X80972162Y-90705356D01*
X80925007Y-90710000D01*
X79856993Y-90710000D01*
X79809838Y-90705356D01*
X79770392Y-90693390D01*
X79734047Y-90673963D01*
X79702185Y-90647815D01*
X79676037Y-90615953D01*
X79656610Y-90579608D01*
X79644644Y-90540162D01*
X79640000Y-90493007D01*
X79640000Y-89799993D01*
X79644644Y-89752838D01*
X79656610Y-89713392D01*
X79676037Y-89677047D01*
X79702185Y-89645185D01*
X79734047Y-89619037D01*
X79770392Y-89599610D01*
X79809838Y-89587644D01*
X79856993Y-89583000D01*
X80925007Y-89583000D01*
X80972162Y-89587644D01*
G37*
G36*
X83004162Y-89587644D02*
G01*
X83043608Y-89599610D01*
X83079953Y-89619037D01*
X83111815Y-89645185D01*
X83137963Y-89677047D01*
X83157390Y-89713392D01*
X83169356Y-89752838D01*
X83174000Y-89799993D01*
X83174000Y-90493007D01*
X83169356Y-90540162D01*
X83157390Y-90579608D01*
X83137963Y-90615953D01*
X83111815Y-90647815D01*
X83079953Y-90673963D01*
X83043608Y-90693390D01*
X83004162Y-90705356D01*
X82957007Y-90710000D01*
X81888993Y-90710000D01*
X81841838Y-90705356D01*
X81802392Y-90693390D01*
X81766047Y-90673963D01*
X81734185Y-90647815D01*
X81708037Y-90615953D01*
X81688610Y-90579608D01*
X81676644Y-90540162D01*
X81672000Y-90493007D01*
X81672000Y-89799993D01*
X81676644Y-89752838D01*
X81688610Y-89713392D01*
X81708037Y-89677047D01*
X81734185Y-89645185D01*
X81766047Y-89619037D01*
X81802392Y-89599610D01*
X81841838Y-89587644D01*
X81888993Y-89583000D01*
X82957007Y-89583000D01*
X83004162Y-89587644D01*
G37*
G36*
X74411729Y-89021704D02*
G01*
X74566601Y-89085854D01*
X74705982Y-89178986D01*
X74824516Y-89297520D01*
X74917648Y-89436901D01*
X74981798Y-89591773D01*
X75014501Y-89756185D01*
X75014501Y-89923817D01*
X74981798Y-90088229D01*
X74917648Y-90243101D01*
X74824516Y-90382482D01*
X74705982Y-90501016D01*
X74566601Y-90594148D01*
X74411729Y-90658298D01*
X74247317Y-90691001D01*
X74079685Y-90691001D01*
X73915273Y-90658298D01*
X73760401Y-90594148D01*
X73621020Y-90501016D01*
X73502486Y-90382482D01*
X73409354Y-90243101D01*
X73345204Y-90088229D01*
X73312501Y-89923817D01*
X73312501Y-89756185D01*
X73345204Y-89591773D01*
X73409354Y-89436901D01*
X73502486Y-89297520D01*
X73621020Y-89178986D01*
X73760401Y-89085854D01*
X73915273Y-89021704D01*
X74079685Y-88989001D01*
X74247317Y-88989001D01*
X74411729Y-89021704D01*
G37*
G36*
X89651729Y-89021704D02*
G01*
X89806601Y-89085854D01*
X89945982Y-89178986D01*
X90064516Y-89297520D01*
X90157648Y-89436901D01*
X90221798Y-89591773D01*
X90254501Y-89756185D01*
X90254501Y-89923817D01*
X90221798Y-90088229D01*
X90157648Y-90243101D01*
X90064516Y-90382482D01*
X89945982Y-90501016D01*
X89806601Y-90594148D01*
X89651729Y-90658298D01*
X89487317Y-90691001D01*
X89319685Y-90691001D01*
X89155273Y-90658298D01*
X89000401Y-90594148D01*
X88861020Y-90501016D01*
X88742486Y-90382482D01*
X88649354Y-90243101D01*
X88585204Y-90088229D01*
X88552501Y-89923817D01*
X88552501Y-89756185D01*
X88585204Y-89591773D01*
X88649354Y-89436901D01*
X88742486Y-89297520D01*
X88861020Y-89178986D01*
X89000401Y-89085854D01*
X89155273Y-89021704D01*
X89319685Y-88989001D01*
X89487317Y-88989001D01*
X89651729Y-89021704D01*
G37*
G36*
X86383976Y-87908572D02*
G01*
X86403181Y-87914398D01*
X86420893Y-87923865D01*
X86436405Y-87936595D01*
X86449135Y-87952107D01*
X86458602Y-87969819D01*
X86464428Y-87989024D01*
X86467000Y-88015140D01*
X86467000Y-88458860D01*
X86464428Y-88484976D01*
X86458602Y-88504181D01*
X86449135Y-88521893D01*
X86436405Y-88537405D01*
X86420893Y-88550135D01*
X86403181Y-88559602D01*
X86383976Y-88565428D01*
X86357860Y-88568000D01*
X85854140Y-88568000D01*
X85828024Y-88565428D01*
X85808819Y-88559602D01*
X85791107Y-88550135D01*
X85775595Y-88537405D01*
X85762865Y-88521893D01*
X85753398Y-88504181D01*
X85747572Y-88484976D01*
X85745000Y-88458860D01*
X85745000Y-88015140D01*
X85747572Y-87989024D01*
X85753398Y-87969819D01*
X85762865Y-87952107D01*
X85775595Y-87936595D01*
X85791107Y-87923865D01*
X85808819Y-87914398D01*
X85828024Y-87908572D01*
X85854140Y-87906000D01*
X86357860Y-87906000D01*
X86383976Y-87908572D01*
G37*
G36*
X89651729Y-86481704D02*
G01*
X89806601Y-86545854D01*
X89945982Y-86638986D01*
X90064516Y-86757520D01*
X90157648Y-86896901D01*
X90221798Y-87051773D01*
X90254501Y-87216185D01*
X90254501Y-87383817D01*
X90221798Y-87548229D01*
X90157648Y-87703101D01*
X90064516Y-87842482D01*
X89945982Y-87961016D01*
X89806601Y-88054148D01*
X89651729Y-88118298D01*
X89487317Y-88151001D01*
X89319685Y-88151001D01*
X89155273Y-88118298D01*
X89000401Y-88054148D01*
X88861020Y-87961016D01*
X88742486Y-87842482D01*
X88649354Y-87703101D01*
X88585204Y-87548229D01*
X88552501Y-87383817D01*
X88552501Y-87216185D01*
X88585204Y-87051773D01*
X88649354Y-86896901D01*
X88742486Y-86757520D01*
X88861020Y-86638986D01*
X89000401Y-86545854D01*
X89155273Y-86481704D01*
X89319685Y-86449001D01*
X89487317Y-86449001D01*
X89651729Y-86481704D01*
G37*
G36*
X74411729Y-86481704D02*
G01*
X74566601Y-86545854D01*
X74705982Y-86638986D01*
X74824516Y-86757520D01*
X74917648Y-86896901D01*
X74981798Y-87051773D01*
X75014501Y-87216185D01*
X75014501Y-87383817D01*
X74981798Y-87548229D01*
X74917648Y-87703101D01*
X74824516Y-87842482D01*
X74705982Y-87961016D01*
X74566601Y-88054148D01*
X74411729Y-88118298D01*
X74247317Y-88151001D01*
X74079685Y-88151001D01*
X73915273Y-88118298D01*
X73760401Y-88054148D01*
X73621020Y-87961016D01*
X73502486Y-87842482D01*
X73409354Y-87703101D01*
X73345204Y-87548229D01*
X73312501Y-87383817D01*
X73312501Y-87216185D01*
X73345204Y-87051773D01*
X73409354Y-86896901D01*
X73502486Y-86757520D01*
X73621020Y-86638986D01*
X73760401Y-86545854D01*
X73915273Y-86481704D01*
X74079685Y-86449001D01*
X74247317Y-86449001D01*
X74411729Y-86481704D01*
G37*
G36*
X78883916Y-86642843D02*
G01*
X78888056Y-86644099D01*
X78907216Y-86652035D01*
X78931250Y-86656815D01*
X78955754Y-86656815D01*
X78979787Y-86652034D01*
X78998945Y-86644099D01*
X79003084Y-86642843D01*
X79011643Y-86642000D01*
X79275357Y-86642000D01*
X79283916Y-86642843D01*
X79288056Y-86644099D01*
X79307216Y-86652035D01*
X79331250Y-86656815D01*
X79355754Y-86656815D01*
X79379787Y-86652034D01*
X79398945Y-86644099D01*
X79403084Y-86642843D01*
X79411643Y-86642000D01*
X79675357Y-86642000D01*
X79683916Y-86642843D01*
X79688056Y-86644099D01*
X79707216Y-86652035D01*
X79731250Y-86656815D01*
X79755754Y-86656815D01*
X79779787Y-86652034D01*
X79798945Y-86644099D01*
X79803084Y-86642843D01*
X79811643Y-86642000D01*
X80075357Y-86642000D01*
X80083916Y-86642843D01*
X80088056Y-86644099D01*
X80107216Y-86652035D01*
X80131250Y-86656815D01*
X80155754Y-86656815D01*
X80179787Y-86652034D01*
X80198945Y-86644099D01*
X80203084Y-86642843D01*
X80211643Y-86642000D01*
X80475357Y-86642000D01*
X80483916Y-86642843D01*
X80488056Y-86644099D01*
X80507216Y-86652035D01*
X80531250Y-86656815D01*
X80555754Y-86656815D01*
X80579787Y-86652034D01*
X80598945Y-86644099D01*
X80603084Y-86642843D01*
X80611643Y-86642000D01*
X80875357Y-86642000D01*
X80883916Y-86642843D01*
X80888056Y-86644099D01*
X80907216Y-86652035D01*
X80931250Y-86656815D01*
X80955754Y-86656815D01*
X80979787Y-86652034D01*
X80998945Y-86644099D01*
X81003084Y-86642843D01*
X81011643Y-86642000D01*
X81275357Y-86642000D01*
X81283916Y-86642843D01*
X81288056Y-86644099D01*
X81307216Y-86652035D01*
X81331250Y-86656815D01*
X81355754Y-86656815D01*
X81379787Y-86652034D01*
X81398945Y-86644099D01*
X81403084Y-86642843D01*
X81411643Y-86642000D01*
X81675357Y-86642000D01*
X81683916Y-86642843D01*
X81688056Y-86644099D01*
X81707216Y-86652035D01*
X81731250Y-86656815D01*
X81755754Y-86656815D01*
X81779787Y-86652034D01*
X81798945Y-86644099D01*
X81803084Y-86642843D01*
X81811643Y-86642000D01*
X82075357Y-86642000D01*
X82083916Y-86642843D01*
X82088056Y-86644099D01*
X82107216Y-86652035D01*
X82131250Y-86656815D01*
X82155754Y-86656815D01*
X82179787Y-86652034D01*
X82198945Y-86644099D01*
X82203084Y-86642843D01*
X82211643Y-86642000D01*
X82475357Y-86642000D01*
X82483916Y-86642843D01*
X82488056Y-86644099D01*
X82507216Y-86652035D01*
X82531250Y-86656815D01*
X82555754Y-86656815D01*
X82579787Y-86652034D01*
X82598945Y-86644099D01*
X82603084Y-86642843D01*
X82611643Y-86642000D01*
X82875357Y-86642000D01*
X82883916Y-86642843D01*
X82888056Y-86644099D01*
X82907216Y-86652035D01*
X82931250Y-86656815D01*
X82955754Y-86656815D01*
X82979787Y-86652034D01*
X82998945Y-86644099D01*
X83003084Y-86642843D01*
X83011643Y-86642000D01*
X83275357Y-86642000D01*
X83283916Y-86642843D01*
X83288056Y-86644099D01*
X83307216Y-86652035D01*
X83331250Y-86656815D01*
X83355754Y-86656815D01*
X83379787Y-86652034D01*
X83398945Y-86644099D01*
X83403084Y-86642843D01*
X83411643Y-86642000D01*
X83675357Y-86642000D01*
X83683916Y-86642843D01*
X83688056Y-86644099D01*
X83707216Y-86652035D01*
X83731250Y-86656815D01*
X83755754Y-86656815D01*
X83779787Y-86652034D01*
X83798945Y-86644099D01*
X83803084Y-86642843D01*
X83811643Y-86642000D01*
X84075357Y-86642000D01*
X84083916Y-86642843D01*
X84086245Y-86643550D01*
X84088387Y-86644695D01*
X84090265Y-86646235D01*
X84091805Y-86648113D01*
X84092950Y-86650255D01*
X84093657Y-86652584D01*
X84094500Y-86661143D01*
X84094500Y-87599857D01*
X84093657Y-87608416D01*
X84092950Y-87610745D01*
X84091805Y-87612887D01*
X84090265Y-87614765D01*
X84088387Y-87616305D01*
X84086245Y-87617450D01*
X84083916Y-87618157D01*
X84075357Y-87619000D01*
X83811643Y-87619000D01*
X83803084Y-87618157D01*
X83798944Y-87616901D01*
X83779784Y-87608965D01*
X83755750Y-87604185D01*
X83731246Y-87604185D01*
X83707213Y-87608966D01*
X83688055Y-87616901D01*
X83683916Y-87618157D01*
X83675357Y-87619000D01*
X83411643Y-87619000D01*
X83403084Y-87618157D01*
X83398944Y-87616901D01*
X83379784Y-87608965D01*
X83355750Y-87604185D01*
X83331246Y-87604185D01*
X83307213Y-87608966D01*
X83288055Y-87616901D01*
X83283916Y-87618157D01*
X83275357Y-87619000D01*
X83011643Y-87619000D01*
X83003084Y-87618157D01*
X82998944Y-87616901D01*
X82979784Y-87608965D01*
X82955750Y-87604185D01*
X82931246Y-87604185D01*
X82907213Y-87608966D01*
X82888055Y-87616901D01*
X82883916Y-87618157D01*
X82875357Y-87619000D01*
X82611643Y-87619000D01*
X82603084Y-87618157D01*
X82598944Y-87616901D01*
X82579784Y-87608965D01*
X82555750Y-87604185D01*
X82531246Y-87604185D01*
X82507213Y-87608966D01*
X82488055Y-87616901D01*
X82483916Y-87618157D01*
X82475357Y-87619000D01*
X82211643Y-87619000D01*
X82203084Y-87618157D01*
X82198944Y-87616901D01*
X82179784Y-87608965D01*
X82155750Y-87604185D01*
X82131246Y-87604185D01*
X82107213Y-87608966D01*
X82088055Y-87616901D01*
X82083916Y-87618157D01*
X82075357Y-87619000D01*
X81811643Y-87619000D01*
X81803084Y-87618157D01*
X81798944Y-87616901D01*
X81779784Y-87608965D01*
X81755750Y-87604185D01*
X81731246Y-87604185D01*
X81707213Y-87608966D01*
X81688055Y-87616901D01*
X81683916Y-87618157D01*
X81675357Y-87619000D01*
X81411643Y-87619000D01*
X81403084Y-87618157D01*
X81398944Y-87616901D01*
X81379784Y-87608965D01*
X81355750Y-87604185D01*
X81331246Y-87604185D01*
X81307213Y-87608966D01*
X81288055Y-87616901D01*
X81283916Y-87618157D01*
X81275357Y-87619000D01*
X81011643Y-87619000D01*
X81003084Y-87618157D01*
X80998944Y-87616901D01*
X80979784Y-87608965D01*
X80955750Y-87604185D01*
X80931246Y-87604185D01*
X80907213Y-87608966D01*
X80888055Y-87616901D01*
X80883916Y-87618157D01*
X80875357Y-87619000D01*
X80611643Y-87619000D01*
X80603084Y-87618157D01*
X80598944Y-87616901D01*
X80579784Y-87608965D01*
X80555750Y-87604185D01*
X80531246Y-87604185D01*
X80507213Y-87608966D01*
X80488055Y-87616901D01*
X80483916Y-87618157D01*
X80475357Y-87619000D01*
X80211643Y-87619000D01*
X80203084Y-87618157D01*
X80198944Y-87616901D01*
X80179784Y-87608965D01*
X80155750Y-87604185D01*
X80131246Y-87604185D01*
X80107213Y-87608966D01*
X80088055Y-87616901D01*
X80083916Y-87618157D01*
X80075357Y-87619000D01*
X79811643Y-87619000D01*
X79803084Y-87618157D01*
X79798944Y-87616901D01*
X79779784Y-87608965D01*
X79755750Y-87604185D01*
X79731246Y-87604185D01*
X79707213Y-87608966D01*
X79688055Y-87616901D01*
X79683916Y-87618157D01*
X79675357Y-87619000D01*
X79411643Y-87619000D01*
X79403084Y-87618157D01*
X79398944Y-87616901D01*
X79379784Y-87608965D01*
X79355750Y-87604185D01*
X79331246Y-87604185D01*
X79307213Y-87608966D01*
X79288055Y-87616901D01*
X79283916Y-87618157D01*
X79275357Y-87619000D01*
X79011643Y-87619000D01*
X79003084Y-87618157D01*
X78998944Y-87616901D01*
X78979784Y-87608965D01*
X78955750Y-87604185D01*
X78931246Y-87604185D01*
X78907213Y-87608966D01*
X78888055Y-87616901D01*
X78883916Y-87618157D01*
X78875357Y-87619000D01*
X78611643Y-87619000D01*
X78603084Y-87618157D01*
X78600755Y-87617450D01*
X78598613Y-87616305D01*
X78596735Y-87614765D01*
X78595195Y-87612887D01*
X78594050Y-87610745D01*
X78593343Y-87608416D01*
X78592500Y-87599857D01*
X78592500Y-86661143D01*
X78593343Y-86652584D01*
X78594050Y-86650255D01*
X78595195Y-86648113D01*
X78596735Y-86646235D01*
X78598613Y-86644695D01*
X78600755Y-86643550D01*
X78603084Y-86642843D01*
X78611643Y-86642000D01*
X78875357Y-86642000D01*
X78883916Y-86642843D01*
G37*
G36*
X86383976Y-86948572D02*
G01*
X86403181Y-86954398D01*
X86420893Y-86963865D01*
X86436405Y-86976595D01*
X86449135Y-86992107D01*
X86458602Y-87009819D01*
X86464428Y-87029024D01*
X86467000Y-87055140D01*
X86467000Y-87498860D01*
X86464428Y-87524976D01*
X86458602Y-87544181D01*
X86449135Y-87561893D01*
X86436405Y-87577405D01*
X86420893Y-87590135D01*
X86403181Y-87599602D01*
X86383976Y-87605428D01*
X86357860Y-87608000D01*
X85854140Y-87608000D01*
X85828024Y-87605428D01*
X85808819Y-87599602D01*
X85791107Y-87590135D01*
X85775595Y-87577405D01*
X85762865Y-87561893D01*
X85753398Y-87544181D01*
X85747572Y-87524976D01*
X85745000Y-87498860D01*
X85745000Y-87055140D01*
X85747572Y-87029024D01*
X85753398Y-87009819D01*
X85762865Y-86992107D01*
X85775595Y-86976595D01*
X85791107Y-86963865D01*
X85808819Y-86954398D01*
X85828024Y-86948572D01*
X85854140Y-86946000D01*
X86357860Y-86946000D01*
X86383976Y-86948572D01*
G37*
G36*
X85258916Y-80942843D02*
G01*
X85261245Y-80943550D01*
X85263387Y-80944695D01*
X85265265Y-80946235D01*
X85266805Y-80948113D01*
X85267950Y-80950255D01*
X85268657Y-80952584D01*
X85269500Y-80961143D01*
X85269500Y-81224857D01*
X85268657Y-81233416D01*
X85267401Y-81237556D01*
X85259465Y-81256716D01*
X85254685Y-81280750D01*
X85254685Y-81305254D01*
X85259466Y-81329287D01*
X85267401Y-81348445D01*
X85268657Y-81352584D01*
X85269500Y-81361143D01*
X85269500Y-81624857D01*
X85268657Y-81633416D01*
X85267401Y-81637556D01*
X85259465Y-81656716D01*
X85254685Y-81680750D01*
X85254685Y-81705254D01*
X85259466Y-81729287D01*
X85267401Y-81748445D01*
X85268657Y-81752584D01*
X85269500Y-81761143D01*
X85269500Y-82024857D01*
X85268657Y-82033416D01*
X85267401Y-82037556D01*
X85259465Y-82056716D01*
X85254685Y-82080750D01*
X85254685Y-82105254D01*
X85259466Y-82129287D01*
X85267401Y-82148445D01*
X85268657Y-82152584D01*
X85269500Y-82161143D01*
X85269500Y-82424857D01*
X85268657Y-82433416D01*
X85267401Y-82437556D01*
X85259465Y-82456716D01*
X85254685Y-82480750D01*
X85254685Y-82505254D01*
X85259466Y-82529287D01*
X85267401Y-82548445D01*
X85268657Y-82552584D01*
X85269500Y-82561143D01*
X85269500Y-82824857D01*
X85268657Y-82833416D01*
X85267401Y-82837556D01*
X85259465Y-82856716D01*
X85254685Y-82880750D01*
X85254685Y-82905254D01*
X85259466Y-82929287D01*
X85267401Y-82948445D01*
X85268657Y-82952584D01*
X85269500Y-82961143D01*
X85269500Y-83224857D01*
X85268657Y-83233416D01*
X85267401Y-83237556D01*
X85259465Y-83256716D01*
X85254685Y-83280750D01*
X85254685Y-83305254D01*
X85259466Y-83329287D01*
X85267401Y-83348445D01*
X85268657Y-83352584D01*
X85269500Y-83361143D01*
X85269500Y-83624857D01*
X85268657Y-83633416D01*
X85267401Y-83637556D01*
X85259465Y-83656716D01*
X85254685Y-83680750D01*
X85254685Y-83705254D01*
X85259466Y-83729287D01*
X85267401Y-83748445D01*
X85268657Y-83752584D01*
X85269500Y-83761143D01*
X85269500Y-84024857D01*
X85268657Y-84033416D01*
X85267401Y-84037556D01*
X85259465Y-84056716D01*
X85254685Y-84080750D01*
X85254685Y-84105254D01*
X85259466Y-84129287D01*
X85267401Y-84148445D01*
X85268657Y-84152584D01*
X85269500Y-84161143D01*
X85269500Y-84424857D01*
X85268657Y-84433416D01*
X85267401Y-84437556D01*
X85259465Y-84456716D01*
X85254685Y-84480750D01*
X85254685Y-84505254D01*
X85259466Y-84529287D01*
X85267401Y-84548445D01*
X85268657Y-84552584D01*
X85269500Y-84561143D01*
X85269500Y-84824857D01*
X85268657Y-84833416D01*
X85267401Y-84837556D01*
X85259465Y-84856716D01*
X85254685Y-84880750D01*
X85254685Y-84905254D01*
X85259466Y-84929287D01*
X85267401Y-84948445D01*
X85268657Y-84952584D01*
X85269500Y-84961143D01*
X85269500Y-85224857D01*
X85268657Y-85233416D01*
X85267401Y-85237556D01*
X85259465Y-85256716D01*
X85254685Y-85280750D01*
X85254685Y-85305254D01*
X85259466Y-85329287D01*
X85267401Y-85348445D01*
X85268657Y-85352584D01*
X85269500Y-85361143D01*
X85269500Y-85624857D01*
X85268657Y-85633416D01*
X85267401Y-85637556D01*
X85259465Y-85656716D01*
X85254685Y-85680750D01*
X85254685Y-85705254D01*
X85259466Y-85729287D01*
X85267401Y-85748445D01*
X85268657Y-85752584D01*
X85269500Y-85761143D01*
X85269500Y-86024857D01*
X85268657Y-86033416D01*
X85267401Y-86037556D01*
X85259465Y-86056716D01*
X85254685Y-86080750D01*
X85254685Y-86105254D01*
X85259466Y-86129287D01*
X85267401Y-86148445D01*
X85268657Y-86152584D01*
X85269500Y-86161143D01*
X85269500Y-86424857D01*
X85268657Y-86433416D01*
X85267950Y-86435745D01*
X85266805Y-86437887D01*
X85265265Y-86439765D01*
X85263387Y-86441305D01*
X85261245Y-86442450D01*
X85258916Y-86443157D01*
X85250357Y-86444000D01*
X84311643Y-86444000D01*
X84303084Y-86443157D01*
X84300755Y-86442450D01*
X84298613Y-86441305D01*
X84296735Y-86439765D01*
X84295195Y-86437887D01*
X84294050Y-86435745D01*
X84293343Y-86433416D01*
X84292500Y-86424857D01*
X84292500Y-86161143D01*
X84293343Y-86152584D01*
X84294599Y-86148444D01*
X84302535Y-86129284D01*
X84307315Y-86105250D01*
X84307315Y-86080746D01*
X84302534Y-86056713D01*
X84294599Y-86037555D01*
X84293343Y-86033416D01*
X84292500Y-86024857D01*
X84292500Y-85761143D01*
X84293343Y-85752584D01*
X84294599Y-85748444D01*
X84302535Y-85729284D01*
X84307315Y-85705250D01*
X84307315Y-85680746D01*
X84302534Y-85656713D01*
X84294599Y-85637555D01*
X84293343Y-85633416D01*
X84292500Y-85624857D01*
X84292500Y-85361143D01*
X84293343Y-85352584D01*
X84294599Y-85348444D01*
X84302535Y-85329284D01*
X84307315Y-85305250D01*
X84307315Y-85280746D01*
X84302534Y-85256713D01*
X84294599Y-85237555D01*
X84293343Y-85233416D01*
X84292500Y-85224857D01*
X84292500Y-84961143D01*
X84293343Y-84952584D01*
X84294599Y-84948444D01*
X84302535Y-84929284D01*
X84307315Y-84905250D01*
X84307315Y-84880746D01*
X84302534Y-84856713D01*
X84294599Y-84837555D01*
X84293343Y-84833416D01*
X84292500Y-84824857D01*
X84292500Y-84561143D01*
X84293343Y-84552584D01*
X84294599Y-84548444D01*
X84302535Y-84529284D01*
X84307315Y-84505250D01*
X84307315Y-84480746D01*
X84302534Y-84456713D01*
X84294599Y-84437555D01*
X84293343Y-84433416D01*
X84292500Y-84424857D01*
X84292500Y-84161143D01*
X84293343Y-84152584D01*
X84294599Y-84148444D01*
X84302535Y-84129284D01*
X84307315Y-84105250D01*
X84307315Y-84080746D01*
X84302534Y-84056713D01*
X84294599Y-84037555D01*
X84293343Y-84033416D01*
X84292500Y-84024857D01*
X84292500Y-83761143D01*
X84293343Y-83752584D01*
X84294599Y-83748444D01*
X84302535Y-83729284D01*
X84307315Y-83705250D01*
X84307315Y-83680746D01*
X84302534Y-83656713D01*
X84294599Y-83637555D01*
X84293343Y-83633416D01*
X84292500Y-83624857D01*
X84292500Y-83361143D01*
X84293343Y-83352584D01*
X84294599Y-83348444D01*
X84302535Y-83329284D01*
X84307315Y-83305250D01*
X84307315Y-83280746D01*
X84302534Y-83256713D01*
X84294599Y-83237555D01*
X84293343Y-83233416D01*
X84292500Y-83224857D01*
X84292500Y-82961143D01*
X84293343Y-82952584D01*
X84294599Y-82948444D01*
X84302535Y-82929284D01*
X84307315Y-82905250D01*
X84307315Y-82880746D01*
X84302534Y-82856713D01*
X84294599Y-82837555D01*
X84293343Y-82833416D01*
X84292500Y-82824857D01*
X84292500Y-82561143D01*
X84293343Y-82552584D01*
X84294599Y-82548444D01*
X84302535Y-82529284D01*
X84307315Y-82505250D01*
X84307315Y-82480746D01*
X84302534Y-82456713D01*
X84294599Y-82437555D01*
X84293343Y-82433416D01*
X84292500Y-82424857D01*
X84292500Y-82161143D01*
X84293343Y-82152584D01*
X84294599Y-82148444D01*
X84302535Y-82129284D01*
X84307315Y-82105250D01*
X84307315Y-82080746D01*
X84302534Y-82056713D01*
X84294599Y-82037555D01*
X84293343Y-82033416D01*
X84292500Y-82024857D01*
X84292500Y-81761143D01*
X84293343Y-81752584D01*
X84294599Y-81748444D01*
X84302535Y-81729284D01*
X84307315Y-81705250D01*
X84307315Y-81680746D01*
X84302534Y-81656713D01*
X84294599Y-81637555D01*
X84293343Y-81633416D01*
X84292500Y-81624857D01*
X84292500Y-81361143D01*
X84293343Y-81352584D01*
X84294599Y-81348444D01*
X84302535Y-81329284D01*
X84307315Y-81305250D01*
X84307315Y-81280746D01*
X84302534Y-81256713D01*
X84294599Y-81237555D01*
X84293343Y-81233416D01*
X84292500Y-81224857D01*
X84292500Y-80961143D01*
X84293343Y-80952584D01*
X84294050Y-80950255D01*
X84295195Y-80948113D01*
X84296735Y-80946235D01*
X84298613Y-80944695D01*
X84300755Y-80943550D01*
X84303084Y-80942843D01*
X84311643Y-80942000D01*
X85250357Y-80942000D01*
X85258916Y-80942843D01*
G37*
G36*
X78383916Y-80942843D02*
G01*
X78386245Y-80943550D01*
X78388387Y-80944695D01*
X78390265Y-80946235D01*
X78391805Y-80948113D01*
X78392950Y-80950255D01*
X78393657Y-80952584D01*
X78394500Y-80961143D01*
X78394500Y-81224857D01*
X78393657Y-81233416D01*
X78392401Y-81237556D01*
X78384465Y-81256716D01*
X78379685Y-81280750D01*
X78379685Y-81305254D01*
X78384466Y-81329287D01*
X78392401Y-81348445D01*
X78393657Y-81352584D01*
X78394500Y-81361143D01*
X78394500Y-81624857D01*
X78393657Y-81633416D01*
X78392401Y-81637556D01*
X78384465Y-81656716D01*
X78379685Y-81680750D01*
X78379685Y-81705254D01*
X78384466Y-81729287D01*
X78392401Y-81748445D01*
X78393657Y-81752584D01*
X78394500Y-81761143D01*
X78394500Y-82024857D01*
X78393657Y-82033416D01*
X78392401Y-82037556D01*
X78384465Y-82056716D01*
X78379685Y-82080750D01*
X78379685Y-82105254D01*
X78384466Y-82129287D01*
X78392401Y-82148445D01*
X78393657Y-82152584D01*
X78394500Y-82161143D01*
X78394500Y-82424857D01*
X78393657Y-82433416D01*
X78392401Y-82437556D01*
X78384465Y-82456716D01*
X78379685Y-82480750D01*
X78379685Y-82505254D01*
X78384466Y-82529287D01*
X78392401Y-82548445D01*
X78393657Y-82552584D01*
X78394500Y-82561143D01*
X78394500Y-82824857D01*
X78393657Y-82833416D01*
X78392401Y-82837556D01*
X78384465Y-82856716D01*
X78379685Y-82880750D01*
X78379685Y-82905254D01*
X78384466Y-82929287D01*
X78392401Y-82948445D01*
X78393657Y-82952584D01*
X78394500Y-82961143D01*
X78394500Y-83224857D01*
X78393657Y-83233416D01*
X78392401Y-83237556D01*
X78384465Y-83256716D01*
X78379685Y-83280750D01*
X78379685Y-83305254D01*
X78384466Y-83329287D01*
X78392401Y-83348445D01*
X78393657Y-83352584D01*
X78394500Y-83361143D01*
X78394500Y-83624857D01*
X78393657Y-83633416D01*
X78392401Y-83637556D01*
X78384465Y-83656716D01*
X78379685Y-83680750D01*
X78379685Y-83705254D01*
X78384466Y-83729287D01*
X78392401Y-83748445D01*
X78393657Y-83752584D01*
X78394500Y-83761143D01*
X78394500Y-84024857D01*
X78393657Y-84033416D01*
X78392401Y-84037556D01*
X78384465Y-84056716D01*
X78379685Y-84080750D01*
X78379685Y-84105254D01*
X78384466Y-84129287D01*
X78392401Y-84148445D01*
X78393657Y-84152584D01*
X78394500Y-84161143D01*
X78394500Y-84424857D01*
X78393657Y-84433416D01*
X78392401Y-84437556D01*
X78384465Y-84456716D01*
X78379685Y-84480750D01*
X78379685Y-84505254D01*
X78384466Y-84529287D01*
X78392401Y-84548445D01*
X78393657Y-84552584D01*
X78394500Y-84561143D01*
X78394500Y-84824857D01*
X78393657Y-84833416D01*
X78392401Y-84837556D01*
X78384465Y-84856716D01*
X78379685Y-84880750D01*
X78379685Y-84905254D01*
X78384466Y-84929287D01*
X78392401Y-84948445D01*
X78393657Y-84952584D01*
X78394500Y-84961143D01*
X78394500Y-85224857D01*
X78393657Y-85233416D01*
X78392401Y-85237556D01*
X78384465Y-85256716D01*
X78379685Y-85280750D01*
X78379685Y-85305254D01*
X78384466Y-85329287D01*
X78392401Y-85348445D01*
X78393657Y-85352584D01*
X78394500Y-85361143D01*
X78394500Y-85624857D01*
X78393657Y-85633416D01*
X78392401Y-85637556D01*
X78384465Y-85656716D01*
X78379685Y-85680750D01*
X78379685Y-85705254D01*
X78384466Y-85729287D01*
X78392401Y-85748445D01*
X78393657Y-85752584D01*
X78394500Y-85761143D01*
X78394500Y-86024857D01*
X78393657Y-86033416D01*
X78392401Y-86037556D01*
X78384465Y-86056716D01*
X78379685Y-86080750D01*
X78379685Y-86105254D01*
X78384466Y-86129287D01*
X78392401Y-86148445D01*
X78393657Y-86152584D01*
X78394500Y-86161143D01*
X78394500Y-86424857D01*
X78393657Y-86433416D01*
X78392950Y-86435745D01*
X78391805Y-86437887D01*
X78390265Y-86439765D01*
X78388387Y-86441305D01*
X78386245Y-86442450D01*
X78383916Y-86443157D01*
X78375357Y-86444000D01*
X77436643Y-86444000D01*
X77428084Y-86443157D01*
X77425755Y-86442450D01*
X77423613Y-86441305D01*
X77421735Y-86439765D01*
X77420195Y-86437887D01*
X77419050Y-86435745D01*
X77418343Y-86433416D01*
X77417500Y-86424857D01*
X77417500Y-86161143D01*
X77418343Y-86152584D01*
X77419599Y-86148444D01*
X77427535Y-86129284D01*
X77432315Y-86105250D01*
X77432315Y-86080746D01*
X77427534Y-86056713D01*
X77419599Y-86037555D01*
X77418343Y-86033416D01*
X77417500Y-86024857D01*
X77417500Y-85761143D01*
X77418343Y-85752584D01*
X77419599Y-85748444D01*
X77427535Y-85729284D01*
X77432315Y-85705250D01*
X77432315Y-85680746D01*
X77427534Y-85656713D01*
X77419599Y-85637555D01*
X77418343Y-85633416D01*
X77417500Y-85624857D01*
X77417500Y-85361143D01*
X77418343Y-85352584D01*
X77419599Y-85348444D01*
X77427535Y-85329284D01*
X77432315Y-85305250D01*
X77432315Y-85280746D01*
X77427534Y-85256713D01*
X77419599Y-85237555D01*
X77418343Y-85233416D01*
X77417500Y-85224857D01*
X77417500Y-84961143D01*
X77418343Y-84952584D01*
X77419599Y-84948444D01*
X77427535Y-84929284D01*
X77432315Y-84905250D01*
X77432315Y-84880746D01*
X77427534Y-84856713D01*
X77419599Y-84837555D01*
X77418343Y-84833416D01*
X77417500Y-84824857D01*
X77417500Y-84561143D01*
X77418343Y-84552584D01*
X77419599Y-84548444D01*
X77427535Y-84529284D01*
X77432315Y-84505250D01*
X77432315Y-84480746D01*
X77427534Y-84456713D01*
X77419599Y-84437555D01*
X77418343Y-84433416D01*
X77417500Y-84424857D01*
X77417500Y-84161143D01*
X77418343Y-84152584D01*
X77419599Y-84148444D01*
X77427535Y-84129284D01*
X77432315Y-84105250D01*
X77432315Y-84080746D01*
X77427534Y-84056713D01*
X77419599Y-84037555D01*
X77418343Y-84033416D01*
X77417500Y-84024857D01*
X77417500Y-83761143D01*
X77418343Y-83752584D01*
X77419599Y-83748444D01*
X77427535Y-83729284D01*
X77432315Y-83705250D01*
X77432315Y-83680746D01*
X77427534Y-83656713D01*
X77419599Y-83637555D01*
X77418343Y-83633416D01*
X77417500Y-83624857D01*
X77417500Y-83361143D01*
X77418343Y-83352584D01*
X77419599Y-83348444D01*
X77427535Y-83329284D01*
X77432315Y-83305250D01*
X77432315Y-83280746D01*
X77427534Y-83256713D01*
X77419599Y-83237555D01*
X77418343Y-83233416D01*
X77417500Y-83224857D01*
X77417500Y-82961143D01*
X77418343Y-82952584D01*
X77419599Y-82948444D01*
X77427535Y-82929284D01*
X77432315Y-82905250D01*
X77432315Y-82880746D01*
X77427534Y-82856713D01*
X77419599Y-82837555D01*
X77418343Y-82833416D01*
X77417500Y-82824857D01*
X77417500Y-82561143D01*
X77418343Y-82552584D01*
X77419599Y-82548444D01*
X77427535Y-82529284D01*
X77432315Y-82505250D01*
X77432315Y-82480746D01*
X77427534Y-82456713D01*
X77419599Y-82437555D01*
X77418343Y-82433416D01*
X77417500Y-82424857D01*
X77417500Y-82161143D01*
X77418343Y-82152584D01*
X77419599Y-82148444D01*
X77427535Y-82129284D01*
X77432315Y-82105250D01*
X77432315Y-82080746D01*
X77427534Y-82056713D01*
X77419599Y-82037555D01*
X77418343Y-82033416D01*
X77417500Y-82024857D01*
X77417500Y-81761143D01*
X77418343Y-81752584D01*
X77419599Y-81748444D01*
X77427535Y-81729284D01*
X77432315Y-81705250D01*
X77432315Y-81680746D01*
X77427534Y-81656713D01*
X77419599Y-81637555D01*
X77418343Y-81633416D01*
X77417500Y-81624857D01*
X77417500Y-81361143D01*
X77418343Y-81352584D01*
X77419599Y-81348444D01*
X77427535Y-81329284D01*
X77432315Y-81305250D01*
X77432315Y-81280746D01*
X77427534Y-81256713D01*
X77419599Y-81237555D01*
X77418343Y-81233416D01*
X77417500Y-81224857D01*
X77417500Y-80961143D01*
X77418343Y-80952584D01*
X77419050Y-80950255D01*
X77420195Y-80948113D01*
X77421735Y-80946235D01*
X77423613Y-80944695D01*
X77425755Y-80943550D01*
X77428084Y-80942843D01*
X77436643Y-80942000D01*
X78375357Y-80942000D01*
X78383916Y-80942843D01*
G37*
G36*
X89651729Y-83941704D02*
G01*
X89806601Y-84005854D01*
X89945982Y-84098986D01*
X90064516Y-84217520D01*
X90157648Y-84356901D01*
X90221798Y-84511773D01*
X90254501Y-84676185D01*
X90254501Y-84843817D01*
X90221798Y-85008229D01*
X90157648Y-85163101D01*
X90064516Y-85302482D01*
X89945982Y-85421016D01*
X89806601Y-85514148D01*
X89651729Y-85578298D01*
X89487317Y-85611001D01*
X89319685Y-85611001D01*
X89155273Y-85578298D01*
X89000401Y-85514148D01*
X88861020Y-85421016D01*
X88742486Y-85302482D01*
X88649354Y-85163101D01*
X88585204Y-85008229D01*
X88552501Y-84843817D01*
X88552501Y-84676185D01*
X88585204Y-84511773D01*
X88649354Y-84356901D01*
X88742486Y-84217520D01*
X88861020Y-84098986D01*
X89000401Y-84005854D01*
X89155273Y-83941704D01*
X89319685Y-83909001D01*
X89487317Y-83909001D01*
X89651729Y-83941704D01*
G37*
G36*
X74411729Y-83941704D02*
G01*
X74566601Y-84005854D01*
X74705982Y-84098986D01*
X74824516Y-84217520D01*
X74917648Y-84356901D01*
X74981798Y-84511773D01*
X75014501Y-84676185D01*
X75014501Y-84843817D01*
X74981798Y-85008229D01*
X74917648Y-85163101D01*
X74824516Y-85302482D01*
X74705982Y-85421016D01*
X74566601Y-85514148D01*
X74411729Y-85578298D01*
X74247317Y-85611001D01*
X74079685Y-85611001D01*
X73915273Y-85578298D01*
X73760401Y-85514148D01*
X73621020Y-85421016D01*
X73502486Y-85302482D01*
X73409354Y-85163101D01*
X73345204Y-85008229D01*
X73312501Y-84843817D01*
X73312501Y-84676185D01*
X73345204Y-84511773D01*
X73409354Y-84356901D01*
X73502486Y-84217520D01*
X73621020Y-84098986D01*
X73760401Y-84005854D01*
X73915273Y-83941704D01*
X74079685Y-83909001D01*
X74247317Y-83909001D01*
X74411729Y-83941704D01*
G37*
G36*
X82966340Y-82043262D02*
G01*
X82972758Y-82045209D01*
X82978681Y-82048375D01*
X82983868Y-82052632D01*
X82988125Y-82057819D01*
X82991291Y-82063742D01*
X82993238Y-82070160D01*
X82994500Y-82082978D01*
X82994500Y-85303022D01*
X82993238Y-85315840D01*
X82991291Y-85322258D01*
X82988125Y-85328181D01*
X82983868Y-85333368D01*
X82978681Y-85337625D01*
X82972758Y-85340791D01*
X82966340Y-85342738D01*
X82953522Y-85344000D01*
X79733478Y-85344000D01*
X79720660Y-85342738D01*
X79714242Y-85340791D01*
X79708319Y-85337625D01*
X79703132Y-85333368D01*
X79698875Y-85328181D01*
X79695709Y-85322258D01*
X79693762Y-85315840D01*
X79692500Y-85303022D01*
X79692500Y-82082978D01*
X79693762Y-82070160D01*
X79695709Y-82063742D01*
X79698875Y-82057819D01*
X79703132Y-82052632D01*
X79708319Y-82048375D01*
X79714242Y-82045209D01*
X79720660Y-82043262D01*
X79733478Y-82042000D01*
X82953522Y-82042000D01*
X82966340Y-82043262D01*
G37*
G36*
X89651729Y-81401704D02*
G01*
X89806601Y-81465854D01*
X89945982Y-81558986D01*
X90064516Y-81677520D01*
X90157648Y-81816901D01*
X90221798Y-81971773D01*
X90254501Y-82136185D01*
X90254501Y-82303817D01*
X90221798Y-82468229D01*
X90157648Y-82623101D01*
X90064516Y-82762482D01*
X89945982Y-82881016D01*
X89806601Y-82974148D01*
X89651729Y-83038298D01*
X89487317Y-83071001D01*
X89319685Y-83071001D01*
X89155273Y-83038298D01*
X89000401Y-82974148D01*
X88861020Y-82881016D01*
X88742486Y-82762482D01*
X88649354Y-82623101D01*
X88585204Y-82468229D01*
X88552501Y-82303817D01*
X88552501Y-82136185D01*
X88585204Y-81971773D01*
X88649354Y-81816901D01*
X88742486Y-81677520D01*
X88861020Y-81558986D01*
X89000401Y-81465854D01*
X89155273Y-81401704D01*
X89319685Y-81369001D01*
X89487317Y-81369001D01*
X89651729Y-81401704D01*
G37*
G36*
X74411729Y-81401704D02*
G01*
X74566601Y-81465854D01*
X74705982Y-81558986D01*
X74824516Y-81677520D01*
X74917648Y-81816901D01*
X74981798Y-81971773D01*
X75014501Y-82136185D01*
X75014501Y-82303817D01*
X74981798Y-82468229D01*
X74917648Y-82623101D01*
X74824516Y-82762482D01*
X74705982Y-82881016D01*
X74566601Y-82974148D01*
X74411729Y-83038298D01*
X74247317Y-83071001D01*
X74079685Y-83071001D01*
X73915273Y-83038298D01*
X73760401Y-82974148D01*
X73621020Y-82881016D01*
X73502486Y-82762482D01*
X73409354Y-82623101D01*
X73345204Y-82468229D01*
X73312501Y-82303817D01*
X73312501Y-82136185D01*
X73345204Y-81971773D01*
X73409354Y-81816901D01*
X73502486Y-81677520D01*
X73621020Y-81558986D01*
X73760401Y-81465854D01*
X73915273Y-81401704D01*
X74079685Y-81369001D01*
X74247317Y-81369001D01*
X74411729Y-81401704D01*
G37*
G36*
X76985976Y-82193572D02*
G01*
X77005181Y-82199398D01*
X77022893Y-82208865D01*
X77038405Y-82221595D01*
X77051135Y-82237107D01*
X77060602Y-82254819D01*
X77066428Y-82274024D01*
X77069000Y-82300140D01*
X77069000Y-82743860D01*
X77066428Y-82769976D01*
X77060602Y-82789181D01*
X77051135Y-82806893D01*
X77038405Y-82822405D01*
X77022893Y-82835135D01*
X77005181Y-82844602D01*
X76985976Y-82850428D01*
X76959860Y-82853000D01*
X76456140Y-82853000D01*
X76430024Y-82850428D01*
X76410819Y-82844602D01*
X76393107Y-82835135D01*
X76377595Y-82822405D01*
X76364865Y-82806893D01*
X76355398Y-82789181D01*
X76349572Y-82769976D01*
X76347000Y-82743860D01*
X76347000Y-82300140D01*
X76349572Y-82274024D01*
X76355398Y-82254819D01*
X76364865Y-82237107D01*
X76377595Y-82221595D01*
X76393107Y-82208865D01*
X76410819Y-82199398D01*
X76430024Y-82193572D01*
X76456140Y-82191000D01*
X76959860Y-82191000D01*
X76985976Y-82193572D01*
G37*
G36*
X76985976Y-81233572D02*
G01*
X77005181Y-81239398D01*
X77022893Y-81248865D01*
X77038405Y-81261595D01*
X77051135Y-81277107D01*
X77060602Y-81294819D01*
X77066428Y-81314024D01*
X77069000Y-81340140D01*
X77069000Y-81783860D01*
X77066428Y-81809976D01*
X77060602Y-81829181D01*
X77051135Y-81846893D01*
X77038405Y-81862405D01*
X77022893Y-81875135D01*
X77005181Y-81884602D01*
X76985976Y-81890428D01*
X76959860Y-81893000D01*
X76456140Y-81893000D01*
X76430024Y-81890428D01*
X76410819Y-81884602D01*
X76393107Y-81875135D01*
X76377595Y-81862405D01*
X76364865Y-81846893D01*
X76355398Y-81829181D01*
X76349572Y-81809976D01*
X76347000Y-81783860D01*
X76347000Y-81340140D01*
X76349572Y-81314024D01*
X76355398Y-81294819D01*
X76364865Y-81277107D01*
X76377595Y-81261595D01*
X76393107Y-81248865D01*
X76410819Y-81239398D01*
X76430024Y-81233572D01*
X76456140Y-81231000D01*
X76959860Y-81231000D01*
X76985976Y-81233572D01*
G37*
G36*
X78883916Y-79767843D02*
G01*
X78888056Y-79769099D01*
X78907216Y-79777035D01*
X78931250Y-79781815D01*
X78955754Y-79781815D01*
X78979787Y-79777034D01*
X78998945Y-79769099D01*
X79003084Y-79767843D01*
X79011643Y-79767000D01*
X79275357Y-79767000D01*
X79283916Y-79767843D01*
X79288056Y-79769099D01*
X79307216Y-79777035D01*
X79331250Y-79781815D01*
X79355754Y-79781815D01*
X79379787Y-79777034D01*
X79398945Y-79769099D01*
X79403084Y-79767843D01*
X79411643Y-79767000D01*
X79675357Y-79767000D01*
X79683916Y-79767843D01*
X79688056Y-79769099D01*
X79707216Y-79777035D01*
X79731250Y-79781815D01*
X79755754Y-79781815D01*
X79779787Y-79777034D01*
X79798945Y-79769099D01*
X79803084Y-79767843D01*
X79811643Y-79767000D01*
X80075357Y-79767000D01*
X80083916Y-79767843D01*
X80088056Y-79769099D01*
X80107216Y-79777035D01*
X80131250Y-79781815D01*
X80155754Y-79781815D01*
X80179787Y-79777034D01*
X80198945Y-79769099D01*
X80203084Y-79767843D01*
X80211643Y-79767000D01*
X80475357Y-79767000D01*
X80483916Y-79767843D01*
X80488056Y-79769099D01*
X80507216Y-79777035D01*
X80531250Y-79781815D01*
X80555754Y-79781815D01*
X80579787Y-79777034D01*
X80598945Y-79769099D01*
X80603084Y-79767843D01*
X80611643Y-79767000D01*
X80875357Y-79767000D01*
X80883916Y-79767843D01*
X80888056Y-79769099D01*
X80907216Y-79777035D01*
X80931250Y-79781815D01*
X80955754Y-79781815D01*
X80979787Y-79777034D01*
X80998945Y-79769099D01*
X81003084Y-79767843D01*
X81011643Y-79767000D01*
X81275357Y-79767000D01*
X81283916Y-79767843D01*
X81288056Y-79769099D01*
X81307216Y-79777035D01*
X81331250Y-79781815D01*
X81355754Y-79781815D01*
X81379787Y-79777034D01*
X81398945Y-79769099D01*
X81403084Y-79767843D01*
X81411643Y-79767000D01*
X81675357Y-79767000D01*
X81683916Y-79767843D01*
X81688056Y-79769099D01*
X81707216Y-79777035D01*
X81731250Y-79781815D01*
X81755754Y-79781815D01*
X81779787Y-79777034D01*
X81798945Y-79769099D01*
X81803084Y-79767843D01*
X81811643Y-79767000D01*
X82075357Y-79767000D01*
X82083916Y-79767843D01*
X82088056Y-79769099D01*
X82107216Y-79777035D01*
X82131250Y-79781815D01*
X82155754Y-79781815D01*
X82179787Y-79777034D01*
X82198945Y-79769099D01*
X82203084Y-79767843D01*
X82211643Y-79767000D01*
X82475357Y-79767000D01*
X82483916Y-79767843D01*
X82488056Y-79769099D01*
X82507216Y-79777035D01*
X82531250Y-79781815D01*
X82555754Y-79781815D01*
X82579787Y-79777034D01*
X82598945Y-79769099D01*
X82603084Y-79767843D01*
X82611643Y-79767000D01*
X82875357Y-79767000D01*
X82883916Y-79767843D01*
X82888056Y-79769099D01*
X82907216Y-79777035D01*
X82931250Y-79781815D01*
X82955754Y-79781815D01*
X82979787Y-79777034D01*
X82998945Y-79769099D01*
X83003084Y-79767843D01*
X83011643Y-79767000D01*
X83275357Y-79767000D01*
X83283916Y-79767843D01*
X83288056Y-79769099D01*
X83307216Y-79777035D01*
X83331250Y-79781815D01*
X83355754Y-79781815D01*
X83379787Y-79777034D01*
X83398945Y-79769099D01*
X83403084Y-79767843D01*
X83411643Y-79767000D01*
X83675357Y-79767000D01*
X83683916Y-79767843D01*
X83688056Y-79769099D01*
X83707216Y-79777035D01*
X83731250Y-79781815D01*
X83755754Y-79781815D01*
X83779787Y-79777034D01*
X83798945Y-79769099D01*
X83803084Y-79767843D01*
X83811643Y-79767000D01*
X84075357Y-79767000D01*
X84083916Y-79767843D01*
X84086245Y-79768550D01*
X84088387Y-79769695D01*
X84090265Y-79771235D01*
X84091805Y-79773113D01*
X84092950Y-79775255D01*
X84093657Y-79777584D01*
X84094500Y-79786143D01*
X84094500Y-80724857D01*
X84093657Y-80733416D01*
X84092950Y-80735745D01*
X84091805Y-80737887D01*
X84090265Y-80739765D01*
X84088387Y-80741305D01*
X84086245Y-80742450D01*
X84083916Y-80743157D01*
X84075357Y-80744000D01*
X83811643Y-80744000D01*
X83803084Y-80743157D01*
X83798944Y-80741901D01*
X83779784Y-80733965D01*
X83755750Y-80729185D01*
X83731246Y-80729185D01*
X83707213Y-80733966D01*
X83688055Y-80741901D01*
X83683916Y-80743157D01*
X83675357Y-80744000D01*
X83411643Y-80744000D01*
X83403084Y-80743157D01*
X83398944Y-80741901D01*
X83379784Y-80733965D01*
X83355750Y-80729185D01*
X83331246Y-80729185D01*
X83307213Y-80733966D01*
X83288055Y-80741901D01*
X83283916Y-80743157D01*
X83275357Y-80744000D01*
X83011643Y-80744000D01*
X83003084Y-80743157D01*
X82998944Y-80741901D01*
X82979784Y-80733965D01*
X82955750Y-80729185D01*
X82931246Y-80729185D01*
X82907213Y-80733966D01*
X82888055Y-80741901D01*
X82883916Y-80743157D01*
X82875357Y-80744000D01*
X82611643Y-80744000D01*
X82603084Y-80743157D01*
X82598944Y-80741901D01*
X82579784Y-80733965D01*
X82555750Y-80729185D01*
X82531246Y-80729185D01*
X82507213Y-80733966D01*
X82488055Y-80741901D01*
X82483916Y-80743157D01*
X82475357Y-80744000D01*
X82211643Y-80744000D01*
X82203084Y-80743157D01*
X82198944Y-80741901D01*
X82179784Y-80733965D01*
X82155750Y-80729185D01*
X82131246Y-80729185D01*
X82107213Y-80733966D01*
X82088055Y-80741901D01*
X82083916Y-80743157D01*
X82075357Y-80744000D01*
X81811643Y-80744000D01*
X81803084Y-80743157D01*
X81798944Y-80741901D01*
X81779784Y-80733965D01*
X81755750Y-80729185D01*
X81731246Y-80729185D01*
X81707213Y-80733966D01*
X81688055Y-80741901D01*
X81683916Y-80743157D01*
X81675357Y-80744000D01*
X81411643Y-80744000D01*
X81403084Y-80743157D01*
X81398944Y-80741901D01*
X81379784Y-80733965D01*
X81355750Y-80729185D01*
X81331246Y-80729185D01*
X81307213Y-80733966D01*
X81288055Y-80741901D01*
X81283916Y-80743157D01*
X81275357Y-80744000D01*
X81011643Y-80744000D01*
X81003084Y-80743157D01*
X80998944Y-80741901D01*
X80979784Y-80733965D01*
X80955750Y-80729185D01*
X80931246Y-80729185D01*
X80907213Y-80733966D01*
X80888055Y-80741901D01*
X80883916Y-80743157D01*
X80875357Y-80744000D01*
X80611643Y-80744000D01*
X80603084Y-80743157D01*
X80598944Y-80741901D01*
X80579784Y-80733965D01*
X80555750Y-80729185D01*
X80531246Y-80729185D01*
X80507213Y-80733966D01*
X80488055Y-80741901D01*
X80483916Y-80743157D01*
X80475357Y-80744000D01*
X80211643Y-80744000D01*
X80203084Y-80743157D01*
X80198944Y-80741901D01*
X80179784Y-80733965D01*
X80155750Y-80729185D01*
X80131246Y-80729185D01*
X80107213Y-80733966D01*
X80088055Y-80741901D01*
X80083916Y-80743157D01*
X80075357Y-80744000D01*
X79811643Y-80744000D01*
X79803084Y-80743157D01*
X79798944Y-80741901D01*
X79779784Y-80733965D01*
X79755750Y-80729185D01*
X79731246Y-80729185D01*
X79707213Y-80733966D01*
X79688055Y-80741901D01*
X79683916Y-80743157D01*
X79675357Y-80744000D01*
X79411643Y-80744000D01*
X79403084Y-80743157D01*
X79398944Y-80741901D01*
X79379784Y-80733965D01*
X79355750Y-80729185D01*
X79331246Y-80729185D01*
X79307213Y-80733966D01*
X79288055Y-80741901D01*
X79283916Y-80743157D01*
X79275357Y-80744000D01*
X79011643Y-80744000D01*
X79003084Y-80743157D01*
X78998944Y-80741901D01*
X78979784Y-80733965D01*
X78955750Y-80729185D01*
X78931246Y-80729185D01*
X78907213Y-80733966D01*
X78888055Y-80741901D01*
X78883916Y-80743157D01*
X78875357Y-80744000D01*
X78611643Y-80744000D01*
X78603084Y-80743157D01*
X78600755Y-80742450D01*
X78598613Y-80741305D01*
X78596735Y-80739765D01*
X78595195Y-80737887D01*
X78594050Y-80735745D01*
X78593343Y-80733416D01*
X78592500Y-80724857D01*
X78592500Y-79786143D01*
X78593343Y-79777584D01*
X78594050Y-79775255D01*
X78595195Y-79773113D01*
X78596735Y-79771235D01*
X78598613Y-79769695D01*
X78600755Y-79768550D01*
X78603084Y-79767843D01*
X78611643Y-79767000D01*
X78875357Y-79767000D01*
X78883916Y-79767843D01*
G37*
G36*
X89651729Y-78861704D02*
G01*
X89806601Y-78925854D01*
X89945982Y-79018986D01*
X90064516Y-79137520D01*
X90157648Y-79276901D01*
X90221798Y-79431773D01*
X90254501Y-79596185D01*
X90254501Y-79763817D01*
X90221798Y-79928229D01*
X90157648Y-80083101D01*
X90064516Y-80222482D01*
X89945982Y-80341016D01*
X89806601Y-80434148D01*
X89651729Y-80498298D01*
X89487317Y-80531001D01*
X89319685Y-80531001D01*
X89155273Y-80498298D01*
X89000401Y-80434148D01*
X88861020Y-80341016D01*
X88742486Y-80222482D01*
X88649354Y-80083101D01*
X88585204Y-79928229D01*
X88552501Y-79763817D01*
X88552501Y-79596185D01*
X88585204Y-79431773D01*
X88649354Y-79276901D01*
X88742486Y-79137520D01*
X88861020Y-79018986D01*
X89000401Y-78925854D01*
X89155273Y-78861704D01*
X89319685Y-78829001D01*
X89487317Y-78829001D01*
X89651729Y-78861704D01*
G37*
G36*
X74411729Y-78861704D02*
G01*
X74566601Y-78925854D01*
X74705982Y-79018986D01*
X74824516Y-79137520D01*
X74917648Y-79276901D01*
X74981798Y-79431773D01*
X75014501Y-79596185D01*
X75014501Y-79763817D01*
X74981798Y-79928229D01*
X74917648Y-80083101D01*
X74824516Y-80222482D01*
X74705982Y-80341016D01*
X74566601Y-80434148D01*
X74411729Y-80498298D01*
X74247317Y-80531001D01*
X74079685Y-80531001D01*
X73915273Y-80498298D01*
X73760401Y-80434148D01*
X73621020Y-80341016D01*
X73502486Y-80222482D01*
X73409354Y-80083101D01*
X73345204Y-79928229D01*
X73312501Y-79763817D01*
X73312501Y-79596185D01*
X73345204Y-79431773D01*
X73409354Y-79276901D01*
X73502486Y-79137520D01*
X73621020Y-79018986D01*
X73760401Y-78925854D01*
X73915273Y-78861704D01*
X74079685Y-78829001D01*
X74247317Y-78829001D01*
X74411729Y-78861704D01*
G37*
G36*
X80539976Y-78635572D02*
G01*
X80559181Y-78641398D01*
X80576893Y-78650865D01*
X80592405Y-78663595D01*
X80605135Y-78679107D01*
X80614602Y-78696819D01*
X80620428Y-78716024D01*
X80623000Y-78742140D01*
X80623000Y-79245860D01*
X80620428Y-79271976D01*
X80614602Y-79291181D01*
X80605135Y-79308893D01*
X80592405Y-79324405D01*
X80576893Y-79337135D01*
X80559181Y-79346602D01*
X80539976Y-79352428D01*
X80513860Y-79355000D01*
X80070140Y-79355000D01*
X80044024Y-79352428D01*
X80024819Y-79346602D01*
X80007107Y-79337135D01*
X79991595Y-79324405D01*
X79978865Y-79308893D01*
X79969398Y-79291181D01*
X79963572Y-79271976D01*
X79961000Y-79245860D01*
X79961000Y-78742140D01*
X79963572Y-78716024D01*
X79969398Y-78696819D01*
X79978865Y-78679107D01*
X79991595Y-78663595D01*
X80007107Y-78650865D01*
X80024819Y-78641398D01*
X80044024Y-78635572D01*
X80070140Y-78633000D01*
X80513860Y-78633000D01*
X80539976Y-78635572D01*
G37*
G36*
X81499976Y-78635572D02*
G01*
X81519181Y-78641398D01*
X81536893Y-78650865D01*
X81552405Y-78663595D01*
X81565135Y-78679107D01*
X81574602Y-78696819D01*
X81580428Y-78716024D01*
X81583000Y-78742140D01*
X81583000Y-79245860D01*
X81580428Y-79271976D01*
X81574602Y-79291181D01*
X81565135Y-79308893D01*
X81552405Y-79324405D01*
X81536893Y-79337135D01*
X81519181Y-79346602D01*
X81499976Y-79352428D01*
X81473860Y-79355000D01*
X81030140Y-79355000D01*
X81004024Y-79352428D01*
X80984819Y-79346602D01*
X80967107Y-79337135D01*
X80951595Y-79324405D01*
X80938865Y-79308893D01*
X80929398Y-79291181D01*
X80923572Y-79271976D01*
X80921000Y-79245860D01*
X80921000Y-78742140D01*
X80923572Y-78716024D01*
X80929398Y-78696819D01*
X80938865Y-78679107D01*
X80951595Y-78663595D01*
X80967107Y-78650865D01*
X80984819Y-78641398D01*
X81004024Y-78635572D01*
X81030140Y-78633000D01*
X81473860Y-78633000D01*
X81499976Y-78635572D01*
G37*
G36*
X80965500Y-78214000D02*
G01*
X79563500Y-78214000D01*
X79563500Y-77012000D01*
X80965500Y-77012000D01*
X80965500Y-78214000D01*
G37*
G36*
X83265500Y-78204000D02*
G01*
X81863500Y-78204000D01*
X81863500Y-77002000D01*
X83265500Y-77002000D01*
X83265500Y-78204000D01*
G37*
G36*
X89651729Y-76321704D02*
G01*
X89806601Y-76385854D01*
X89945982Y-76478986D01*
X90064516Y-76597520D01*
X90157648Y-76736901D01*
X90221798Y-76891773D01*
X90254501Y-77056185D01*
X90254501Y-77223817D01*
X90221798Y-77388229D01*
X90157648Y-77543101D01*
X90064516Y-77682482D01*
X89945982Y-77801016D01*
X89806601Y-77894148D01*
X89651729Y-77958298D01*
X89487317Y-77991001D01*
X89319685Y-77991001D01*
X89155273Y-77958298D01*
X89000401Y-77894148D01*
X88861020Y-77801016D01*
X88742486Y-77682482D01*
X88649354Y-77543101D01*
X88585204Y-77388229D01*
X88552501Y-77223817D01*
X88552501Y-77056185D01*
X88585204Y-76891773D01*
X88649354Y-76736901D01*
X88742486Y-76597520D01*
X88861020Y-76478986D01*
X89000401Y-76385854D01*
X89155273Y-76321704D01*
X89319685Y-76289001D01*
X89487317Y-76289001D01*
X89651729Y-76321704D01*
G37*
G36*
X74411729Y-76321704D02*
G01*
X74566601Y-76385854D01*
X74705982Y-76478986D01*
X74824516Y-76597520D01*
X74917648Y-76736901D01*
X74981798Y-76891773D01*
X75014501Y-77056185D01*
X75014501Y-77223817D01*
X74981798Y-77388229D01*
X74917648Y-77543101D01*
X74824516Y-77682482D01*
X74705982Y-77801016D01*
X74566601Y-77894148D01*
X74411729Y-77958298D01*
X74247317Y-77991001D01*
X74079685Y-77991001D01*
X73915273Y-77958298D01*
X73760401Y-77894148D01*
X73621020Y-77801016D01*
X73502486Y-77682482D01*
X73409354Y-77543101D01*
X73345204Y-77388229D01*
X73312501Y-77223817D01*
X73312501Y-77056185D01*
X73345204Y-76891773D01*
X73409354Y-76736901D01*
X73502486Y-76597520D01*
X73621020Y-76478986D01*
X73760401Y-76385854D01*
X73915273Y-76321704D01*
X74079685Y-76289001D01*
X74247317Y-76289001D01*
X74411729Y-76321704D01*
G37*
G36*
X84478976Y-77240572D02*
G01*
X84498181Y-77246398D01*
X84515893Y-77255865D01*
X84531405Y-77268595D01*
X84544135Y-77284107D01*
X84553602Y-77301819D01*
X84559428Y-77321024D01*
X84562000Y-77347140D01*
X84562000Y-77790860D01*
X84559428Y-77816976D01*
X84553602Y-77836181D01*
X84544135Y-77853893D01*
X84531405Y-77869405D01*
X84515893Y-77882135D01*
X84498181Y-77891602D01*
X84478976Y-77897428D01*
X84452860Y-77900000D01*
X83949140Y-77900000D01*
X83923024Y-77897428D01*
X83903819Y-77891602D01*
X83886107Y-77882135D01*
X83870595Y-77869405D01*
X83857865Y-77853893D01*
X83848398Y-77836181D01*
X83842572Y-77816976D01*
X83840000Y-77790860D01*
X83840000Y-77347140D01*
X83842572Y-77321024D01*
X83848398Y-77301819D01*
X83857865Y-77284107D01*
X83870595Y-77268595D01*
X83886107Y-77255865D01*
X83903819Y-77246398D01*
X83923024Y-77240572D01*
X83949140Y-77238000D01*
X84452860Y-77238000D01*
X84478976Y-77240572D01*
G37*
G36*
X78827476Y-76478572D02*
G01*
X78846681Y-76484398D01*
X78864393Y-76493865D01*
X78879905Y-76506595D01*
X78892635Y-76522107D01*
X78902102Y-76539819D01*
X78907928Y-76559024D01*
X78910500Y-76585140D01*
X78910500Y-77028860D01*
X78907928Y-77054976D01*
X78902102Y-77074181D01*
X78892635Y-77091893D01*
X78879905Y-77107405D01*
X78864393Y-77120135D01*
X78846681Y-77129602D01*
X78827476Y-77135428D01*
X78801360Y-77138000D01*
X78297640Y-77138000D01*
X78271524Y-77135428D01*
X78252319Y-77129602D01*
X78234607Y-77120135D01*
X78219095Y-77107405D01*
X78206365Y-77091893D01*
X78196898Y-77074181D01*
X78191072Y-77054976D01*
X78188500Y-77028860D01*
X78188500Y-76585140D01*
X78191072Y-76559024D01*
X78196898Y-76539819D01*
X78206365Y-76522107D01*
X78219095Y-76506595D01*
X78234607Y-76493865D01*
X78252319Y-76484398D01*
X78271524Y-76478572D01*
X78297640Y-76476000D01*
X78801360Y-76476000D01*
X78827476Y-76478572D01*
G37*
G36*
X84478976Y-76280572D02*
G01*
X84498181Y-76286398D01*
X84515893Y-76295865D01*
X84531405Y-76308595D01*
X84544135Y-76324107D01*
X84553602Y-76341819D01*
X84559428Y-76361024D01*
X84562000Y-76387140D01*
X84562000Y-76830860D01*
X84559428Y-76856976D01*
X84553602Y-76876181D01*
X84544135Y-76893893D01*
X84531405Y-76909405D01*
X84515893Y-76922135D01*
X84498181Y-76931602D01*
X84478976Y-76937428D01*
X84452860Y-76940000D01*
X83949140Y-76940000D01*
X83923024Y-76937428D01*
X83903819Y-76931602D01*
X83886107Y-76922135D01*
X83870595Y-76909405D01*
X83857865Y-76893893D01*
X83848398Y-76876181D01*
X83842572Y-76856976D01*
X83840000Y-76830860D01*
X83840000Y-76387140D01*
X83842572Y-76361024D01*
X83848398Y-76341819D01*
X83857865Y-76324107D01*
X83870595Y-76308595D01*
X83886107Y-76295865D01*
X83903819Y-76286398D01*
X83923024Y-76280572D01*
X83949140Y-76278000D01*
X84452860Y-76278000D01*
X84478976Y-76280572D01*
G37*
G36*
X83255500Y-76414000D02*
G01*
X81853500Y-76414000D01*
X81853500Y-75212000D01*
X83255500Y-75212000D01*
X83255500Y-76414000D01*
G37*
G36*
X80955500Y-76414000D02*
G01*
X79553500Y-76414000D01*
X79553500Y-75212000D01*
X80955500Y-75212000D01*
X80955500Y-76414000D01*
G37*
G36*
X78827476Y-75518572D02*
G01*
X78846681Y-75524398D01*
X78864393Y-75533865D01*
X78879905Y-75546595D01*
X78892635Y-75562107D01*
X78902102Y-75579819D01*
X78907928Y-75599024D01*
X78910500Y-75625140D01*
X78910500Y-76068860D01*
X78907928Y-76094976D01*
X78902102Y-76114181D01*
X78892635Y-76131893D01*
X78879905Y-76147405D01*
X78864393Y-76160135D01*
X78846681Y-76169602D01*
X78827476Y-76175428D01*
X78801360Y-76178000D01*
X78297640Y-76178000D01*
X78271524Y-76175428D01*
X78252319Y-76169602D01*
X78234607Y-76160135D01*
X78219095Y-76147405D01*
X78206365Y-76131893D01*
X78196898Y-76114181D01*
X78191072Y-76094976D01*
X78188500Y-76068860D01*
X78188500Y-75625140D01*
X78191072Y-75599024D01*
X78196898Y-75579819D01*
X78206365Y-75562107D01*
X78219095Y-75546595D01*
X78234607Y-75533865D01*
X78252319Y-75524398D01*
X78271524Y-75518572D01*
X78297640Y-75516000D01*
X78801360Y-75516000D01*
X78827476Y-75518572D01*
G37*
G36*
X74411729Y-73781704D02*
G01*
X74566601Y-73845854D01*
X74705982Y-73938986D01*
X74824516Y-74057520D01*
X74917648Y-74196901D01*
X74981798Y-74351773D01*
X75014501Y-74516185D01*
X75014501Y-74683817D01*
X74981798Y-74848229D01*
X74917648Y-75003101D01*
X74824516Y-75142482D01*
X74705982Y-75261016D01*
X74566601Y-75354148D01*
X74411729Y-75418298D01*
X74247317Y-75451001D01*
X74079685Y-75451001D01*
X73915273Y-75418298D01*
X73760401Y-75354148D01*
X73621020Y-75261016D01*
X73502486Y-75142482D01*
X73409354Y-75003101D01*
X73345204Y-74848229D01*
X73312501Y-74683817D01*
X73312501Y-74516185D01*
X73345204Y-74351773D01*
X73409354Y-74196901D01*
X73502486Y-74057520D01*
X73621020Y-73938986D01*
X73760401Y-73845854D01*
X73915273Y-73781704D01*
X74079685Y-73749001D01*
X74247317Y-73749001D01*
X74411729Y-73781704D01*
G37*
G36*
X89651729Y-73781704D02*
G01*
X89806601Y-73845854D01*
X89945982Y-73938986D01*
X90064516Y-74057520D01*
X90157648Y-74196901D01*
X90221798Y-74351773D01*
X90254501Y-74516185D01*
X90254501Y-74683817D01*
X90221798Y-74848229D01*
X90157648Y-75003101D01*
X90064516Y-75142482D01*
X89945982Y-75261016D01*
X89806601Y-75354148D01*
X89651729Y-75418298D01*
X89487317Y-75451001D01*
X89319685Y-75451001D01*
X89155273Y-75418298D01*
X89000401Y-75354148D01*
X88861020Y-75261016D01*
X88742486Y-75142482D01*
X88649354Y-75003101D01*
X88585204Y-74848229D01*
X88552501Y-74683817D01*
X88552501Y-74516185D01*
X88585204Y-74351773D01*
X88649354Y-74196901D01*
X88742486Y-74057520D01*
X88861020Y-73938986D01*
X89000401Y-73845854D01*
X89155273Y-73781704D01*
X89319685Y-73749001D01*
X89487317Y-73749001D01*
X89651729Y-73781704D01*
G37*
G36*
X74411729Y-71241704D02*
G01*
X74566601Y-71305854D01*
X74705982Y-71398986D01*
X74824516Y-71517520D01*
X74917648Y-71656901D01*
X74981798Y-71811773D01*
X75014501Y-71976185D01*
X75014501Y-72143817D01*
X74981798Y-72308229D01*
X74917648Y-72463101D01*
X74824516Y-72602482D01*
X74705982Y-72721016D01*
X74566601Y-72814148D01*
X74411729Y-72878298D01*
X74247317Y-72911001D01*
X74079685Y-72911001D01*
X73915273Y-72878298D01*
X73760401Y-72814148D01*
X73621020Y-72721016D01*
X73502486Y-72602482D01*
X73409354Y-72463101D01*
X73345204Y-72308229D01*
X73312501Y-72143817D01*
X73312501Y-71976185D01*
X73345204Y-71811773D01*
X73409354Y-71656901D01*
X73502486Y-71517520D01*
X73621020Y-71398986D01*
X73760401Y-71305854D01*
X73915273Y-71241704D01*
X74079685Y-71209001D01*
X74247317Y-71209001D01*
X74411729Y-71241704D01*
G37*
G36*
X89651729Y-71241704D02*
G01*
X89806601Y-71305854D01*
X89945982Y-71398986D01*
X90064516Y-71517520D01*
X90157648Y-71656901D01*
X90221798Y-71811773D01*
X90254501Y-71976185D01*
X90254501Y-72143817D01*
X90221798Y-72308229D01*
X90157648Y-72463101D01*
X90064516Y-72602482D01*
X89945982Y-72721016D01*
X89806601Y-72814148D01*
X89651729Y-72878298D01*
X89487317Y-72911001D01*
X89319685Y-72911001D01*
X89155273Y-72878298D01*
X89000401Y-72814148D01*
X88861020Y-72721016D01*
X88742486Y-72602482D01*
X88649354Y-72463101D01*
X88585204Y-72308229D01*
X88552501Y-72143817D01*
X88552501Y-71976185D01*
X88585204Y-71811773D01*
X88649354Y-71656901D01*
X88742486Y-71517520D01*
X88861020Y-71398986D01*
X89000401Y-71305854D01*
X89155273Y-71241704D01*
X89319685Y-71209001D01*
X89487317Y-71209001D01*
X89651729Y-71241704D01*
G37*
G36*
X89651729Y-68701704D02*
G01*
X89806601Y-68765854D01*
X89945982Y-68858986D01*
X90064516Y-68977520D01*
X90157648Y-69116901D01*
X90221798Y-69271773D01*
X90254501Y-69436185D01*
X90254501Y-69603817D01*
X90221798Y-69768229D01*
X90157648Y-69923101D01*
X90064516Y-70062482D01*
X89945982Y-70181016D01*
X89806601Y-70274148D01*
X89651729Y-70338298D01*
X89487317Y-70371001D01*
X89319685Y-70371001D01*
X89155273Y-70338298D01*
X89000401Y-70274148D01*
X88861020Y-70181016D01*
X88742486Y-70062482D01*
X88649354Y-69923101D01*
X88585204Y-69768229D01*
X88552501Y-69603817D01*
X88552501Y-69436185D01*
X88585204Y-69271773D01*
X88649354Y-69116901D01*
X88742486Y-68977520D01*
X88861020Y-68858986D01*
X89000401Y-68765854D01*
X89155273Y-68701704D01*
X89319685Y-68669001D01*
X89487317Y-68669001D01*
X89651729Y-68701704D01*
G37*
G36*
X75014501Y-70371001D02*
G01*
X73312501Y-70371001D01*
X73312501Y-68669001D01*
X75014501Y-68669001D01*
X75014501Y-70371001D01*
G37*
G36*
X86626000Y-69798500D02*
G01*
X84824000Y-69798500D01*
X84824000Y-67996500D01*
X86626000Y-67996500D01*
X86626000Y-69798500D01*
G37*
G36*
X80758512Y-68001427D02*
G01*
X80907812Y-68031124D01*
X81071784Y-68099044D01*
X81219354Y-68197647D01*
X81344853Y-68323146D01*
X81443456Y-68470716D01*
X81511376Y-68634688D01*
X81546000Y-68808759D01*
X81546000Y-68986241D01*
X81511376Y-69160312D01*
X81443456Y-69324284D01*
X81344853Y-69471854D01*
X81219354Y-69597353D01*
X81071784Y-69695956D01*
X80907812Y-69763876D01*
X80758512Y-69793573D01*
X80733742Y-69798500D01*
X80556258Y-69798500D01*
X80531488Y-69793573D01*
X80382188Y-69763876D01*
X80218216Y-69695956D01*
X80070646Y-69597353D01*
X79945147Y-69471854D01*
X79846544Y-69324284D01*
X79778624Y-69160312D01*
X79744000Y-68986241D01*
X79744000Y-68808759D01*
X79778624Y-68634688D01*
X79846544Y-68470716D01*
X79945147Y-68323146D01*
X80070646Y-68197647D01*
X80218216Y-68099044D01*
X80382188Y-68031124D01*
X80531488Y-68001427D01*
X80556258Y-67996500D01*
X80733742Y-67996500D01*
X80758512Y-68001427D01*
G37*
G36*
X83298512Y-68001427D02*
G01*
X83447812Y-68031124D01*
X83611784Y-68099044D01*
X83759354Y-68197647D01*
X83884853Y-68323146D01*
X83983456Y-68470716D01*
X84051376Y-68634688D01*
X84086000Y-68808759D01*
X84086000Y-68986241D01*
X84051376Y-69160312D01*
X83983456Y-69324284D01*
X83884853Y-69471854D01*
X83759354Y-69597353D01*
X83611784Y-69695956D01*
X83447812Y-69763876D01*
X83298512Y-69793573D01*
X83273742Y-69798500D01*
X83096258Y-69798500D01*
X83071488Y-69793573D01*
X82922188Y-69763876D01*
X82758216Y-69695956D01*
X82610646Y-69597353D01*
X82485147Y-69471854D01*
X82386544Y-69324284D01*
X82318624Y-69160312D01*
X82284000Y-68986241D01*
X82284000Y-68808759D01*
X82318624Y-68634688D01*
X82386544Y-68470716D01*
X82485147Y-68323146D01*
X82610646Y-68197647D01*
X82758216Y-68099044D01*
X82922188Y-68031124D01*
X83071488Y-68001427D01*
X83096258Y-67996500D01*
X83273742Y-67996500D01*
X83298512Y-68001427D01*
G37*
M02*
