M48
; DRILL file {KiCad 5.1.5+dfsg1-2build2} date Fri 25 Aug 2023 20:20:13 BST
; FORMAT={-:-/ absolute / inch / decimal}
; #@! TF.CreationDate,2023-08-25T20:20:13+01:00
; #@! TF.GenerationSoftware,Kicad,Pcbnew,5.1.5+dfsg1-2build2
; #@! TF.FileFunction,Plated,1,4,PTH
FMAT,2
INCH
T1C0.0118
T2C0.0177
T3C0.0315
T4C0.0394
%
G90
G05
T1
X2.97Y-3.295
X2.975Y-2.67
X2.9752Y-3.2179
X2.98Y-3.32
X2.985Y-3.18
X2.99Y-3.2803
X2.995Y-3.015
X2.995Y-3.105
X2.9997Y-3.34
X2.9997Y-3.75
X3.015Y-3.205
X3.02Y-3.635
X3.025Y-3.2684
X3.025Y-3.865
X3.035Y-3.41
X3.05Y-3.485
X3.0544Y-2.6989
X3.065Y-2.72
X3.08Y-3.68
X3.0882Y-2.865
X3.1029Y-3.0524
X3.1089Y-3.48
X3.11Y-3.4
X3.115Y-3.755
X3.115Y-3.805
X3.1244Y-3.5129
X3.14Y-3.205
X3.155Y-3.345
X3.1671Y-3.51
X3.17Y-3.205
X3.17Y-3.245
X3.175Y-3.39
X3.2Y-3.2
X3.2111Y-3.385
X3.2219Y-3.4981
X3.24Y-3.19
X3.245Y-3.34
X3.25Y-3.245
X3.2624Y-3.1975
X3.2787Y-3.3739
X3.28Y-3.805
X3.285Y-3.3
X3.2937Y-3.3935
X3.295Y-3.195
X3.297Y-3.2797
X3.3Y-2.76
X3.3041Y-3.755
X3.305Y-3.11
X3.305Y-3.33
X3.3198Y-3.675
X3.3494Y-3.0017
X3.36Y-2.87
X3.3615Y-3.6852
X3.3723Y-3.3025
X3.375Y-3.185
X3.375Y-3.27
X3.3838Y-3.6503
X3.3909Y-3.2074
X3.3997Y-3.5049
X3.4Y-3.415
X3.4014Y-3.2745
X3.41Y-2.845
X3.415Y-2.99
X3.42Y-3.395
X3.4219Y-3.3021
X3.4225Y-3.11
X3.4382Y-3.8
X3.4397Y-3.58
X3.44Y-2.83
X3.45Y-3.66
X3.4621Y-3.3579
X3.4632Y-3.3311
X3.55Y-3.28
X3.5683Y-3.185
X3.5683Y-3.585
T3
X2.9198Y-2.737
X2.9198Y-2.837
X2.9198Y-2.937
X2.9198Y-3.037
X2.9198Y-3.137
X2.9198Y-3.237
X2.9198Y-3.337
X2.9198Y-3.437
X2.9198Y-3.537
X2.9198Y-3.637
X2.9198Y-3.737
X2.9198Y-3.837
X2.9198Y-3.937
X2.9198Y-4.037
X3.5198Y-2.737
X3.5198Y-2.837
X3.5198Y-2.937
X3.5198Y-3.037
X3.5198Y-3.137
X3.5198Y-3.237
X3.5198Y-3.337
X3.5198Y-3.437
X3.5198Y-3.537
X3.5198Y-3.637
X3.5198Y-3.737
X3.5198Y-3.837
X3.5198Y-3.937
X3.5198Y-4.037
T4
X3.175Y-2.7125
X3.275Y-2.7125
X3.375Y-2.7125
T2
G00X3.0718Y-4.073
M15
G01X3.0718Y-4.0415
M16
G05
G00X3.3532Y-4.0415
M15
G01X3.3532Y-4.073
M16
G05
T0
M30
