G04 #@! TF.GenerationSoftware,KiCad,Pcbnew,5.1.5+dfsg1-2build2*
G04 #@! TF.CreationDate,2023-08-25T20:20:15+01:00*
G04 #@! TF.ProjectId,pico-sp0256,7069636f-2d73-4703-9032-35362e6b6963,rev?*
G04 #@! TF.SameCoordinates,Original*
G04 #@! TF.FileFunction,Legend,Bot*
G04 #@! TF.FilePolarity,Positive*
%FSLAX46Y46*%
G04 Gerber Fmt 4.6, Leading zero omitted, Abs format (unit mm)*
G04 Created by KiCad (PCBNEW 5.1.5+dfsg1-2build2) date 2023-08-25 20:20:15*
%MOMM*%
%LPD*%
G04 APERTURE LIST*
%ADD10C,0.120000*%
%ADD11C,0.150000*%
G04 APERTURE END LIST*
D10*
X79728500Y-72882000D02*
X83628500Y-72882000D01*
X79728500Y-70882000D02*
X83628500Y-70882000D01*
X79728500Y-72882000D02*
X79728500Y-70882000D01*
X85931500Y-78395000D02*
X85931500Y-82295000D01*
X87931500Y-78395000D02*
X87931500Y-82295000D01*
X85931500Y-78395000D02*
X87931500Y-78395000D01*
X76481500Y-80054500D02*
X82491500Y-80054500D01*
X78731500Y-73234500D02*
X82491500Y-73234500D01*
X82491500Y-80054500D02*
X82491500Y-78794500D01*
X82491500Y-73234500D02*
X82491500Y-74494500D01*
X82188164Y-88032000D02*
X82403836Y-88032000D01*
X82188164Y-88752000D02*
X82403836Y-88752000D01*
X78593836Y-88752000D02*
X78378164Y-88752000D01*
X78593836Y-88032000D02*
X78378164Y-88032000D01*
X83458164Y-78761000D02*
X83673836Y-78761000D01*
X83458164Y-79481000D02*
X83673836Y-79481000D01*
X80283164Y-88032000D02*
X80498836Y-88032000D01*
X80283164Y-88752000D02*
X80498836Y-88752000D01*
X80878000Y-81807164D02*
X80878000Y-82022836D01*
X80158000Y-81807164D02*
X80158000Y-82022836D01*
X81934164Y-85619000D02*
X82149836Y-85619000D01*
X81934164Y-86339000D02*
X82149836Y-86339000D01*
X87539500Y-73906748D02*
X87539500Y-74429252D01*
X86069500Y-73906748D02*
X86069500Y-74429252D01*
X75719000Y-71444752D02*
X75719000Y-70922248D01*
X77189000Y-71444752D02*
X77189000Y-70922248D01*
D11*
X85606666Y-72833666D02*
X85606666Y-72133666D01*
X85440000Y-72133666D01*
X85340000Y-72167000D01*
X85273333Y-72233666D01*
X85240000Y-72300333D01*
X85206666Y-72433666D01*
X85206666Y-72533666D01*
X85240000Y-72667000D01*
X85273333Y-72733666D01*
X85340000Y-72800333D01*
X85440000Y-72833666D01*
X85606666Y-72833666D01*
X84940000Y-72200333D02*
X84906666Y-72167000D01*
X84840000Y-72133666D01*
X84673333Y-72133666D01*
X84606666Y-72167000D01*
X84573333Y-72200333D01*
X84540000Y-72267000D01*
X84540000Y-72333666D01*
X84573333Y-72433666D01*
X84973333Y-72833666D01*
X84540000Y-72833666D01*
X87057666Y-83430333D02*
X86357666Y-83430333D01*
X86357666Y-83597000D01*
X86391000Y-83697000D01*
X86457666Y-83763666D01*
X86524333Y-83797000D01*
X86657666Y-83830333D01*
X86757666Y-83830333D01*
X86891000Y-83797000D01*
X86957666Y-83763666D01*
X87024333Y-83697000D01*
X87057666Y-83597000D01*
X87057666Y-83430333D01*
X87057666Y-84497000D02*
X87057666Y-84097000D01*
X87057666Y-84297000D02*
X86357666Y-84297000D01*
X86457666Y-84230333D01*
X86524333Y-84163666D01*
X86557666Y-84097000D01*
X81114833Y-80761166D02*
X81114833Y-81327833D01*
X81081500Y-81394500D01*
X81048166Y-81427833D01*
X80981500Y-81461166D01*
X80848166Y-81461166D01*
X80781500Y-81427833D01*
X80748166Y-81394500D01*
X80714833Y-81327833D01*
X80714833Y-80761166D01*
X80448166Y-80761166D02*
X80014833Y-80761166D01*
X80248166Y-81027833D01*
X80148166Y-81027833D01*
X80081500Y-81061166D01*
X80048166Y-81094500D01*
X80014833Y-81161166D01*
X80014833Y-81327833D01*
X80048166Y-81394500D01*
X80081500Y-81427833D01*
X80148166Y-81461166D01*
X80348166Y-81461166D01*
X80414833Y-81427833D01*
X80448166Y-81394500D01*
X82746000Y-89802000D02*
X82779333Y-89835333D01*
X82879333Y-89868666D01*
X82946000Y-89868666D01*
X83046000Y-89835333D01*
X83112666Y-89768666D01*
X83146000Y-89702000D01*
X83179333Y-89568666D01*
X83179333Y-89468666D01*
X83146000Y-89335333D01*
X83112666Y-89268666D01*
X83046000Y-89202000D01*
X82946000Y-89168666D01*
X82879333Y-89168666D01*
X82779333Y-89202000D01*
X82746000Y-89235333D01*
X82079333Y-89868666D02*
X82479333Y-89868666D01*
X82279333Y-89868666D02*
X82279333Y-89168666D01*
X82346000Y-89268666D01*
X82412666Y-89335333D01*
X82479333Y-89368666D01*
X81412666Y-89868666D02*
X81812666Y-89868666D01*
X81612666Y-89868666D02*
X81612666Y-89168666D01*
X81679333Y-89268666D01*
X81746000Y-89335333D01*
X81812666Y-89368666D01*
X78936000Y-87482000D02*
X78969333Y-87515333D01*
X79069333Y-87548666D01*
X79136000Y-87548666D01*
X79236000Y-87515333D01*
X79302666Y-87448666D01*
X79336000Y-87382000D01*
X79369333Y-87248666D01*
X79369333Y-87148666D01*
X79336000Y-87015333D01*
X79302666Y-86948666D01*
X79236000Y-86882000D01*
X79136000Y-86848666D01*
X79069333Y-86848666D01*
X78969333Y-86882000D01*
X78936000Y-86915333D01*
X78269333Y-87548666D02*
X78669333Y-87548666D01*
X78469333Y-87548666D02*
X78469333Y-86848666D01*
X78536000Y-86948666D01*
X78602666Y-87015333D01*
X78669333Y-87048666D01*
X77836000Y-86848666D02*
X77769333Y-86848666D01*
X77702666Y-86882000D01*
X77669333Y-86915333D01*
X77636000Y-86982000D01*
X77602666Y-87115333D01*
X77602666Y-87282000D01*
X77636000Y-87415333D01*
X77669333Y-87482000D01*
X77702666Y-87515333D01*
X77769333Y-87548666D01*
X77836000Y-87548666D01*
X77902666Y-87515333D01*
X77936000Y-87482000D01*
X77969333Y-87415333D01*
X78002666Y-87282000D01*
X78002666Y-87115333D01*
X77969333Y-86982000D01*
X77936000Y-86915333D01*
X77902666Y-86882000D01*
X77836000Y-86848666D01*
X85460666Y-79371000D02*
X85494000Y-79404333D01*
X85594000Y-79437666D01*
X85660666Y-79437666D01*
X85760666Y-79404333D01*
X85827333Y-79337666D01*
X85860666Y-79271000D01*
X85894000Y-79137666D01*
X85894000Y-79037666D01*
X85860666Y-78904333D01*
X85827333Y-78837666D01*
X85760666Y-78771000D01*
X85660666Y-78737666D01*
X85594000Y-78737666D01*
X85494000Y-78771000D01*
X85460666Y-78804333D01*
X85127333Y-79437666D02*
X84994000Y-79437666D01*
X84927333Y-79404333D01*
X84894000Y-79371000D01*
X84827333Y-79271000D01*
X84794000Y-79137666D01*
X84794000Y-78871000D01*
X84827333Y-78804333D01*
X84860666Y-78771000D01*
X84927333Y-78737666D01*
X85060666Y-78737666D01*
X85127333Y-78771000D01*
X85160666Y-78804333D01*
X85194000Y-78871000D01*
X85194000Y-79037666D01*
X85160666Y-79104333D01*
X85127333Y-79137666D01*
X85060666Y-79171000D01*
X84927333Y-79171000D01*
X84860666Y-79137666D01*
X84827333Y-79104333D01*
X84794000Y-79037666D01*
X80507666Y-89802000D02*
X80541000Y-89835333D01*
X80641000Y-89868666D01*
X80707666Y-89868666D01*
X80807666Y-89835333D01*
X80874333Y-89768666D01*
X80907666Y-89702000D01*
X80941000Y-89568666D01*
X80941000Y-89468666D01*
X80907666Y-89335333D01*
X80874333Y-89268666D01*
X80807666Y-89202000D01*
X80707666Y-89168666D01*
X80641000Y-89168666D01*
X80541000Y-89202000D01*
X80507666Y-89235333D01*
X80107666Y-89468666D02*
X80174333Y-89435333D01*
X80207666Y-89402000D01*
X80241000Y-89335333D01*
X80241000Y-89302000D01*
X80207666Y-89235333D01*
X80174333Y-89202000D01*
X80107666Y-89168666D01*
X79974333Y-89168666D01*
X79907666Y-89202000D01*
X79874333Y-89235333D01*
X79841000Y-89302000D01*
X79841000Y-89335333D01*
X79874333Y-89402000D01*
X79907666Y-89435333D01*
X79974333Y-89468666D01*
X80107666Y-89468666D01*
X80174333Y-89502000D01*
X80207666Y-89535333D01*
X80241000Y-89602000D01*
X80241000Y-89735333D01*
X80207666Y-89802000D01*
X80174333Y-89835333D01*
X80107666Y-89868666D01*
X79974333Y-89868666D01*
X79907666Y-89835333D01*
X79874333Y-89802000D01*
X79841000Y-89735333D01*
X79841000Y-89602000D01*
X79874333Y-89535333D01*
X79907666Y-89502000D01*
X79974333Y-89468666D01*
X79608000Y-81798333D02*
X79641333Y-81765000D01*
X79674666Y-81665000D01*
X79674666Y-81598333D01*
X79641333Y-81498333D01*
X79574666Y-81431666D01*
X79508000Y-81398333D01*
X79374666Y-81365000D01*
X79274666Y-81365000D01*
X79141333Y-81398333D01*
X79074666Y-81431666D01*
X79008000Y-81498333D01*
X78974666Y-81598333D01*
X78974666Y-81665000D01*
X79008000Y-81765000D01*
X79041333Y-81798333D01*
X78974666Y-82031666D02*
X78974666Y-82498333D01*
X79674666Y-82198333D01*
X82158666Y-87389000D02*
X82192000Y-87422333D01*
X82292000Y-87455666D01*
X82358666Y-87455666D01*
X82458666Y-87422333D01*
X82525333Y-87355666D01*
X82558666Y-87289000D01*
X82592000Y-87155666D01*
X82592000Y-87055666D01*
X82558666Y-86922333D01*
X82525333Y-86855666D01*
X82458666Y-86789000D01*
X82358666Y-86755666D01*
X82292000Y-86755666D01*
X82192000Y-86789000D01*
X82158666Y-86822333D01*
X81558666Y-86755666D02*
X81692000Y-86755666D01*
X81758666Y-86789000D01*
X81792000Y-86822333D01*
X81858666Y-86922333D01*
X81892000Y-87055666D01*
X81892000Y-87322333D01*
X81858666Y-87389000D01*
X81825333Y-87422333D01*
X81758666Y-87455666D01*
X81625333Y-87455666D01*
X81558666Y-87422333D01*
X81525333Y-87389000D01*
X81492000Y-87322333D01*
X81492000Y-87155666D01*
X81525333Y-87089000D01*
X81558666Y-87055666D01*
X81625333Y-87022333D01*
X81758666Y-87022333D01*
X81825333Y-87055666D01*
X81858666Y-87089000D01*
X81892000Y-87155666D01*
X86864000Y-71257333D02*
X86897333Y-71224000D01*
X86930666Y-71124000D01*
X86930666Y-71057333D01*
X86897333Y-70957333D01*
X86830666Y-70890666D01*
X86764000Y-70857333D01*
X86630666Y-70824000D01*
X86530666Y-70824000D01*
X86397333Y-70857333D01*
X86330666Y-70890666D01*
X86264000Y-70957333D01*
X86230666Y-71057333D01*
X86230666Y-71124000D01*
X86264000Y-71224000D01*
X86297333Y-71257333D01*
X86230666Y-71890666D02*
X86230666Y-71557333D01*
X86564000Y-71524000D01*
X86530666Y-71557333D01*
X86497333Y-71624000D01*
X86497333Y-71790666D01*
X86530666Y-71857333D01*
X86564000Y-71890666D01*
X86630666Y-71924000D01*
X86797333Y-71924000D01*
X86864000Y-71890666D01*
X86897333Y-71857333D01*
X86930666Y-71790666D01*
X86930666Y-71624000D01*
X86897333Y-71557333D01*
X86864000Y-71524000D01*
X78384000Y-71066833D02*
X78417333Y-71033500D01*
X78450666Y-70933500D01*
X78450666Y-70866833D01*
X78417333Y-70766833D01*
X78350666Y-70700166D01*
X78284000Y-70666833D01*
X78150666Y-70633500D01*
X78050666Y-70633500D01*
X77917333Y-70666833D01*
X77850666Y-70700166D01*
X77784000Y-70766833D01*
X77750666Y-70866833D01*
X77750666Y-70933500D01*
X77784000Y-71033500D01*
X77817333Y-71066833D01*
X77984000Y-71666833D02*
X78450666Y-71666833D01*
X77717333Y-71500166D02*
X78217333Y-71333500D01*
X78217333Y-71766833D01*
M02*
