G04 #@! TF.GenerationSoftware,KiCad,Pcbnew,5.1.5+dfsg1-2build2*
G04 #@! TF.CreationDate,2023-08-25T20:20:15+01:00*
G04 #@! TF.ProjectId,pico-sp0256,7069636f-2d73-4703-9032-35362e6b6963,rev?*
G04 #@! TF.SameCoordinates,Original*
G04 #@! TF.FileFunction,Copper,L3,Inr*
G04 #@! TF.FilePolarity,Positive*
%FSLAX46Y46*%
G04 Gerber Fmt 4.6, Leading zero omitted, Abs format (unit mm)*
G04 Created by KiCad (PCBNEW 5.1.5+dfsg1-2build2) date 2023-08-25 20:20:15*
%MOMM*%
%LPD*%
G04 APERTURE LIST*
%ADD10O,1.600000X1.600000*%
%ADD11R,1.600000X1.600000*%
%ADD12O,1.700000X1.700000*%
%ADD13R,1.700000X1.700000*%
%ADD14O,1.050000X1.900000*%
%ADD15C,0.400000*%
%ADD16C,0.200000*%
%ADD17C,0.254000*%
G04 APERTURE END LIST*
D10*
X89403501Y-69520001D03*
X74163501Y-102540001D03*
X89403501Y-72060001D03*
X74163501Y-100000001D03*
X89403501Y-74600001D03*
X74163501Y-97460001D03*
X89403501Y-77140001D03*
X74163501Y-94920001D03*
X89403501Y-79680001D03*
X74163501Y-92380001D03*
X89403501Y-82220001D03*
X74163501Y-89840001D03*
X89403501Y-84760001D03*
X74163501Y-87300001D03*
X89403501Y-87300001D03*
X74163501Y-84760001D03*
X89403501Y-89840001D03*
X74163501Y-82220001D03*
X89403501Y-92380001D03*
X74163501Y-79680001D03*
X89403501Y-94920001D03*
X74163501Y-77140001D03*
X89403501Y-97460001D03*
X74163501Y-74600001D03*
X89403501Y-100000001D03*
X74163501Y-72060001D03*
X89403501Y-102540001D03*
D11*
X74163501Y-69520001D03*
D12*
X80645000Y-68897500D03*
X83185000Y-68897500D03*
D13*
X85725000Y-68897500D03*
D14*
X85172500Y-103054000D03*
X78022500Y-103054000D03*
D15*
X82550000Y-82423000D03*
X80518000Y-82423000D03*
X80137000Y-84963000D03*
X82423000Y-84836000D03*
X85381402Y-93604999D03*
X86351753Y-89023260D03*
X77470000Y-88519000D03*
X80443500Y-89154000D03*
X83820000Y-70104000D03*
X86741000Y-75946000D03*
X83947000Y-78994000D03*
X82296000Y-81026000D03*
X78814499Y-77531451D03*
X76073000Y-78867000D03*
X76581000Y-81407001D03*
X83279610Y-85696364D03*
X78966000Y-88392000D03*
X80645000Y-86106000D03*
X77089000Y-86614000D03*
X78994000Y-86360000D03*
X81835804Y-88852196D03*
X76835000Y-98171000D03*
X87329999Y-96520000D03*
X85725000Y-83058000D03*
X85075042Y-76242050D03*
X86614000Y-72263000D03*
X86360000Y-86741000D03*
X76073000Y-76581000D03*
X81280000Y-81280000D03*
X76835000Y-83018148D03*
X79358596Y-89228577D03*
X81562000Y-85979000D03*
X80518000Y-81407000D03*
X87376000Y-71882000D03*
X86931500Y-78995000D03*
X77851000Y-69088000D03*
X75819000Y-80772000D03*
X75565000Y-67818000D03*
X79756000Y-81407000D03*
X83947000Y-84582000D03*
X75692000Y-84328000D03*
X83439000Y-83820000D03*
X75438000Y-83693000D03*
X76192000Y-84836000D03*
X76192000Y-95250000D03*
X85657519Y-83882686D03*
X85725000Y-80899000D03*
X83745028Y-83303910D03*
X75947235Y-83320000D03*
X76708000Y-92329000D03*
X87368000Y-90932000D03*
X90634000Y-91059000D03*
X87937904Y-85290095D03*
X85344000Y-72898000D03*
X78439490Y-72771000D03*
X77582671Y-68551342D03*
X87965029Y-84610113D03*
X86129548Y-81468283D03*
X90634000Y-80899000D03*
X83693000Y-81153000D03*
X82865212Y-81215737D03*
X75569172Y-81735224D03*
X86394325Y-83172382D03*
X90170000Y-83312000D03*
X86917189Y-83872381D03*
X85949235Y-92718598D03*
X87630000Y-92964000D03*
X83312000Y-96647000D03*
X79121000Y-96647000D03*
X83923010Y-95377000D03*
X79121000Y-95377000D03*
X84323020Y-93345000D03*
X78232000Y-93472000D03*
X83659971Y-86194962D03*
X86868000Y-86233000D03*
D16*
X86759806Y-84455000D02*
X86934110Y-84455000D01*
X86417188Y-83902353D02*
X86417188Y-84112382D01*
X85894324Y-83379489D02*
X86417188Y-83902353D01*
X85894324Y-83100324D02*
X85894324Y-83379489D01*
X85852000Y-83058000D02*
X85894324Y-83100324D01*
X86417188Y-84112382D02*
X86759806Y-84455000D01*
X85725000Y-83058000D02*
X85852000Y-83058000D01*
X86934110Y-84455000D02*
X87037893Y-84558783D01*
X87037893Y-84558783D02*
X86367999Y-85228677D01*
X86367999Y-86733001D02*
X86360000Y-86741000D01*
X86367999Y-85228677D02*
X86367999Y-86733001D01*
X79748001Y-83177001D02*
X78878011Y-82307011D01*
X82536001Y-83177001D02*
X79748001Y-83177001D01*
X83105213Y-82607789D02*
X82536001Y-83177001D01*
X83105213Y-81740787D02*
X83105213Y-82607789D01*
X83693000Y-81153000D02*
X83105213Y-81740787D01*
X73363502Y-89040002D02*
X74163501Y-89840001D01*
X73063500Y-88740000D02*
X73363502Y-89040002D01*
X73063500Y-84232000D02*
X73063500Y-88740000D01*
X73707502Y-83587998D02*
X73063500Y-84232000D01*
X74803000Y-83587998D02*
X73707502Y-83587998D01*
X76083987Y-82307011D02*
X74803000Y-83587998D01*
X78878011Y-82307011D02*
X76083987Y-82307011D01*
X75661222Y-81735224D02*
X75569172Y-81735224D01*
X79573697Y-82436999D02*
X79043700Y-81907001D01*
X75826999Y-81907001D02*
X75819000Y-81915000D01*
X79043700Y-81907001D02*
X75826999Y-81907001D01*
X75819000Y-81915000D02*
X75661222Y-81735224D01*
X75832999Y-81907001D02*
X75819000Y-81915000D01*
X80277999Y-81922999D02*
X80906999Y-81922999D01*
X80017999Y-82182999D02*
X80277999Y-81922999D01*
X80017999Y-82415001D02*
X80017999Y-82182999D01*
X79996001Y-82436999D02*
X80017999Y-82415001D01*
X79573697Y-82436999D02*
X79996001Y-82436999D01*
X81153000Y-82169000D02*
X82063998Y-82169000D01*
X80906999Y-81922999D02*
X81153000Y-82169000D01*
X82063998Y-82016951D02*
X82865212Y-81215737D01*
X82063998Y-82169000D02*
X82063998Y-82016951D01*
X87437903Y-84393095D02*
X86917189Y-83872381D01*
X87437903Y-90261901D02*
X87437903Y-84393095D01*
X88603502Y-91427500D02*
X87437903Y-90261901D01*
X88603502Y-91580002D02*
X88603502Y-91427500D01*
X89403501Y-92380001D02*
X88603502Y-91580002D01*
D17*
G36*
X77050390Y-67902755D02*
G01*
X76934084Y-68019061D01*
X76842704Y-68155821D01*
X76779760Y-68307782D01*
X76747671Y-68469102D01*
X76747671Y-68633582D01*
X76779760Y-68794902D01*
X76842704Y-68946863D01*
X76934084Y-69083623D01*
X77016000Y-69165539D01*
X77016000Y-69170240D01*
X77048089Y-69331560D01*
X77111033Y-69483521D01*
X77202413Y-69620281D01*
X77318719Y-69736587D01*
X77455479Y-69827967D01*
X77607440Y-69890911D01*
X77768760Y-69923000D01*
X77933240Y-69923000D01*
X78094560Y-69890911D01*
X78246521Y-69827967D01*
X78383281Y-69736587D01*
X78499587Y-69620281D01*
X78590967Y-69483521D01*
X78653911Y-69331560D01*
X78686000Y-69170240D01*
X78686000Y-69005760D01*
X78653911Y-68844440D01*
X78590967Y-68692479D01*
X78499587Y-68555719D01*
X78417671Y-68473803D01*
X78417671Y-68469102D01*
X78385582Y-68307782D01*
X78322638Y-68155821D01*
X78231258Y-68019061D01*
X78114952Y-67902755D01*
X78025522Y-67843000D01*
X79599393Y-67843000D01*
X79491525Y-67950868D01*
X79329010Y-68194089D01*
X79217068Y-68464342D01*
X79160000Y-68751240D01*
X79160000Y-69043760D01*
X79217068Y-69330658D01*
X79329010Y-69600911D01*
X79491525Y-69844132D01*
X79698368Y-70050975D01*
X79941589Y-70213490D01*
X80211842Y-70325432D01*
X80498740Y-70382500D01*
X80791260Y-70382500D01*
X81078158Y-70325432D01*
X81348411Y-70213490D01*
X81591632Y-70050975D01*
X81798475Y-69844132D01*
X81915000Y-69669740D01*
X82031525Y-69844132D01*
X82238368Y-70050975D01*
X82481589Y-70213490D01*
X82751842Y-70325432D01*
X83030917Y-70380944D01*
X83080033Y-70499521D01*
X83171413Y-70636281D01*
X83287719Y-70752587D01*
X83424479Y-70843967D01*
X83576440Y-70906911D01*
X83737760Y-70939000D01*
X83902240Y-70939000D01*
X84063560Y-70906911D01*
X84215521Y-70843967D01*
X84352281Y-70752587D01*
X84468587Y-70636281D01*
X84559967Y-70499521D01*
X84622911Y-70347560D01*
X84625569Y-70334195D01*
X84630820Y-70337002D01*
X84750518Y-70373312D01*
X84875000Y-70385572D01*
X86575000Y-70385572D01*
X86699482Y-70373312D01*
X86819180Y-70337002D01*
X86929494Y-70278037D01*
X87026185Y-70198685D01*
X87105537Y-70101994D01*
X87164502Y-69991680D01*
X87200812Y-69871982D01*
X87213072Y-69747500D01*
X87213072Y-68047500D01*
X87200812Y-67923018D01*
X87176539Y-67843000D01*
X90399000Y-67843000D01*
X90399000Y-68486104D01*
X90318260Y-68405364D01*
X90083228Y-68248321D01*
X89822075Y-68140148D01*
X89544836Y-68085001D01*
X89262166Y-68085001D01*
X88984927Y-68140148D01*
X88723774Y-68248321D01*
X88488742Y-68405364D01*
X88288864Y-68605242D01*
X88131821Y-68840274D01*
X88023648Y-69101427D01*
X87968501Y-69378666D01*
X87968501Y-69661336D01*
X88023648Y-69938575D01*
X88131821Y-70199728D01*
X88288864Y-70434760D01*
X88488742Y-70634638D01*
X88721260Y-70790001D01*
X88488742Y-70945364D01*
X88288864Y-71145242D01*
X88131821Y-71380274D01*
X88098597Y-71460483D01*
X88024587Y-71349719D01*
X87908281Y-71233413D01*
X87771521Y-71142033D01*
X87619560Y-71079089D01*
X87458240Y-71047000D01*
X87293760Y-71047000D01*
X87132440Y-71079089D01*
X86980479Y-71142033D01*
X86843719Y-71233413D01*
X86727413Y-71349719D01*
X86636033Y-71486479D01*
X86573089Y-71638440D01*
X86541000Y-71799760D01*
X86541000Y-71964240D01*
X86573089Y-72125560D01*
X86636033Y-72277521D01*
X86727413Y-72414281D01*
X86843719Y-72530587D01*
X86980479Y-72621967D01*
X87132440Y-72684911D01*
X87293760Y-72717000D01*
X87458240Y-72717000D01*
X87619560Y-72684911D01*
X87771521Y-72621967D01*
X87908281Y-72530587D01*
X88013137Y-72425731D01*
X88023648Y-72478575D01*
X88131821Y-72739728D01*
X88288864Y-72974760D01*
X88488742Y-73174638D01*
X88721260Y-73330001D01*
X88488742Y-73485364D01*
X88288864Y-73685242D01*
X88131821Y-73920274D01*
X88023648Y-74181427D01*
X87968501Y-74458666D01*
X87968501Y-74741336D01*
X88023648Y-75018575D01*
X88131821Y-75279728D01*
X88288864Y-75514760D01*
X88488742Y-75714638D01*
X88721260Y-75870001D01*
X88488742Y-76025364D01*
X88288864Y-76225242D01*
X88131821Y-76460274D01*
X88023648Y-76721427D01*
X87968501Y-76998666D01*
X87968501Y-77281336D01*
X88023648Y-77558575D01*
X88131821Y-77819728D01*
X88288864Y-78054760D01*
X88488742Y-78254638D01*
X88721260Y-78410001D01*
X88488742Y-78565364D01*
X88288864Y-78765242D01*
X88131821Y-79000274D01*
X88023648Y-79261427D01*
X87968501Y-79538666D01*
X87968501Y-79821336D01*
X88023648Y-80098575D01*
X88131821Y-80359728D01*
X88288864Y-80594760D01*
X88488742Y-80794638D01*
X88721260Y-80950001D01*
X88488742Y-81105364D01*
X88288864Y-81305242D01*
X88131821Y-81540274D01*
X88023648Y-81801427D01*
X87968501Y-82078666D01*
X87968501Y-82361336D01*
X88023648Y-82638575D01*
X88131821Y-82899728D01*
X88288864Y-83134760D01*
X88488742Y-83334638D01*
X88721260Y-83490001D01*
X88488742Y-83645364D01*
X88292250Y-83841856D01*
X88208589Y-83807202D01*
X88047269Y-83775113D01*
X87882789Y-83775113D01*
X87863254Y-83778999D01*
X87721844Y-83637590D01*
X87720100Y-83628821D01*
X87657156Y-83476860D01*
X87565776Y-83340100D01*
X87449470Y-83223794D01*
X87312710Y-83132414D01*
X87229325Y-83097875D01*
X87229325Y-83090142D01*
X87197236Y-82928822D01*
X87134292Y-82776861D01*
X87042912Y-82640101D01*
X86926606Y-82523795D01*
X86789846Y-82432415D01*
X86637885Y-82369471D01*
X86476565Y-82337382D01*
X86312085Y-82337382D01*
X86150765Y-82369471D01*
X85998804Y-82432415D01*
X85862044Y-82523795D01*
X85745738Y-82640101D01*
X85654358Y-82776861D01*
X85591414Y-82928822D01*
X85567461Y-83049241D01*
X85413959Y-83079775D01*
X85261998Y-83142719D01*
X85125238Y-83234099D01*
X85008932Y-83350405D01*
X84917552Y-83487165D01*
X84854608Y-83639126D01*
X84822519Y-83800446D01*
X84822519Y-83964926D01*
X84854608Y-84126246D01*
X84917552Y-84278207D01*
X85008932Y-84414967D01*
X85125238Y-84531273D01*
X85261998Y-84622653D01*
X85413959Y-84685597D01*
X85575279Y-84717686D01*
X85739759Y-84717686D01*
X85901079Y-84685597D01*
X86053040Y-84622653D01*
X86189800Y-84531273D01*
X86292507Y-84428567D01*
X86384908Y-84520968D01*
X86521668Y-84612348D01*
X86673629Y-84675292D01*
X86682398Y-84677036D01*
X86702904Y-84697543D01*
X86702904Y-85414481D01*
X86624440Y-85430089D01*
X86472479Y-85493033D01*
X86335719Y-85584413D01*
X86219413Y-85700719D01*
X86128033Y-85837479D01*
X86065089Y-85989440D01*
X86033000Y-86150760D01*
X86033000Y-86315240D01*
X86065089Y-86476560D01*
X86128033Y-86628521D01*
X86219413Y-86765281D01*
X86335719Y-86881587D01*
X86472479Y-86972967D01*
X86624440Y-87035911D01*
X86702904Y-87051519D01*
X86702903Y-88264914D01*
X86595313Y-88220349D01*
X86433993Y-88188260D01*
X86269513Y-88188260D01*
X86108193Y-88220349D01*
X85956232Y-88283293D01*
X85819472Y-88374673D01*
X85703166Y-88490979D01*
X85611786Y-88627739D01*
X85548842Y-88779700D01*
X85516753Y-88941020D01*
X85516753Y-89105500D01*
X85548842Y-89266820D01*
X85611786Y-89418781D01*
X85703166Y-89555541D01*
X85819472Y-89671847D01*
X85956232Y-89763227D01*
X86108193Y-89826171D01*
X86269513Y-89858260D01*
X86433993Y-89858260D01*
X86595313Y-89826171D01*
X86702903Y-89781606D01*
X86702903Y-90225796D01*
X86699347Y-90261901D01*
X86702903Y-90298005D01*
X86713538Y-90405985D01*
X86714065Y-90407723D01*
X86628033Y-90536479D01*
X86565089Y-90688440D01*
X86533000Y-90849760D01*
X86533000Y-91014240D01*
X86565089Y-91175560D01*
X86628033Y-91327521D01*
X86719413Y-91464281D01*
X86835719Y-91580587D01*
X86972479Y-91671967D01*
X87124440Y-91734911D01*
X87285760Y-91767000D01*
X87450240Y-91767000D01*
X87611560Y-91734911D01*
X87763521Y-91671967D01*
X87790497Y-91653942D01*
X87887191Y-91750635D01*
X87891886Y-91766115D01*
X87921165Y-91862634D01*
X87989415Y-91990321D01*
X88012343Y-92018259D01*
X87975531Y-92203326D01*
X87873560Y-92161089D01*
X87712240Y-92129000D01*
X87547760Y-92129000D01*
X87386440Y-92161089D01*
X87234479Y-92224033D01*
X87097719Y-92315413D01*
X86981413Y-92431719D01*
X86890033Y-92568479D01*
X86827089Y-92720440D01*
X86795000Y-92881760D01*
X86795000Y-93046240D01*
X86827089Y-93207560D01*
X86890033Y-93359521D01*
X86981413Y-93496281D01*
X87097719Y-93612587D01*
X87234479Y-93703967D01*
X87386440Y-93766911D01*
X87547760Y-93799000D01*
X87712240Y-93799000D01*
X87873560Y-93766911D01*
X88025521Y-93703967D01*
X88162281Y-93612587D01*
X88278587Y-93496281D01*
X88363421Y-93369317D01*
X88488742Y-93494638D01*
X88721260Y-93650001D01*
X88488742Y-93805364D01*
X88288864Y-94005242D01*
X88131821Y-94240274D01*
X88023648Y-94501427D01*
X87968501Y-94778666D01*
X87968501Y-95061336D01*
X88023648Y-95338575D01*
X88131821Y-95599728D01*
X88288864Y-95834760D01*
X88488742Y-96034638D01*
X88721260Y-96190001D01*
X88488742Y-96345364D01*
X88288864Y-96545242D01*
X88131821Y-96780274D01*
X88023648Y-97041427D01*
X87968501Y-97318666D01*
X87968501Y-97601336D01*
X88023648Y-97878575D01*
X88131821Y-98139728D01*
X88288864Y-98374760D01*
X88488742Y-98574638D01*
X88721260Y-98730001D01*
X88488742Y-98885364D01*
X88288864Y-99085242D01*
X88131821Y-99320274D01*
X88023648Y-99581427D01*
X87968501Y-99858666D01*
X87968501Y-100141336D01*
X88023648Y-100418575D01*
X88131821Y-100679728D01*
X88288864Y-100914760D01*
X88488742Y-101114638D01*
X88721260Y-101270001D01*
X88488742Y-101425364D01*
X88288864Y-101625242D01*
X88131821Y-101860274D01*
X88023648Y-102121427D01*
X87968501Y-102398666D01*
X87968501Y-102681336D01*
X88023648Y-102958575D01*
X88131821Y-103219728D01*
X88288864Y-103454760D01*
X88488742Y-103654638D01*
X88723774Y-103811681D01*
X88842841Y-103861000D01*
X86268817Y-103861000D01*
X86315715Y-103706400D01*
X86332500Y-103535978D01*
X86332500Y-102572021D01*
X86315715Y-102401600D01*
X86249385Y-102182940D01*
X86141671Y-101981421D01*
X85996712Y-101804788D01*
X85820078Y-101659829D01*
X85618559Y-101552115D01*
X85399899Y-101485785D01*
X85172500Y-101463388D01*
X84945100Y-101485785D01*
X84726440Y-101552115D01*
X84524921Y-101659829D01*
X84348288Y-101804788D01*
X84203329Y-101981422D01*
X84095615Y-102182941D01*
X84029285Y-102401601D01*
X84012500Y-102572022D01*
X84012500Y-103535979D01*
X84029285Y-103706400D01*
X84076183Y-103861000D01*
X79118817Y-103861000D01*
X79165715Y-103706400D01*
X79182500Y-103535979D01*
X79182500Y-102572022D01*
X79165715Y-102401600D01*
X79099385Y-102182940D01*
X78991671Y-101981421D01*
X78846712Y-101804788D01*
X78670079Y-101659829D01*
X78468560Y-101552115D01*
X78249900Y-101485785D01*
X78022500Y-101463388D01*
X77795101Y-101485785D01*
X77576441Y-101552115D01*
X77374922Y-101659829D01*
X77198289Y-101804788D01*
X77053330Y-101981421D01*
X76945615Y-102182940D01*
X76879285Y-102401600D01*
X76862500Y-102572021D01*
X76862500Y-103535978D01*
X76879285Y-103706399D01*
X76926183Y-103861000D01*
X74724161Y-103861000D01*
X74843228Y-103811681D01*
X75078260Y-103654638D01*
X75278138Y-103454760D01*
X75435181Y-103219728D01*
X75543354Y-102958575D01*
X75598501Y-102681336D01*
X75598501Y-102398666D01*
X75543354Y-102121427D01*
X75435181Y-101860274D01*
X75278138Y-101625242D01*
X75078260Y-101425364D01*
X74845742Y-101270001D01*
X75078260Y-101114638D01*
X75278138Y-100914760D01*
X75435181Y-100679728D01*
X75543354Y-100418575D01*
X75598501Y-100141336D01*
X75598501Y-99858666D01*
X75543354Y-99581427D01*
X75435181Y-99320274D01*
X75278138Y-99085242D01*
X75078260Y-98885364D01*
X74845742Y-98730001D01*
X75078260Y-98574638D01*
X75278138Y-98374760D01*
X75435181Y-98139728D01*
X75543354Y-97878575D01*
X75598501Y-97601336D01*
X75598501Y-97318666D01*
X75543354Y-97041427D01*
X75435181Y-96780274D01*
X75278138Y-96545242D01*
X75078260Y-96345364D01*
X74845742Y-96190001D01*
X75078260Y-96034638D01*
X75278138Y-95834760D01*
X75433875Y-95601683D01*
X75452033Y-95645521D01*
X75543413Y-95782281D01*
X75659719Y-95898587D01*
X75796479Y-95989967D01*
X75948440Y-96052911D01*
X76109760Y-96085000D01*
X76274240Y-96085000D01*
X76435560Y-96052911D01*
X76587521Y-95989967D01*
X76724281Y-95898587D01*
X76840587Y-95782281D01*
X76931967Y-95645521D01*
X76994911Y-95493560D01*
X77027000Y-95332240D01*
X77027000Y-95294760D01*
X78286000Y-95294760D01*
X78286000Y-95459240D01*
X78318089Y-95620560D01*
X78381033Y-95772521D01*
X78472413Y-95909281D01*
X78575132Y-96012000D01*
X78472413Y-96114719D01*
X78381033Y-96251479D01*
X78318089Y-96403440D01*
X78286000Y-96564760D01*
X78286000Y-96729240D01*
X78318089Y-96890560D01*
X78381033Y-97042521D01*
X78472413Y-97179281D01*
X78588719Y-97295587D01*
X78725479Y-97386967D01*
X78877440Y-97449911D01*
X79038760Y-97482000D01*
X79203240Y-97482000D01*
X79364560Y-97449911D01*
X79516521Y-97386967D01*
X79653281Y-97295587D01*
X79769587Y-97179281D01*
X79860967Y-97042521D01*
X79923911Y-96890560D01*
X79956000Y-96729240D01*
X79956000Y-96564760D01*
X82477000Y-96564760D01*
X82477000Y-96729240D01*
X82509089Y-96890560D01*
X82572033Y-97042521D01*
X82663413Y-97179281D01*
X82779719Y-97295587D01*
X82916479Y-97386967D01*
X83068440Y-97449911D01*
X83229760Y-97482000D01*
X83394240Y-97482000D01*
X83555560Y-97449911D01*
X83707521Y-97386967D01*
X83844281Y-97295587D01*
X83960587Y-97179281D01*
X84051967Y-97042521D01*
X84114911Y-96890560D01*
X84147000Y-96729240D01*
X84147000Y-96564760D01*
X84114911Y-96403440D01*
X84051967Y-96251479D01*
X84023202Y-96208429D01*
X84166570Y-96179911D01*
X84318531Y-96116967D01*
X84455291Y-96025587D01*
X84571597Y-95909281D01*
X84662977Y-95772521D01*
X84725921Y-95620560D01*
X84758010Y-95459240D01*
X84758010Y-95294760D01*
X84725921Y-95133440D01*
X84662977Y-94981479D01*
X84571597Y-94844719D01*
X84455291Y-94728413D01*
X84318531Y-94637033D01*
X84166570Y-94574089D01*
X84005250Y-94542000D01*
X83840770Y-94542000D01*
X83679450Y-94574089D01*
X83527489Y-94637033D01*
X83390729Y-94728413D01*
X83274423Y-94844719D01*
X83183043Y-94981479D01*
X83120099Y-95133440D01*
X83088010Y-95294760D01*
X83088010Y-95459240D01*
X83120099Y-95620560D01*
X83183043Y-95772521D01*
X83211808Y-95815571D01*
X83068440Y-95844089D01*
X82916479Y-95907033D01*
X82779719Y-95998413D01*
X82663413Y-96114719D01*
X82572033Y-96251479D01*
X82509089Y-96403440D01*
X82477000Y-96564760D01*
X79956000Y-96564760D01*
X79923911Y-96403440D01*
X79860967Y-96251479D01*
X79769587Y-96114719D01*
X79666868Y-96012000D01*
X79769587Y-95909281D01*
X79860967Y-95772521D01*
X79923911Y-95620560D01*
X79956000Y-95459240D01*
X79956000Y-95294760D01*
X79923911Y-95133440D01*
X79860967Y-94981479D01*
X79769587Y-94844719D01*
X79653281Y-94728413D01*
X79516521Y-94637033D01*
X79364560Y-94574089D01*
X79203240Y-94542000D01*
X79038760Y-94542000D01*
X78877440Y-94574089D01*
X78725479Y-94637033D01*
X78588719Y-94728413D01*
X78472413Y-94844719D01*
X78381033Y-94981479D01*
X78318089Y-95133440D01*
X78286000Y-95294760D01*
X77027000Y-95294760D01*
X77027000Y-95167760D01*
X76994911Y-95006440D01*
X76931967Y-94854479D01*
X76840587Y-94717719D01*
X76724281Y-94601413D01*
X76587521Y-94510033D01*
X76435560Y-94447089D01*
X76274240Y-94415000D01*
X76109760Y-94415000D01*
X75948440Y-94447089D01*
X75796479Y-94510033D01*
X75659719Y-94601413D01*
X75579249Y-94681883D01*
X75543354Y-94501427D01*
X75435181Y-94240274D01*
X75278138Y-94005242D01*
X75078260Y-93805364D01*
X74845742Y-93650001D01*
X75078260Y-93494638D01*
X75183138Y-93389760D01*
X77397000Y-93389760D01*
X77397000Y-93554240D01*
X77429089Y-93715560D01*
X77492033Y-93867521D01*
X77583413Y-94004281D01*
X77699719Y-94120587D01*
X77836479Y-94211967D01*
X77988440Y-94274911D01*
X78149760Y-94307000D01*
X78314240Y-94307000D01*
X78475560Y-94274911D01*
X78627521Y-94211967D01*
X78764281Y-94120587D01*
X78880587Y-94004281D01*
X78971967Y-93867521D01*
X79034911Y-93715560D01*
X79067000Y-93554240D01*
X79067000Y-93389760D01*
X79041738Y-93262760D01*
X83488020Y-93262760D01*
X83488020Y-93427240D01*
X83520109Y-93588560D01*
X83583053Y-93740521D01*
X83674433Y-93877281D01*
X83790739Y-93993587D01*
X83927499Y-94084967D01*
X84079460Y-94147911D01*
X84240780Y-94180000D01*
X84405260Y-94180000D01*
X84566580Y-94147911D01*
X84702344Y-94091676D01*
X84732815Y-94137280D01*
X84849121Y-94253586D01*
X84985881Y-94344966D01*
X85137842Y-94407910D01*
X85299162Y-94439999D01*
X85463642Y-94439999D01*
X85624962Y-94407910D01*
X85776923Y-94344966D01*
X85913683Y-94253586D01*
X86029989Y-94137280D01*
X86121369Y-94000520D01*
X86184313Y-93848559D01*
X86216402Y-93687239D01*
X86216402Y-93522759D01*
X86214375Y-93512570D01*
X86344756Y-93458565D01*
X86481516Y-93367185D01*
X86597822Y-93250879D01*
X86689202Y-93114119D01*
X86752146Y-92962158D01*
X86784235Y-92800838D01*
X86784235Y-92636358D01*
X86752146Y-92475038D01*
X86689202Y-92323077D01*
X86597822Y-92186317D01*
X86481516Y-92070011D01*
X86344756Y-91978631D01*
X86192795Y-91915687D01*
X86031475Y-91883598D01*
X85866995Y-91883598D01*
X85705675Y-91915687D01*
X85553714Y-91978631D01*
X85416954Y-92070011D01*
X85300648Y-92186317D01*
X85209268Y-92323077D01*
X85146324Y-92475038D01*
X85114235Y-92636358D01*
X85114235Y-92800838D01*
X85116262Y-92811027D01*
X85002078Y-92858323D01*
X84971607Y-92812719D01*
X84855301Y-92696413D01*
X84718541Y-92605033D01*
X84566580Y-92542089D01*
X84405260Y-92510000D01*
X84240780Y-92510000D01*
X84079460Y-92542089D01*
X83927499Y-92605033D01*
X83790739Y-92696413D01*
X83674433Y-92812719D01*
X83583053Y-92949479D01*
X83520109Y-93101440D01*
X83488020Y-93262760D01*
X79041738Y-93262760D01*
X79034911Y-93228440D01*
X78971967Y-93076479D01*
X78880587Y-92939719D01*
X78764281Y-92823413D01*
X78627521Y-92732033D01*
X78475560Y-92669089D01*
X78314240Y-92637000D01*
X78149760Y-92637000D01*
X77988440Y-92669089D01*
X77836479Y-92732033D01*
X77699719Y-92823413D01*
X77583413Y-92939719D01*
X77492033Y-93076479D01*
X77429089Y-93228440D01*
X77397000Y-93389760D01*
X75183138Y-93389760D01*
X75278138Y-93294760D01*
X75435181Y-93059728D01*
X75543354Y-92798575D01*
X75598501Y-92521336D01*
X75598501Y-92246760D01*
X75873000Y-92246760D01*
X75873000Y-92411240D01*
X75905089Y-92572560D01*
X75968033Y-92724521D01*
X76059413Y-92861281D01*
X76175719Y-92977587D01*
X76312479Y-93068967D01*
X76464440Y-93131911D01*
X76625760Y-93164000D01*
X76790240Y-93164000D01*
X76951560Y-93131911D01*
X77103521Y-93068967D01*
X77240281Y-92977587D01*
X77356587Y-92861281D01*
X77447967Y-92724521D01*
X77510911Y-92572560D01*
X77543000Y-92411240D01*
X77543000Y-92246760D01*
X77510911Y-92085440D01*
X77447967Y-91933479D01*
X77356587Y-91796719D01*
X77240281Y-91680413D01*
X77103521Y-91589033D01*
X76951560Y-91526089D01*
X76790240Y-91494000D01*
X76625760Y-91494000D01*
X76464440Y-91526089D01*
X76312479Y-91589033D01*
X76175719Y-91680413D01*
X76059413Y-91796719D01*
X75968033Y-91933479D01*
X75905089Y-92085440D01*
X75873000Y-92246760D01*
X75598501Y-92246760D01*
X75598501Y-92238666D01*
X75543354Y-91961427D01*
X75435181Y-91700274D01*
X75278138Y-91465242D01*
X75078260Y-91265364D01*
X74845742Y-91110001D01*
X75078260Y-90954638D01*
X75278138Y-90754760D01*
X75435181Y-90519728D01*
X75543354Y-90258575D01*
X75598501Y-89981336D01*
X75598501Y-89698666D01*
X75543354Y-89421427D01*
X75435181Y-89160274D01*
X75278138Y-88925242D01*
X75078260Y-88725364D01*
X74845742Y-88570001D01*
X75045151Y-88436760D01*
X76635000Y-88436760D01*
X76635000Y-88601240D01*
X76667089Y-88762560D01*
X76730033Y-88914521D01*
X76821413Y-89051281D01*
X76937719Y-89167587D01*
X77074479Y-89258967D01*
X77226440Y-89321911D01*
X77387760Y-89354000D01*
X77552240Y-89354000D01*
X77713560Y-89321911D01*
X77865521Y-89258967D01*
X78002281Y-89167587D01*
X78023531Y-89146337D01*
X78523596Y-89146337D01*
X78523596Y-89310817D01*
X78555685Y-89472137D01*
X78618629Y-89624098D01*
X78710009Y-89760858D01*
X78826315Y-89877164D01*
X78963075Y-89968544D01*
X79115036Y-90031488D01*
X79276356Y-90063577D01*
X79440836Y-90063577D01*
X79602156Y-90031488D01*
X79754117Y-89968544D01*
X79890877Y-89877164D01*
X79943731Y-89824310D01*
X80047979Y-89893967D01*
X80199940Y-89956911D01*
X80361260Y-89989000D01*
X80525740Y-89989000D01*
X80687060Y-89956911D01*
X80839021Y-89893967D01*
X80975781Y-89802587D01*
X81092087Y-89686281D01*
X81183467Y-89549521D01*
X81246411Y-89397560D01*
X81278500Y-89236240D01*
X81278500Y-89071760D01*
X81246411Y-88910440D01*
X81183467Y-88758479D01*
X81092087Y-88621719D01*
X80975781Y-88505413D01*
X80839021Y-88414033D01*
X80687060Y-88351089D01*
X80525740Y-88319000D01*
X80361260Y-88319000D01*
X80199940Y-88351089D01*
X80047979Y-88414033D01*
X79911219Y-88505413D01*
X79858365Y-88558267D01*
X79754117Y-88488610D01*
X79602156Y-88425666D01*
X79440836Y-88393577D01*
X79276356Y-88393577D01*
X79115036Y-88425666D01*
X78963075Y-88488610D01*
X78826315Y-88579990D01*
X78710009Y-88696296D01*
X78618629Y-88833056D01*
X78555685Y-88985017D01*
X78523596Y-89146337D01*
X78023531Y-89146337D01*
X78118587Y-89051281D01*
X78209967Y-88914521D01*
X78272911Y-88762560D01*
X78305000Y-88601240D01*
X78305000Y-88436760D01*
X78272911Y-88275440D01*
X78209967Y-88123479D01*
X78118587Y-87986719D01*
X78002281Y-87870413D01*
X77865521Y-87779033D01*
X77713560Y-87716089D01*
X77552240Y-87684000D01*
X77387760Y-87684000D01*
X77226440Y-87716089D01*
X77074479Y-87779033D01*
X76937719Y-87870413D01*
X76821413Y-87986719D01*
X76730033Y-88123479D01*
X76667089Y-88275440D01*
X76635000Y-88436760D01*
X75045151Y-88436760D01*
X75078260Y-88414638D01*
X75278138Y-88214760D01*
X75435181Y-87979728D01*
X75543354Y-87718575D01*
X75598501Y-87441336D01*
X75598501Y-87158666D01*
X75543354Y-86881427D01*
X75435181Y-86620274D01*
X75278138Y-86385242D01*
X75078260Y-86185364D01*
X74845742Y-86030001D01*
X75078260Y-85874638D01*
X75278138Y-85674760D01*
X75435181Y-85439728D01*
X75494869Y-85295629D01*
X75543413Y-85368281D01*
X75659719Y-85484587D01*
X75796479Y-85575967D01*
X75948440Y-85638911D01*
X76109760Y-85671000D01*
X76274240Y-85671000D01*
X76435560Y-85638911D01*
X76587521Y-85575967D01*
X76724281Y-85484587D01*
X76840587Y-85368281D01*
X76931967Y-85231521D01*
X76994911Y-85079560D01*
X77027000Y-84918240D01*
X77027000Y-84880760D01*
X79302000Y-84880760D01*
X79302000Y-85045240D01*
X79334089Y-85206560D01*
X79397033Y-85358521D01*
X79488413Y-85495281D01*
X79604719Y-85611587D01*
X79741479Y-85702967D01*
X79893440Y-85765911D01*
X80054760Y-85798000D01*
X80219240Y-85798000D01*
X80380560Y-85765911D01*
X80532521Y-85702967D01*
X80669281Y-85611587D01*
X80785587Y-85495281D01*
X80876967Y-85358521D01*
X80939911Y-85206560D01*
X80972000Y-85045240D01*
X80972000Y-84880760D01*
X80939911Y-84719440D01*
X80876967Y-84567479D01*
X80785587Y-84430719D01*
X80669281Y-84314413D01*
X80532521Y-84223033D01*
X80380560Y-84160089D01*
X80219240Y-84128000D01*
X80054760Y-84128000D01*
X79893440Y-84160089D01*
X79741479Y-84223033D01*
X79604719Y-84314413D01*
X79488413Y-84430719D01*
X79397033Y-84567479D01*
X79334089Y-84719440D01*
X79302000Y-84880760D01*
X77027000Y-84880760D01*
X77027000Y-84753760D01*
X76994911Y-84592440D01*
X76931967Y-84440479D01*
X76840587Y-84303719D01*
X76724281Y-84187413D01*
X76587521Y-84096033D01*
X76481528Y-84052129D01*
X76453989Y-83985644D01*
X76479516Y-83968587D01*
X76595822Y-83852281D01*
X76687202Y-83715521D01*
X76750146Y-83563560D01*
X76782235Y-83402240D01*
X76782235Y-83237760D01*
X76750146Y-83076440D01*
X76735885Y-83042011D01*
X78573565Y-83042011D01*
X79202747Y-83671194D01*
X79225763Y-83699239D01*
X79318370Y-83775240D01*
X79337681Y-83791088D01*
X79465367Y-83859338D01*
X79603916Y-83901366D01*
X79748001Y-83915557D01*
X79784106Y-83912001D01*
X82499896Y-83912001D01*
X82536001Y-83915557D01*
X82572106Y-83912001D01*
X82605291Y-83908733D01*
X82628523Y-84025523D01*
X82505240Y-84001000D01*
X82340760Y-84001000D01*
X82179440Y-84033089D01*
X82027479Y-84096033D01*
X81890719Y-84187413D01*
X81774413Y-84303719D01*
X81683033Y-84440479D01*
X81620089Y-84592440D01*
X81588000Y-84753760D01*
X81588000Y-84918240D01*
X81620089Y-85079560D01*
X81647009Y-85144551D01*
X81644240Y-85144000D01*
X81479760Y-85144000D01*
X81318440Y-85176089D01*
X81166479Y-85239033D01*
X81029719Y-85330413D01*
X80913413Y-85446719D01*
X80822033Y-85583479D01*
X80759089Y-85735440D01*
X80727000Y-85896760D01*
X80727000Y-86061240D01*
X80759089Y-86222560D01*
X80822033Y-86374521D01*
X80913413Y-86511281D01*
X81029719Y-86627587D01*
X81166479Y-86718967D01*
X81318440Y-86781911D01*
X81479760Y-86814000D01*
X81644240Y-86814000D01*
X81805560Y-86781911D01*
X81957521Y-86718967D01*
X82094281Y-86627587D01*
X82210587Y-86511281D01*
X82301967Y-86374521D01*
X82364911Y-86222560D01*
X82397000Y-86061240D01*
X82397000Y-85896760D01*
X82364911Y-85735440D01*
X82337991Y-85670449D01*
X82340760Y-85671000D01*
X82444610Y-85671000D01*
X82444610Y-85778604D01*
X82476699Y-85939924D01*
X82539643Y-86091885D01*
X82631023Y-86228645D01*
X82747329Y-86344951D01*
X82852414Y-86415167D01*
X82857060Y-86438522D01*
X82920004Y-86590483D01*
X83011384Y-86727243D01*
X83127690Y-86843549D01*
X83264450Y-86934929D01*
X83416411Y-86997873D01*
X83577731Y-87029962D01*
X83742211Y-87029962D01*
X83903531Y-86997873D01*
X84055492Y-86934929D01*
X84192252Y-86843549D01*
X84308558Y-86727243D01*
X84399938Y-86590483D01*
X84462882Y-86438522D01*
X84494971Y-86277202D01*
X84494971Y-86112722D01*
X84462882Y-85951402D01*
X84399938Y-85799441D01*
X84308558Y-85662681D01*
X84192252Y-85546375D01*
X84087167Y-85476159D01*
X84082521Y-85452804D01*
X84064764Y-85409934D01*
X84190560Y-85384911D01*
X84342521Y-85321967D01*
X84479281Y-85230587D01*
X84595587Y-85114281D01*
X84686967Y-84977521D01*
X84749911Y-84825560D01*
X84782000Y-84664240D01*
X84782000Y-84499760D01*
X84749911Y-84338440D01*
X84686967Y-84186479D01*
X84595587Y-84049719D01*
X84479281Y-83933413D01*
X84369648Y-83860158D01*
X84393615Y-83836191D01*
X84484995Y-83699431D01*
X84547939Y-83547470D01*
X84580028Y-83386150D01*
X84580028Y-83221670D01*
X84547939Y-83060350D01*
X84484995Y-82908389D01*
X84393615Y-82771629D01*
X84277309Y-82655323D01*
X84140549Y-82563943D01*
X83988588Y-82500999D01*
X83840213Y-82471485D01*
X83840213Y-82045233D01*
X83927791Y-81957655D01*
X83936560Y-81955911D01*
X84088521Y-81892967D01*
X84225281Y-81801587D01*
X84341587Y-81685281D01*
X84432967Y-81548521D01*
X84495911Y-81396560D01*
X84528000Y-81235240D01*
X84528000Y-81070760D01*
X84495911Y-80909440D01*
X84457522Y-80816760D01*
X84890000Y-80816760D01*
X84890000Y-80981240D01*
X84922089Y-81142560D01*
X84985033Y-81294521D01*
X85076413Y-81431281D01*
X85192719Y-81547587D01*
X85309483Y-81625606D01*
X85326637Y-81711843D01*
X85389581Y-81863804D01*
X85480961Y-82000564D01*
X85597267Y-82116870D01*
X85734027Y-82208250D01*
X85885988Y-82271194D01*
X86047308Y-82303283D01*
X86211788Y-82303283D01*
X86373108Y-82271194D01*
X86525069Y-82208250D01*
X86661829Y-82116870D01*
X86778135Y-82000564D01*
X86869515Y-81863804D01*
X86932459Y-81711843D01*
X86964548Y-81550523D01*
X86964548Y-81386043D01*
X86932459Y-81224723D01*
X86869515Y-81072762D01*
X86778135Y-80936002D01*
X86661829Y-80819696D01*
X86545065Y-80741677D01*
X86527911Y-80655440D01*
X86464967Y-80503479D01*
X86373587Y-80366719D01*
X86257281Y-80250413D01*
X86120521Y-80159033D01*
X85968560Y-80096089D01*
X85807240Y-80064000D01*
X85642760Y-80064000D01*
X85481440Y-80096089D01*
X85329479Y-80159033D01*
X85192719Y-80250413D01*
X85076413Y-80366719D01*
X84985033Y-80503479D01*
X84922089Y-80655440D01*
X84890000Y-80816760D01*
X84457522Y-80816760D01*
X84432967Y-80757479D01*
X84341587Y-80620719D01*
X84225281Y-80504413D01*
X84088521Y-80413033D01*
X83936560Y-80350089D01*
X83775240Y-80318000D01*
X83610760Y-80318000D01*
X83449440Y-80350089D01*
X83297479Y-80413033D01*
X83225455Y-80461158D01*
X83108772Y-80412826D01*
X82947452Y-80380737D01*
X82831605Y-80380737D01*
X82828281Y-80377413D01*
X82691521Y-80286033D01*
X82539560Y-80223089D01*
X82378240Y-80191000D01*
X82213760Y-80191000D01*
X82052440Y-80223089D01*
X81900479Y-80286033D01*
X81763719Y-80377413D01*
X81647413Y-80493719D01*
X81556033Y-80630479D01*
X81493089Y-80782440D01*
X81461000Y-80943760D01*
X81461000Y-81108240D01*
X81493089Y-81269560D01*
X81556033Y-81421521D01*
X81564371Y-81434000D01*
X81457446Y-81434000D01*
X81452258Y-81428812D01*
X81429237Y-81400761D01*
X81353000Y-81338195D01*
X81353000Y-81324760D01*
X81320911Y-81163440D01*
X81257967Y-81011479D01*
X81166587Y-80874719D01*
X81050281Y-80758413D01*
X80913521Y-80667033D01*
X80761560Y-80604089D01*
X80600240Y-80572000D01*
X80435760Y-80572000D01*
X80274440Y-80604089D01*
X80137000Y-80661018D01*
X79999560Y-80604089D01*
X79838240Y-80572000D01*
X79673760Y-80572000D01*
X79512440Y-80604089D01*
X79360479Y-80667033D01*
X79223719Y-80758413D01*
X79107413Y-80874719D01*
X79016033Y-81011479D01*
X78953089Y-81163440D01*
X78951386Y-81172001D01*
X77385614Y-81172001D01*
X77383911Y-81163441D01*
X77320967Y-81011480D01*
X77229587Y-80874720D01*
X77113281Y-80758414D01*
X76976521Y-80667034D01*
X76824560Y-80604090D01*
X76663240Y-80572001D01*
X76630576Y-80572001D01*
X76621911Y-80528440D01*
X76558967Y-80376479D01*
X76467587Y-80239719D01*
X76351281Y-80123413D01*
X76214521Y-80032033D01*
X76062560Y-79969089D01*
X75901240Y-79937000D01*
X75736760Y-79937000D01*
X75575440Y-79969089D01*
X75568542Y-79971946D01*
X75598501Y-79821336D01*
X75598501Y-79554196D01*
X75677479Y-79606967D01*
X75829440Y-79669911D01*
X75990760Y-79702000D01*
X76155240Y-79702000D01*
X76316560Y-79669911D01*
X76468521Y-79606967D01*
X76605281Y-79515587D01*
X76721587Y-79399281D01*
X76812967Y-79262521D01*
X76875911Y-79110560D01*
X76908000Y-78949240D01*
X76908000Y-78911760D01*
X83112000Y-78911760D01*
X83112000Y-79076240D01*
X83144089Y-79237560D01*
X83207033Y-79389521D01*
X83298413Y-79526281D01*
X83414719Y-79642587D01*
X83551479Y-79733967D01*
X83703440Y-79796911D01*
X83864760Y-79829000D01*
X84029240Y-79829000D01*
X84190560Y-79796911D01*
X84342521Y-79733967D01*
X84479281Y-79642587D01*
X84595587Y-79526281D01*
X84686967Y-79389521D01*
X84749911Y-79237560D01*
X84782000Y-79076240D01*
X84782000Y-78912760D01*
X86096500Y-78912760D01*
X86096500Y-79077240D01*
X86128589Y-79238560D01*
X86191533Y-79390521D01*
X86282913Y-79527281D01*
X86399219Y-79643587D01*
X86535979Y-79734967D01*
X86687940Y-79797911D01*
X86849260Y-79830000D01*
X87013740Y-79830000D01*
X87175060Y-79797911D01*
X87327021Y-79734967D01*
X87463781Y-79643587D01*
X87580087Y-79527281D01*
X87671467Y-79390521D01*
X87734411Y-79238560D01*
X87766500Y-79077240D01*
X87766500Y-78912760D01*
X87734411Y-78751440D01*
X87671467Y-78599479D01*
X87580087Y-78462719D01*
X87463781Y-78346413D01*
X87327021Y-78255033D01*
X87175060Y-78192089D01*
X87013740Y-78160000D01*
X86849260Y-78160000D01*
X86687940Y-78192089D01*
X86535979Y-78255033D01*
X86399219Y-78346413D01*
X86282913Y-78462719D01*
X86191533Y-78599479D01*
X86128589Y-78751440D01*
X86096500Y-78912760D01*
X84782000Y-78912760D01*
X84782000Y-78911760D01*
X84749911Y-78750440D01*
X84686967Y-78598479D01*
X84595587Y-78461719D01*
X84479281Y-78345413D01*
X84342521Y-78254033D01*
X84190560Y-78191089D01*
X84029240Y-78159000D01*
X83864760Y-78159000D01*
X83703440Y-78191089D01*
X83551479Y-78254033D01*
X83414719Y-78345413D01*
X83298413Y-78461719D01*
X83207033Y-78598479D01*
X83144089Y-78750440D01*
X83112000Y-78911760D01*
X76908000Y-78911760D01*
X76908000Y-78784760D01*
X76875911Y-78623440D01*
X76812967Y-78471479D01*
X76721587Y-78334719D01*
X76605281Y-78218413D01*
X76468521Y-78127033D01*
X76316560Y-78064089D01*
X76155240Y-78032000D01*
X75990760Y-78032000D01*
X75829440Y-78064089D01*
X75677479Y-78127033D01*
X75540719Y-78218413D01*
X75424413Y-78334719D01*
X75333033Y-78471479D01*
X75270089Y-78623440D01*
X75247898Y-78735002D01*
X75078260Y-78565364D01*
X74845742Y-78410001D01*
X75078260Y-78254638D01*
X75278138Y-78054760D01*
X75435181Y-77819728D01*
X75543354Y-77558575D01*
X75565108Y-77449211D01*
X77979499Y-77449211D01*
X77979499Y-77613691D01*
X78011588Y-77775011D01*
X78074532Y-77926972D01*
X78165912Y-78063732D01*
X78282218Y-78180038D01*
X78418978Y-78271418D01*
X78570939Y-78334362D01*
X78732259Y-78366451D01*
X78896739Y-78366451D01*
X79058059Y-78334362D01*
X79210020Y-78271418D01*
X79346780Y-78180038D01*
X79463086Y-78063732D01*
X79554466Y-77926972D01*
X79617410Y-77775011D01*
X79649499Y-77613691D01*
X79649499Y-77449211D01*
X79617410Y-77287891D01*
X79554466Y-77135930D01*
X79463086Y-76999170D01*
X79346780Y-76882864D01*
X79210020Y-76791484D01*
X79058059Y-76728540D01*
X78896739Y-76696451D01*
X78732259Y-76696451D01*
X78570939Y-76728540D01*
X78418978Y-76791484D01*
X78282218Y-76882864D01*
X78165912Y-76999170D01*
X78074532Y-77135930D01*
X78011588Y-77287891D01*
X77979499Y-77449211D01*
X75565108Y-77449211D01*
X75598501Y-77281336D01*
X75598501Y-76998666D01*
X75543354Y-76721427D01*
X75435181Y-76460274D01*
X75278138Y-76225242D01*
X75078260Y-76025364D01*
X74845742Y-75870001D01*
X74855082Y-75863760D01*
X85906000Y-75863760D01*
X85906000Y-76028240D01*
X85938089Y-76189560D01*
X86001033Y-76341521D01*
X86092413Y-76478281D01*
X86208719Y-76594587D01*
X86345479Y-76685967D01*
X86497440Y-76748911D01*
X86658760Y-76781000D01*
X86823240Y-76781000D01*
X86984560Y-76748911D01*
X87136521Y-76685967D01*
X87273281Y-76594587D01*
X87389587Y-76478281D01*
X87480967Y-76341521D01*
X87543911Y-76189560D01*
X87576000Y-76028240D01*
X87576000Y-75863760D01*
X87543911Y-75702440D01*
X87480967Y-75550479D01*
X87389587Y-75413719D01*
X87273281Y-75297413D01*
X87136521Y-75206033D01*
X86984560Y-75143089D01*
X86823240Y-75111000D01*
X86658760Y-75111000D01*
X86497440Y-75143089D01*
X86345479Y-75206033D01*
X86208719Y-75297413D01*
X86092413Y-75413719D01*
X86001033Y-75550479D01*
X85938089Y-75702440D01*
X85906000Y-75863760D01*
X74855082Y-75863760D01*
X75078260Y-75714638D01*
X75278138Y-75514760D01*
X75435181Y-75279728D01*
X75543354Y-75018575D01*
X75598501Y-74741336D01*
X75598501Y-74458666D01*
X75543354Y-74181427D01*
X75435181Y-73920274D01*
X75278138Y-73685242D01*
X75078260Y-73485364D01*
X74845742Y-73330001D01*
X75078260Y-73174638D01*
X75278138Y-72974760D01*
X75435181Y-72739728D01*
X75456292Y-72688760D01*
X77604490Y-72688760D01*
X77604490Y-72853240D01*
X77636579Y-73014560D01*
X77699523Y-73166521D01*
X77790903Y-73303281D01*
X77907209Y-73419587D01*
X78043969Y-73510967D01*
X78195930Y-73573911D01*
X78357250Y-73606000D01*
X78521730Y-73606000D01*
X78683050Y-73573911D01*
X78835011Y-73510967D01*
X78971771Y-73419587D01*
X79088077Y-73303281D01*
X79179457Y-73166521D01*
X79242401Y-73014560D01*
X79274490Y-72853240D01*
X79274490Y-72815760D01*
X84509000Y-72815760D01*
X84509000Y-72980240D01*
X84541089Y-73141560D01*
X84604033Y-73293521D01*
X84695413Y-73430281D01*
X84811719Y-73546587D01*
X84948479Y-73637967D01*
X85100440Y-73700911D01*
X85261760Y-73733000D01*
X85426240Y-73733000D01*
X85587560Y-73700911D01*
X85739521Y-73637967D01*
X85876281Y-73546587D01*
X85992587Y-73430281D01*
X86083967Y-73293521D01*
X86146911Y-73141560D01*
X86179000Y-72980240D01*
X86179000Y-72815760D01*
X86146911Y-72654440D01*
X86083967Y-72502479D01*
X85992587Y-72365719D01*
X85876281Y-72249413D01*
X85739521Y-72158033D01*
X85587560Y-72095089D01*
X85426240Y-72063000D01*
X85261760Y-72063000D01*
X85100440Y-72095089D01*
X84948479Y-72158033D01*
X84811719Y-72249413D01*
X84695413Y-72365719D01*
X84604033Y-72502479D01*
X84541089Y-72654440D01*
X84509000Y-72815760D01*
X79274490Y-72815760D01*
X79274490Y-72688760D01*
X79242401Y-72527440D01*
X79179457Y-72375479D01*
X79088077Y-72238719D01*
X78971771Y-72122413D01*
X78835011Y-72031033D01*
X78683050Y-71968089D01*
X78521730Y-71936000D01*
X78357250Y-71936000D01*
X78195930Y-71968089D01*
X78043969Y-72031033D01*
X77907209Y-72122413D01*
X77790903Y-72238719D01*
X77699523Y-72375479D01*
X77636579Y-72527440D01*
X77604490Y-72688760D01*
X75456292Y-72688760D01*
X75543354Y-72478575D01*
X75598501Y-72201336D01*
X75598501Y-71918666D01*
X75543354Y-71641427D01*
X75435181Y-71380274D01*
X75278138Y-71145242D01*
X75079540Y-70946644D01*
X75087983Y-70945813D01*
X75207681Y-70909503D01*
X75317995Y-70850538D01*
X75414686Y-70771186D01*
X75494038Y-70674495D01*
X75553003Y-70564181D01*
X75589313Y-70444483D01*
X75601573Y-70320001D01*
X75601573Y-68720001D01*
X75594974Y-68653000D01*
X75647240Y-68653000D01*
X75808560Y-68620911D01*
X75960521Y-68557967D01*
X76097281Y-68466587D01*
X76213587Y-68350281D01*
X76304967Y-68213521D01*
X76367911Y-68061560D01*
X76400000Y-67900240D01*
X76400000Y-67843000D01*
X77139820Y-67843000D01*
X77050390Y-67902755D01*
G37*
X77050390Y-67902755D02*
X76934084Y-68019061D01*
X76842704Y-68155821D01*
X76779760Y-68307782D01*
X76747671Y-68469102D01*
X76747671Y-68633582D01*
X76779760Y-68794902D01*
X76842704Y-68946863D01*
X76934084Y-69083623D01*
X77016000Y-69165539D01*
X77016000Y-69170240D01*
X77048089Y-69331560D01*
X77111033Y-69483521D01*
X77202413Y-69620281D01*
X77318719Y-69736587D01*
X77455479Y-69827967D01*
X77607440Y-69890911D01*
X77768760Y-69923000D01*
X77933240Y-69923000D01*
X78094560Y-69890911D01*
X78246521Y-69827967D01*
X78383281Y-69736587D01*
X78499587Y-69620281D01*
X78590967Y-69483521D01*
X78653911Y-69331560D01*
X78686000Y-69170240D01*
X78686000Y-69005760D01*
X78653911Y-68844440D01*
X78590967Y-68692479D01*
X78499587Y-68555719D01*
X78417671Y-68473803D01*
X78417671Y-68469102D01*
X78385582Y-68307782D01*
X78322638Y-68155821D01*
X78231258Y-68019061D01*
X78114952Y-67902755D01*
X78025522Y-67843000D01*
X79599393Y-67843000D01*
X79491525Y-67950868D01*
X79329010Y-68194089D01*
X79217068Y-68464342D01*
X79160000Y-68751240D01*
X79160000Y-69043760D01*
X79217068Y-69330658D01*
X79329010Y-69600911D01*
X79491525Y-69844132D01*
X79698368Y-70050975D01*
X79941589Y-70213490D01*
X80211842Y-70325432D01*
X80498740Y-70382500D01*
X80791260Y-70382500D01*
X81078158Y-70325432D01*
X81348411Y-70213490D01*
X81591632Y-70050975D01*
X81798475Y-69844132D01*
X81915000Y-69669740D01*
X82031525Y-69844132D01*
X82238368Y-70050975D01*
X82481589Y-70213490D01*
X82751842Y-70325432D01*
X83030917Y-70380944D01*
X83080033Y-70499521D01*
X83171413Y-70636281D01*
X83287719Y-70752587D01*
X83424479Y-70843967D01*
X83576440Y-70906911D01*
X83737760Y-70939000D01*
X83902240Y-70939000D01*
X84063560Y-70906911D01*
X84215521Y-70843967D01*
X84352281Y-70752587D01*
X84468587Y-70636281D01*
X84559967Y-70499521D01*
X84622911Y-70347560D01*
X84625569Y-70334195D01*
X84630820Y-70337002D01*
X84750518Y-70373312D01*
X84875000Y-70385572D01*
X86575000Y-70385572D01*
X86699482Y-70373312D01*
X86819180Y-70337002D01*
X86929494Y-70278037D01*
X87026185Y-70198685D01*
X87105537Y-70101994D01*
X87164502Y-69991680D01*
X87200812Y-69871982D01*
X87213072Y-69747500D01*
X87213072Y-68047500D01*
X87200812Y-67923018D01*
X87176539Y-67843000D01*
X90399000Y-67843000D01*
X90399000Y-68486104D01*
X90318260Y-68405364D01*
X90083228Y-68248321D01*
X89822075Y-68140148D01*
X89544836Y-68085001D01*
X89262166Y-68085001D01*
X88984927Y-68140148D01*
X88723774Y-68248321D01*
X88488742Y-68405364D01*
X88288864Y-68605242D01*
X88131821Y-68840274D01*
X88023648Y-69101427D01*
X87968501Y-69378666D01*
X87968501Y-69661336D01*
X88023648Y-69938575D01*
X88131821Y-70199728D01*
X88288864Y-70434760D01*
X88488742Y-70634638D01*
X88721260Y-70790001D01*
X88488742Y-70945364D01*
X88288864Y-71145242D01*
X88131821Y-71380274D01*
X88098597Y-71460483D01*
X88024587Y-71349719D01*
X87908281Y-71233413D01*
X87771521Y-71142033D01*
X87619560Y-71079089D01*
X87458240Y-71047000D01*
X87293760Y-71047000D01*
X87132440Y-71079089D01*
X86980479Y-71142033D01*
X86843719Y-71233413D01*
X86727413Y-71349719D01*
X86636033Y-71486479D01*
X86573089Y-71638440D01*
X86541000Y-71799760D01*
X86541000Y-71964240D01*
X86573089Y-72125560D01*
X86636033Y-72277521D01*
X86727413Y-72414281D01*
X86843719Y-72530587D01*
X86980479Y-72621967D01*
X87132440Y-72684911D01*
X87293760Y-72717000D01*
X87458240Y-72717000D01*
X87619560Y-72684911D01*
X87771521Y-72621967D01*
X87908281Y-72530587D01*
X88013137Y-72425731D01*
X88023648Y-72478575D01*
X88131821Y-72739728D01*
X88288864Y-72974760D01*
X88488742Y-73174638D01*
X88721260Y-73330001D01*
X88488742Y-73485364D01*
X88288864Y-73685242D01*
X88131821Y-73920274D01*
X88023648Y-74181427D01*
X87968501Y-74458666D01*
X87968501Y-74741336D01*
X88023648Y-75018575D01*
X88131821Y-75279728D01*
X88288864Y-75514760D01*
X88488742Y-75714638D01*
X88721260Y-75870001D01*
X88488742Y-76025364D01*
X88288864Y-76225242D01*
X88131821Y-76460274D01*
X88023648Y-76721427D01*
X87968501Y-76998666D01*
X87968501Y-77281336D01*
X88023648Y-77558575D01*
X88131821Y-77819728D01*
X88288864Y-78054760D01*
X88488742Y-78254638D01*
X88721260Y-78410001D01*
X88488742Y-78565364D01*
X88288864Y-78765242D01*
X88131821Y-79000274D01*
X88023648Y-79261427D01*
X87968501Y-79538666D01*
X87968501Y-79821336D01*
X88023648Y-80098575D01*
X88131821Y-80359728D01*
X88288864Y-80594760D01*
X88488742Y-80794638D01*
X88721260Y-80950001D01*
X88488742Y-81105364D01*
X88288864Y-81305242D01*
X88131821Y-81540274D01*
X88023648Y-81801427D01*
X87968501Y-82078666D01*
X87968501Y-82361336D01*
X88023648Y-82638575D01*
X88131821Y-82899728D01*
X88288864Y-83134760D01*
X88488742Y-83334638D01*
X88721260Y-83490001D01*
X88488742Y-83645364D01*
X88292250Y-83841856D01*
X88208589Y-83807202D01*
X88047269Y-83775113D01*
X87882789Y-83775113D01*
X87863254Y-83778999D01*
X87721844Y-83637590D01*
X87720100Y-83628821D01*
X87657156Y-83476860D01*
X87565776Y-83340100D01*
X87449470Y-83223794D01*
X87312710Y-83132414D01*
X87229325Y-83097875D01*
X87229325Y-83090142D01*
X87197236Y-82928822D01*
X87134292Y-82776861D01*
X87042912Y-82640101D01*
X86926606Y-82523795D01*
X86789846Y-82432415D01*
X86637885Y-82369471D01*
X86476565Y-82337382D01*
X86312085Y-82337382D01*
X86150765Y-82369471D01*
X85998804Y-82432415D01*
X85862044Y-82523795D01*
X85745738Y-82640101D01*
X85654358Y-82776861D01*
X85591414Y-82928822D01*
X85567461Y-83049241D01*
X85413959Y-83079775D01*
X85261998Y-83142719D01*
X85125238Y-83234099D01*
X85008932Y-83350405D01*
X84917552Y-83487165D01*
X84854608Y-83639126D01*
X84822519Y-83800446D01*
X84822519Y-83964926D01*
X84854608Y-84126246D01*
X84917552Y-84278207D01*
X85008932Y-84414967D01*
X85125238Y-84531273D01*
X85261998Y-84622653D01*
X85413959Y-84685597D01*
X85575279Y-84717686D01*
X85739759Y-84717686D01*
X85901079Y-84685597D01*
X86053040Y-84622653D01*
X86189800Y-84531273D01*
X86292507Y-84428567D01*
X86384908Y-84520968D01*
X86521668Y-84612348D01*
X86673629Y-84675292D01*
X86682398Y-84677036D01*
X86702904Y-84697543D01*
X86702904Y-85414481D01*
X86624440Y-85430089D01*
X86472479Y-85493033D01*
X86335719Y-85584413D01*
X86219413Y-85700719D01*
X86128033Y-85837479D01*
X86065089Y-85989440D01*
X86033000Y-86150760D01*
X86033000Y-86315240D01*
X86065089Y-86476560D01*
X86128033Y-86628521D01*
X86219413Y-86765281D01*
X86335719Y-86881587D01*
X86472479Y-86972967D01*
X86624440Y-87035911D01*
X86702904Y-87051519D01*
X86702903Y-88264914D01*
X86595313Y-88220349D01*
X86433993Y-88188260D01*
X86269513Y-88188260D01*
X86108193Y-88220349D01*
X85956232Y-88283293D01*
X85819472Y-88374673D01*
X85703166Y-88490979D01*
X85611786Y-88627739D01*
X85548842Y-88779700D01*
X85516753Y-88941020D01*
X85516753Y-89105500D01*
X85548842Y-89266820D01*
X85611786Y-89418781D01*
X85703166Y-89555541D01*
X85819472Y-89671847D01*
X85956232Y-89763227D01*
X86108193Y-89826171D01*
X86269513Y-89858260D01*
X86433993Y-89858260D01*
X86595313Y-89826171D01*
X86702903Y-89781606D01*
X86702903Y-90225796D01*
X86699347Y-90261901D01*
X86702903Y-90298005D01*
X86713538Y-90405985D01*
X86714065Y-90407723D01*
X86628033Y-90536479D01*
X86565089Y-90688440D01*
X86533000Y-90849760D01*
X86533000Y-91014240D01*
X86565089Y-91175560D01*
X86628033Y-91327521D01*
X86719413Y-91464281D01*
X86835719Y-91580587D01*
X86972479Y-91671967D01*
X87124440Y-91734911D01*
X87285760Y-91767000D01*
X87450240Y-91767000D01*
X87611560Y-91734911D01*
X87763521Y-91671967D01*
X87790497Y-91653942D01*
X87887191Y-91750635D01*
X87891886Y-91766115D01*
X87921165Y-91862634D01*
X87989415Y-91990321D01*
X88012343Y-92018259D01*
X87975531Y-92203326D01*
X87873560Y-92161089D01*
X87712240Y-92129000D01*
X87547760Y-92129000D01*
X87386440Y-92161089D01*
X87234479Y-92224033D01*
X87097719Y-92315413D01*
X86981413Y-92431719D01*
X86890033Y-92568479D01*
X86827089Y-92720440D01*
X86795000Y-92881760D01*
X86795000Y-93046240D01*
X86827089Y-93207560D01*
X86890033Y-93359521D01*
X86981413Y-93496281D01*
X87097719Y-93612587D01*
X87234479Y-93703967D01*
X87386440Y-93766911D01*
X87547760Y-93799000D01*
X87712240Y-93799000D01*
X87873560Y-93766911D01*
X88025521Y-93703967D01*
X88162281Y-93612587D01*
X88278587Y-93496281D01*
X88363421Y-93369317D01*
X88488742Y-93494638D01*
X88721260Y-93650001D01*
X88488742Y-93805364D01*
X88288864Y-94005242D01*
X88131821Y-94240274D01*
X88023648Y-94501427D01*
X87968501Y-94778666D01*
X87968501Y-95061336D01*
X88023648Y-95338575D01*
X88131821Y-95599728D01*
X88288864Y-95834760D01*
X88488742Y-96034638D01*
X88721260Y-96190001D01*
X88488742Y-96345364D01*
X88288864Y-96545242D01*
X88131821Y-96780274D01*
X88023648Y-97041427D01*
X87968501Y-97318666D01*
X87968501Y-97601336D01*
X88023648Y-97878575D01*
X88131821Y-98139728D01*
X88288864Y-98374760D01*
X88488742Y-98574638D01*
X88721260Y-98730001D01*
X88488742Y-98885364D01*
X88288864Y-99085242D01*
X88131821Y-99320274D01*
X88023648Y-99581427D01*
X87968501Y-99858666D01*
X87968501Y-100141336D01*
X88023648Y-100418575D01*
X88131821Y-100679728D01*
X88288864Y-100914760D01*
X88488742Y-101114638D01*
X88721260Y-101270001D01*
X88488742Y-101425364D01*
X88288864Y-101625242D01*
X88131821Y-101860274D01*
X88023648Y-102121427D01*
X87968501Y-102398666D01*
X87968501Y-102681336D01*
X88023648Y-102958575D01*
X88131821Y-103219728D01*
X88288864Y-103454760D01*
X88488742Y-103654638D01*
X88723774Y-103811681D01*
X88842841Y-103861000D01*
X86268817Y-103861000D01*
X86315715Y-103706400D01*
X86332500Y-103535978D01*
X86332500Y-102572021D01*
X86315715Y-102401600D01*
X86249385Y-102182940D01*
X86141671Y-101981421D01*
X85996712Y-101804788D01*
X85820078Y-101659829D01*
X85618559Y-101552115D01*
X85399899Y-101485785D01*
X85172500Y-101463388D01*
X84945100Y-101485785D01*
X84726440Y-101552115D01*
X84524921Y-101659829D01*
X84348288Y-101804788D01*
X84203329Y-101981422D01*
X84095615Y-102182941D01*
X84029285Y-102401601D01*
X84012500Y-102572022D01*
X84012500Y-103535979D01*
X84029285Y-103706400D01*
X84076183Y-103861000D01*
X79118817Y-103861000D01*
X79165715Y-103706400D01*
X79182500Y-103535979D01*
X79182500Y-102572022D01*
X79165715Y-102401600D01*
X79099385Y-102182940D01*
X78991671Y-101981421D01*
X78846712Y-101804788D01*
X78670079Y-101659829D01*
X78468560Y-101552115D01*
X78249900Y-101485785D01*
X78022500Y-101463388D01*
X77795101Y-101485785D01*
X77576441Y-101552115D01*
X77374922Y-101659829D01*
X77198289Y-101804788D01*
X77053330Y-101981421D01*
X76945615Y-102182940D01*
X76879285Y-102401600D01*
X76862500Y-102572021D01*
X76862500Y-103535978D01*
X76879285Y-103706399D01*
X76926183Y-103861000D01*
X74724161Y-103861000D01*
X74843228Y-103811681D01*
X75078260Y-103654638D01*
X75278138Y-103454760D01*
X75435181Y-103219728D01*
X75543354Y-102958575D01*
X75598501Y-102681336D01*
X75598501Y-102398666D01*
X75543354Y-102121427D01*
X75435181Y-101860274D01*
X75278138Y-101625242D01*
X75078260Y-101425364D01*
X74845742Y-101270001D01*
X75078260Y-101114638D01*
X75278138Y-100914760D01*
X75435181Y-100679728D01*
X75543354Y-100418575D01*
X75598501Y-100141336D01*
X75598501Y-99858666D01*
X75543354Y-99581427D01*
X75435181Y-99320274D01*
X75278138Y-99085242D01*
X75078260Y-98885364D01*
X74845742Y-98730001D01*
X75078260Y-98574638D01*
X75278138Y-98374760D01*
X75435181Y-98139728D01*
X75543354Y-97878575D01*
X75598501Y-97601336D01*
X75598501Y-97318666D01*
X75543354Y-97041427D01*
X75435181Y-96780274D01*
X75278138Y-96545242D01*
X75078260Y-96345364D01*
X74845742Y-96190001D01*
X75078260Y-96034638D01*
X75278138Y-95834760D01*
X75433875Y-95601683D01*
X75452033Y-95645521D01*
X75543413Y-95782281D01*
X75659719Y-95898587D01*
X75796479Y-95989967D01*
X75948440Y-96052911D01*
X76109760Y-96085000D01*
X76274240Y-96085000D01*
X76435560Y-96052911D01*
X76587521Y-95989967D01*
X76724281Y-95898587D01*
X76840587Y-95782281D01*
X76931967Y-95645521D01*
X76994911Y-95493560D01*
X77027000Y-95332240D01*
X77027000Y-95294760D01*
X78286000Y-95294760D01*
X78286000Y-95459240D01*
X78318089Y-95620560D01*
X78381033Y-95772521D01*
X78472413Y-95909281D01*
X78575132Y-96012000D01*
X78472413Y-96114719D01*
X78381033Y-96251479D01*
X78318089Y-96403440D01*
X78286000Y-96564760D01*
X78286000Y-96729240D01*
X78318089Y-96890560D01*
X78381033Y-97042521D01*
X78472413Y-97179281D01*
X78588719Y-97295587D01*
X78725479Y-97386967D01*
X78877440Y-97449911D01*
X79038760Y-97482000D01*
X79203240Y-97482000D01*
X79364560Y-97449911D01*
X79516521Y-97386967D01*
X79653281Y-97295587D01*
X79769587Y-97179281D01*
X79860967Y-97042521D01*
X79923911Y-96890560D01*
X79956000Y-96729240D01*
X79956000Y-96564760D01*
X82477000Y-96564760D01*
X82477000Y-96729240D01*
X82509089Y-96890560D01*
X82572033Y-97042521D01*
X82663413Y-97179281D01*
X82779719Y-97295587D01*
X82916479Y-97386967D01*
X83068440Y-97449911D01*
X83229760Y-97482000D01*
X83394240Y-97482000D01*
X83555560Y-97449911D01*
X83707521Y-97386967D01*
X83844281Y-97295587D01*
X83960587Y-97179281D01*
X84051967Y-97042521D01*
X84114911Y-96890560D01*
X84147000Y-96729240D01*
X84147000Y-96564760D01*
X84114911Y-96403440D01*
X84051967Y-96251479D01*
X84023202Y-96208429D01*
X84166570Y-96179911D01*
X84318531Y-96116967D01*
X84455291Y-96025587D01*
X84571597Y-95909281D01*
X84662977Y-95772521D01*
X84725921Y-95620560D01*
X84758010Y-95459240D01*
X84758010Y-95294760D01*
X84725921Y-95133440D01*
X84662977Y-94981479D01*
X84571597Y-94844719D01*
X84455291Y-94728413D01*
X84318531Y-94637033D01*
X84166570Y-94574089D01*
X84005250Y-94542000D01*
X83840770Y-94542000D01*
X83679450Y-94574089D01*
X83527489Y-94637033D01*
X83390729Y-94728413D01*
X83274423Y-94844719D01*
X83183043Y-94981479D01*
X83120099Y-95133440D01*
X83088010Y-95294760D01*
X83088010Y-95459240D01*
X83120099Y-95620560D01*
X83183043Y-95772521D01*
X83211808Y-95815571D01*
X83068440Y-95844089D01*
X82916479Y-95907033D01*
X82779719Y-95998413D01*
X82663413Y-96114719D01*
X82572033Y-96251479D01*
X82509089Y-96403440D01*
X82477000Y-96564760D01*
X79956000Y-96564760D01*
X79923911Y-96403440D01*
X79860967Y-96251479D01*
X79769587Y-96114719D01*
X79666868Y-96012000D01*
X79769587Y-95909281D01*
X79860967Y-95772521D01*
X79923911Y-95620560D01*
X79956000Y-95459240D01*
X79956000Y-95294760D01*
X79923911Y-95133440D01*
X79860967Y-94981479D01*
X79769587Y-94844719D01*
X79653281Y-94728413D01*
X79516521Y-94637033D01*
X79364560Y-94574089D01*
X79203240Y-94542000D01*
X79038760Y-94542000D01*
X78877440Y-94574089D01*
X78725479Y-94637033D01*
X78588719Y-94728413D01*
X78472413Y-94844719D01*
X78381033Y-94981479D01*
X78318089Y-95133440D01*
X78286000Y-95294760D01*
X77027000Y-95294760D01*
X77027000Y-95167760D01*
X76994911Y-95006440D01*
X76931967Y-94854479D01*
X76840587Y-94717719D01*
X76724281Y-94601413D01*
X76587521Y-94510033D01*
X76435560Y-94447089D01*
X76274240Y-94415000D01*
X76109760Y-94415000D01*
X75948440Y-94447089D01*
X75796479Y-94510033D01*
X75659719Y-94601413D01*
X75579249Y-94681883D01*
X75543354Y-94501427D01*
X75435181Y-94240274D01*
X75278138Y-94005242D01*
X75078260Y-93805364D01*
X74845742Y-93650001D01*
X75078260Y-93494638D01*
X75183138Y-93389760D01*
X77397000Y-93389760D01*
X77397000Y-93554240D01*
X77429089Y-93715560D01*
X77492033Y-93867521D01*
X77583413Y-94004281D01*
X77699719Y-94120587D01*
X77836479Y-94211967D01*
X77988440Y-94274911D01*
X78149760Y-94307000D01*
X78314240Y-94307000D01*
X78475560Y-94274911D01*
X78627521Y-94211967D01*
X78764281Y-94120587D01*
X78880587Y-94004281D01*
X78971967Y-93867521D01*
X79034911Y-93715560D01*
X79067000Y-93554240D01*
X79067000Y-93389760D01*
X79041738Y-93262760D01*
X83488020Y-93262760D01*
X83488020Y-93427240D01*
X83520109Y-93588560D01*
X83583053Y-93740521D01*
X83674433Y-93877281D01*
X83790739Y-93993587D01*
X83927499Y-94084967D01*
X84079460Y-94147911D01*
X84240780Y-94180000D01*
X84405260Y-94180000D01*
X84566580Y-94147911D01*
X84702344Y-94091676D01*
X84732815Y-94137280D01*
X84849121Y-94253586D01*
X84985881Y-94344966D01*
X85137842Y-94407910D01*
X85299162Y-94439999D01*
X85463642Y-94439999D01*
X85624962Y-94407910D01*
X85776923Y-94344966D01*
X85913683Y-94253586D01*
X86029989Y-94137280D01*
X86121369Y-94000520D01*
X86184313Y-93848559D01*
X86216402Y-93687239D01*
X86216402Y-93522759D01*
X86214375Y-93512570D01*
X86344756Y-93458565D01*
X86481516Y-93367185D01*
X86597822Y-93250879D01*
X86689202Y-93114119D01*
X86752146Y-92962158D01*
X86784235Y-92800838D01*
X86784235Y-92636358D01*
X86752146Y-92475038D01*
X86689202Y-92323077D01*
X86597822Y-92186317D01*
X86481516Y-92070011D01*
X86344756Y-91978631D01*
X86192795Y-91915687D01*
X86031475Y-91883598D01*
X85866995Y-91883598D01*
X85705675Y-91915687D01*
X85553714Y-91978631D01*
X85416954Y-92070011D01*
X85300648Y-92186317D01*
X85209268Y-92323077D01*
X85146324Y-92475038D01*
X85114235Y-92636358D01*
X85114235Y-92800838D01*
X85116262Y-92811027D01*
X85002078Y-92858323D01*
X84971607Y-92812719D01*
X84855301Y-92696413D01*
X84718541Y-92605033D01*
X84566580Y-92542089D01*
X84405260Y-92510000D01*
X84240780Y-92510000D01*
X84079460Y-92542089D01*
X83927499Y-92605033D01*
X83790739Y-92696413D01*
X83674433Y-92812719D01*
X83583053Y-92949479D01*
X83520109Y-93101440D01*
X83488020Y-93262760D01*
X79041738Y-93262760D01*
X79034911Y-93228440D01*
X78971967Y-93076479D01*
X78880587Y-92939719D01*
X78764281Y-92823413D01*
X78627521Y-92732033D01*
X78475560Y-92669089D01*
X78314240Y-92637000D01*
X78149760Y-92637000D01*
X77988440Y-92669089D01*
X77836479Y-92732033D01*
X77699719Y-92823413D01*
X77583413Y-92939719D01*
X77492033Y-93076479D01*
X77429089Y-93228440D01*
X77397000Y-93389760D01*
X75183138Y-93389760D01*
X75278138Y-93294760D01*
X75435181Y-93059728D01*
X75543354Y-92798575D01*
X75598501Y-92521336D01*
X75598501Y-92246760D01*
X75873000Y-92246760D01*
X75873000Y-92411240D01*
X75905089Y-92572560D01*
X75968033Y-92724521D01*
X76059413Y-92861281D01*
X76175719Y-92977587D01*
X76312479Y-93068967D01*
X76464440Y-93131911D01*
X76625760Y-93164000D01*
X76790240Y-93164000D01*
X76951560Y-93131911D01*
X77103521Y-93068967D01*
X77240281Y-92977587D01*
X77356587Y-92861281D01*
X77447967Y-92724521D01*
X77510911Y-92572560D01*
X77543000Y-92411240D01*
X77543000Y-92246760D01*
X77510911Y-92085440D01*
X77447967Y-91933479D01*
X77356587Y-91796719D01*
X77240281Y-91680413D01*
X77103521Y-91589033D01*
X76951560Y-91526089D01*
X76790240Y-91494000D01*
X76625760Y-91494000D01*
X76464440Y-91526089D01*
X76312479Y-91589033D01*
X76175719Y-91680413D01*
X76059413Y-91796719D01*
X75968033Y-91933479D01*
X75905089Y-92085440D01*
X75873000Y-92246760D01*
X75598501Y-92246760D01*
X75598501Y-92238666D01*
X75543354Y-91961427D01*
X75435181Y-91700274D01*
X75278138Y-91465242D01*
X75078260Y-91265364D01*
X74845742Y-91110001D01*
X75078260Y-90954638D01*
X75278138Y-90754760D01*
X75435181Y-90519728D01*
X75543354Y-90258575D01*
X75598501Y-89981336D01*
X75598501Y-89698666D01*
X75543354Y-89421427D01*
X75435181Y-89160274D01*
X75278138Y-88925242D01*
X75078260Y-88725364D01*
X74845742Y-88570001D01*
X75045151Y-88436760D01*
X76635000Y-88436760D01*
X76635000Y-88601240D01*
X76667089Y-88762560D01*
X76730033Y-88914521D01*
X76821413Y-89051281D01*
X76937719Y-89167587D01*
X77074479Y-89258967D01*
X77226440Y-89321911D01*
X77387760Y-89354000D01*
X77552240Y-89354000D01*
X77713560Y-89321911D01*
X77865521Y-89258967D01*
X78002281Y-89167587D01*
X78023531Y-89146337D01*
X78523596Y-89146337D01*
X78523596Y-89310817D01*
X78555685Y-89472137D01*
X78618629Y-89624098D01*
X78710009Y-89760858D01*
X78826315Y-89877164D01*
X78963075Y-89968544D01*
X79115036Y-90031488D01*
X79276356Y-90063577D01*
X79440836Y-90063577D01*
X79602156Y-90031488D01*
X79754117Y-89968544D01*
X79890877Y-89877164D01*
X79943731Y-89824310D01*
X80047979Y-89893967D01*
X80199940Y-89956911D01*
X80361260Y-89989000D01*
X80525740Y-89989000D01*
X80687060Y-89956911D01*
X80839021Y-89893967D01*
X80975781Y-89802587D01*
X81092087Y-89686281D01*
X81183467Y-89549521D01*
X81246411Y-89397560D01*
X81278500Y-89236240D01*
X81278500Y-89071760D01*
X81246411Y-88910440D01*
X81183467Y-88758479D01*
X81092087Y-88621719D01*
X80975781Y-88505413D01*
X80839021Y-88414033D01*
X80687060Y-88351089D01*
X80525740Y-88319000D01*
X80361260Y-88319000D01*
X80199940Y-88351089D01*
X80047979Y-88414033D01*
X79911219Y-88505413D01*
X79858365Y-88558267D01*
X79754117Y-88488610D01*
X79602156Y-88425666D01*
X79440836Y-88393577D01*
X79276356Y-88393577D01*
X79115036Y-88425666D01*
X78963075Y-88488610D01*
X78826315Y-88579990D01*
X78710009Y-88696296D01*
X78618629Y-88833056D01*
X78555685Y-88985017D01*
X78523596Y-89146337D01*
X78023531Y-89146337D01*
X78118587Y-89051281D01*
X78209967Y-88914521D01*
X78272911Y-88762560D01*
X78305000Y-88601240D01*
X78305000Y-88436760D01*
X78272911Y-88275440D01*
X78209967Y-88123479D01*
X78118587Y-87986719D01*
X78002281Y-87870413D01*
X77865521Y-87779033D01*
X77713560Y-87716089D01*
X77552240Y-87684000D01*
X77387760Y-87684000D01*
X77226440Y-87716089D01*
X77074479Y-87779033D01*
X76937719Y-87870413D01*
X76821413Y-87986719D01*
X76730033Y-88123479D01*
X76667089Y-88275440D01*
X76635000Y-88436760D01*
X75045151Y-88436760D01*
X75078260Y-88414638D01*
X75278138Y-88214760D01*
X75435181Y-87979728D01*
X75543354Y-87718575D01*
X75598501Y-87441336D01*
X75598501Y-87158666D01*
X75543354Y-86881427D01*
X75435181Y-86620274D01*
X75278138Y-86385242D01*
X75078260Y-86185364D01*
X74845742Y-86030001D01*
X75078260Y-85874638D01*
X75278138Y-85674760D01*
X75435181Y-85439728D01*
X75494869Y-85295629D01*
X75543413Y-85368281D01*
X75659719Y-85484587D01*
X75796479Y-85575967D01*
X75948440Y-85638911D01*
X76109760Y-85671000D01*
X76274240Y-85671000D01*
X76435560Y-85638911D01*
X76587521Y-85575967D01*
X76724281Y-85484587D01*
X76840587Y-85368281D01*
X76931967Y-85231521D01*
X76994911Y-85079560D01*
X77027000Y-84918240D01*
X77027000Y-84880760D01*
X79302000Y-84880760D01*
X79302000Y-85045240D01*
X79334089Y-85206560D01*
X79397033Y-85358521D01*
X79488413Y-85495281D01*
X79604719Y-85611587D01*
X79741479Y-85702967D01*
X79893440Y-85765911D01*
X80054760Y-85798000D01*
X80219240Y-85798000D01*
X80380560Y-85765911D01*
X80532521Y-85702967D01*
X80669281Y-85611587D01*
X80785587Y-85495281D01*
X80876967Y-85358521D01*
X80939911Y-85206560D01*
X80972000Y-85045240D01*
X80972000Y-84880760D01*
X80939911Y-84719440D01*
X80876967Y-84567479D01*
X80785587Y-84430719D01*
X80669281Y-84314413D01*
X80532521Y-84223033D01*
X80380560Y-84160089D01*
X80219240Y-84128000D01*
X80054760Y-84128000D01*
X79893440Y-84160089D01*
X79741479Y-84223033D01*
X79604719Y-84314413D01*
X79488413Y-84430719D01*
X79397033Y-84567479D01*
X79334089Y-84719440D01*
X79302000Y-84880760D01*
X77027000Y-84880760D01*
X77027000Y-84753760D01*
X76994911Y-84592440D01*
X76931967Y-84440479D01*
X76840587Y-84303719D01*
X76724281Y-84187413D01*
X76587521Y-84096033D01*
X76481528Y-84052129D01*
X76453989Y-83985644D01*
X76479516Y-83968587D01*
X76595822Y-83852281D01*
X76687202Y-83715521D01*
X76750146Y-83563560D01*
X76782235Y-83402240D01*
X76782235Y-83237760D01*
X76750146Y-83076440D01*
X76735885Y-83042011D01*
X78573565Y-83042011D01*
X79202747Y-83671194D01*
X79225763Y-83699239D01*
X79318370Y-83775240D01*
X79337681Y-83791088D01*
X79465367Y-83859338D01*
X79603916Y-83901366D01*
X79748001Y-83915557D01*
X79784106Y-83912001D01*
X82499896Y-83912001D01*
X82536001Y-83915557D01*
X82572106Y-83912001D01*
X82605291Y-83908733D01*
X82628523Y-84025523D01*
X82505240Y-84001000D01*
X82340760Y-84001000D01*
X82179440Y-84033089D01*
X82027479Y-84096033D01*
X81890719Y-84187413D01*
X81774413Y-84303719D01*
X81683033Y-84440479D01*
X81620089Y-84592440D01*
X81588000Y-84753760D01*
X81588000Y-84918240D01*
X81620089Y-85079560D01*
X81647009Y-85144551D01*
X81644240Y-85144000D01*
X81479760Y-85144000D01*
X81318440Y-85176089D01*
X81166479Y-85239033D01*
X81029719Y-85330413D01*
X80913413Y-85446719D01*
X80822033Y-85583479D01*
X80759089Y-85735440D01*
X80727000Y-85896760D01*
X80727000Y-86061240D01*
X80759089Y-86222560D01*
X80822033Y-86374521D01*
X80913413Y-86511281D01*
X81029719Y-86627587D01*
X81166479Y-86718967D01*
X81318440Y-86781911D01*
X81479760Y-86814000D01*
X81644240Y-86814000D01*
X81805560Y-86781911D01*
X81957521Y-86718967D01*
X82094281Y-86627587D01*
X82210587Y-86511281D01*
X82301967Y-86374521D01*
X82364911Y-86222560D01*
X82397000Y-86061240D01*
X82397000Y-85896760D01*
X82364911Y-85735440D01*
X82337991Y-85670449D01*
X82340760Y-85671000D01*
X82444610Y-85671000D01*
X82444610Y-85778604D01*
X82476699Y-85939924D01*
X82539643Y-86091885D01*
X82631023Y-86228645D01*
X82747329Y-86344951D01*
X82852414Y-86415167D01*
X82857060Y-86438522D01*
X82920004Y-86590483D01*
X83011384Y-86727243D01*
X83127690Y-86843549D01*
X83264450Y-86934929D01*
X83416411Y-86997873D01*
X83577731Y-87029962D01*
X83742211Y-87029962D01*
X83903531Y-86997873D01*
X84055492Y-86934929D01*
X84192252Y-86843549D01*
X84308558Y-86727243D01*
X84399938Y-86590483D01*
X84462882Y-86438522D01*
X84494971Y-86277202D01*
X84494971Y-86112722D01*
X84462882Y-85951402D01*
X84399938Y-85799441D01*
X84308558Y-85662681D01*
X84192252Y-85546375D01*
X84087167Y-85476159D01*
X84082521Y-85452804D01*
X84064764Y-85409934D01*
X84190560Y-85384911D01*
X84342521Y-85321967D01*
X84479281Y-85230587D01*
X84595587Y-85114281D01*
X84686967Y-84977521D01*
X84749911Y-84825560D01*
X84782000Y-84664240D01*
X84782000Y-84499760D01*
X84749911Y-84338440D01*
X84686967Y-84186479D01*
X84595587Y-84049719D01*
X84479281Y-83933413D01*
X84369648Y-83860158D01*
X84393615Y-83836191D01*
X84484995Y-83699431D01*
X84547939Y-83547470D01*
X84580028Y-83386150D01*
X84580028Y-83221670D01*
X84547939Y-83060350D01*
X84484995Y-82908389D01*
X84393615Y-82771629D01*
X84277309Y-82655323D01*
X84140549Y-82563943D01*
X83988588Y-82500999D01*
X83840213Y-82471485D01*
X83840213Y-82045233D01*
X83927791Y-81957655D01*
X83936560Y-81955911D01*
X84088521Y-81892967D01*
X84225281Y-81801587D01*
X84341587Y-81685281D01*
X84432967Y-81548521D01*
X84495911Y-81396560D01*
X84528000Y-81235240D01*
X84528000Y-81070760D01*
X84495911Y-80909440D01*
X84457522Y-80816760D01*
X84890000Y-80816760D01*
X84890000Y-80981240D01*
X84922089Y-81142560D01*
X84985033Y-81294521D01*
X85076413Y-81431281D01*
X85192719Y-81547587D01*
X85309483Y-81625606D01*
X85326637Y-81711843D01*
X85389581Y-81863804D01*
X85480961Y-82000564D01*
X85597267Y-82116870D01*
X85734027Y-82208250D01*
X85885988Y-82271194D01*
X86047308Y-82303283D01*
X86211788Y-82303283D01*
X86373108Y-82271194D01*
X86525069Y-82208250D01*
X86661829Y-82116870D01*
X86778135Y-82000564D01*
X86869515Y-81863804D01*
X86932459Y-81711843D01*
X86964548Y-81550523D01*
X86964548Y-81386043D01*
X86932459Y-81224723D01*
X86869515Y-81072762D01*
X86778135Y-80936002D01*
X86661829Y-80819696D01*
X86545065Y-80741677D01*
X86527911Y-80655440D01*
X86464967Y-80503479D01*
X86373587Y-80366719D01*
X86257281Y-80250413D01*
X86120521Y-80159033D01*
X85968560Y-80096089D01*
X85807240Y-80064000D01*
X85642760Y-80064000D01*
X85481440Y-80096089D01*
X85329479Y-80159033D01*
X85192719Y-80250413D01*
X85076413Y-80366719D01*
X84985033Y-80503479D01*
X84922089Y-80655440D01*
X84890000Y-80816760D01*
X84457522Y-80816760D01*
X84432967Y-80757479D01*
X84341587Y-80620719D01*
X84225281Y-80504413D01*
X84088521Y-80413033D01*
X83936560Y-80350089D01*
X83775240Y-80318000D01*
X83610760Y-80318000D01*
X83449440Y-80350089D01*
X83297479Y-80413033D01*
X83225455Y-80461158D01*
X83108772Y-80412826D01*
X82947452Y-80380737D01*
X82831605Y-80380737D01*
X82828281Y-80377413D01*
X82691521Y-80286033D01*
X82539560Y-80223089D01*
X82378240Y-80191000D01*
X82213760Y-80191000D01*
X82052440Y-80223089D01*
X81900479Y-80286033D01*
X81763719Y-80377413D01*
X81647413Y-80493719D01*
X81556033Y-80630479D01*
X81493089Y-80782440D01*
X81461000Y-80943760D01*
X81461000Y-81108240D01*
X81493089Y-81269560D01*
X81556033Y-81421521D01*
X81564371Y-81434000D01*
X81457446Y-81434000D01*
X81452258Y-81428812D01*
X81429237Y-81400761D01*
X81353000Y-81338195D01*
X81353000Y-81324760D01*
X81320911Y-81163440D01*
X81257967Y-81011479D01*
X81166587Y-80874719D01*
X81050281Y-80758413D01*
X80913521Y-80667033D01*
X80761560Y-80604089D01*
X80600240Y-80572000D01*
X80435760Y-80572000D01*
X80274440Y-80604089D01*
X80137000Y-80661018D01*
X79999560Y-80604089D01*
X79838240Y-80572000D01*
X79673760Y-80572000D01*
X79512440Y-80604089D01*
X79360479Y-80667033D01*
X79223719Y-80758413D01*
X79107413Y-80874719D01*
X79016033Y-81011479D01*
X78953089Y-81163440D01*
X78951386Y-81172001D01*
X77385614Y-81172001D01*
X77383911Y-81163441D01*
X77320967Y-81011480D01*
X77229587Y-80874720D01*
X77113281Y-80758414D01*
X76976521Y-80667034D01*
X76824560Y-80604090D01*
X76663240Y-80572001D01*
X76630576Y-80572001D01*
X76621911Y-80528440D01*
X76558967Y-80376479D01*
X76467587Y-80239719D01*
X76351281Y-80123413D01*
X76214521Y-80032033D01*
X76062560Y-79969089D01*
X75901240Y-79937000D01*
X75736760Y-79937000D01*
X75575440Y-79969089D01*
X75568542Y-79971946D01*
X75598501Y-79821336D01*
X75598501Y-79554196D01*
X75677479Y-79606967D01*
X75829440Y-79669911D01*
X75990760Y-79702000D01*
X76155240Y-79702000D01*
X76316560Y-79669911D01*
X76468521Y-79606967D01*
X76605281Y-79515587D01*
X76721587Y-79399281D01*
X76812967Y-79262521D01*
X76875911Y-79110560D01*
X76908000Y-78949240D01*
X76908000Y-78911760D01*
X83112000Y-78911760D01*
X83112000Y-79076240D01*
X83144089Y-79237560D01*
X83207033Y-79389521D01*
X83298413Y-79526281D01*
X83414719Y-79642587D01*
X83551479Y-79733967D01*
X83703440Y-79796911D01*
X83864760Y-79829000D01*
X84029240Y-79829000D01*
X84190560Y-79796911D01*
X84342521Y-79733967D01*
X84479281Y-79642587D01*
X84595587Y-79526281D01*
X84686967Y-79389521D01*
X84749911Y-79237560D01*
X84782000Y-79076240D01*
X84782000Y-78912760D01*
X86096500Y-78912760D01*
X86096500Y-79077240D01*
X86128589Y-79238560D01*
X86191533Y-79390521D01*
X86282913Y-79527281D01*
X86399219Y-79643587D01*
X86535979Y-79734967D01*
X86687940Y-79797911D01*
X86849260Y-79830000D01*
X87013740Y-79830000D01*
X87175060Y-79797911D01*
X87327021Y-79734967D01*
X87463781Y-79643587D01*
X87580087Y-79527281D01*
X87671467Y-79390521D01*
X87734411Y-79238560D01*
X87766500Y-79077240D01*
X87766500Y-78912760D01*
X87734411Y-78751440D01*
X87671467Y-78599479D01*
X87580087Y-78462719D01*
X87463781Y-78346413D01*
X87327021Y-78255033D01*
X87175060Y-78192089D01*
X87013740Y-78160000D01*
X86849260Y-78160000D01*
X86687940Y-78192089D01*
X86535979Y-78255033D01*
X86399219Y-78346413D01*
X86282913Y-78462719D01*
X86191533Y-78599479D01*
X86128589Y-78751440D01*
X86096500Y-78912760D01*
X84782000Y-78912760D01*
X84782000Y-78911760D01*
X84749911Y-78750440D01*
X84686967Y-78598479D01*
X84595587Y-78461719D01*
X84479281Y-78345413D01*
X84342521Y-78254033D01*
X84190560Y-78191089D01*
X84029240Y-78159000D01*
X83864760Y-78159000D01*
X83703440Y-78191089D01*
X83551479Y-78254033D01*
X83414719Y-78345413D01*
X83298413Y-78461719D01*
X83207033Y-78598479D01*
X83144089Y-78750440D01*
X83112000Y-78911760D01*
X76908000Y-78911760D01*
X76908000Y-78784760D01*
X76875911Y-78623440D01*
X76812967Y-78471479D01*
X76721587Y-78334719D01*
X76605281Y-78218413D01*
X76468521Y-78127033D01*
X76316560Y-78064089D01*
X76155240Y-78032000D01*
X75990760Y-78032000D01*
X75829440Y-78064089D01*
X75677479Y-78127033D01*
X75540719Y-78218413D01*
X75424413Y-78334719D01*
X75333033Y-78471479D01*
X75270089Y-78623440D01*
X75247898Y-78735002D01*
X75078260Y-78565364D01*
X74845742Y-78410001D01*
X75078260Y-78254638D01*
X75278138Y-78054760D01*
X75435181Y-77819728D01*
X75543354Y-77558575D01*
X75565108Y-77449211D01*
X77979499Y-77449211D01*
X77979499Y-77613691D01*
X78011588Y-77775011D01*
X78074532Y-77926972D01*
X78165912Y-78063732D01*
X78282218Y-78180038D01*
X78418978Y-78271418D01*
X78570939Y-78334362D01*
X78732259Y-78366451D01*
X78896739Y-78366451D01*
X79058059Y-78334362D01*
X79210020Y-78271418D01*
X79346780Y-78180038D01*
X79463086Y-78063732D01*
X79554466Y-77926972D01*
X79617410Y-77775011D01*
X79649499Y-77613691D01*
X79649499Y-77449211D01*
X79617410Y-77287891D01*
X79554466Y-77135930D01*
X79463086Y-76999170D01*
X79346780Y-76882864D01*
X79210020Y-76791484D01*
X79058059Y-76728540D01*
X78896739Y-76696451D01*
X78732259Y-76696451D01*
X78570939Y-76728540D01*
X78418978Y-76791484D01*
X78282218Y-76882864D01*
X78165912Y-76999170D01*
X78074532Y-77135930D01*
X78011588Y-77287891D01*
X77979499Y-77449211D01*
X75565108Y-77449211D01*
X75598501Y-77281336D01*
X75598501Y-76998666D01*
X75543354Y-76721427D01*
X75435181Y-76460274D01*
X75278138Y-76225242D01*
X75078260Y-76025364D01*
X74845742Y-75870001D01*
X74855082Y-75863760D01*
X85906000Y-75863760D01*
X85906000Y-76028240D01*
X85938089Y-76189560D01*
X86001033Y-76341521D01*
X86092413Y-76478281D01*
X86208719Y-76594587D01*
X86345479Y-76685967D01*
X86497440Y-76748911D01*
X86658760Y-76781000D01*
X86823240Y-76781000D01*
X86984560Y-76748911D01*
X87136521Y-76685967D01*
X87273281Y-76594587D01*
X87389587Y-76478281D01*
X87480967Y-76341521D01*
X87543911Y-76189560D01*
X87576000Y-76028240D01*
X87576000Y-75863760D01*
X87543911Y-75702440D01*
X87480967Y-75550479D01*
X87389587Y-75413719D01*
X87273281Y-75297413D01*
X87136521Y-75206033D01*
X86984560Y-75143089D01*
X86823240Y-75111000D01*
X86658760Y-75111000D01*
X86497440Y-75143089D01*
X86345479Y-75206033D01*
X86208719Y-75297413D01*
X86092413Y-75413719D01*
X86001033Y-75550479D01*
X85938089Y-75702440D01*
X85906000Y-75863760D01*
X74855082Y-75863760D01*
X75078260Y-75714638D01*
X75278138Y-75514760D01*
X75435181Y-75279728D01*
X75543354Y-75018575D01*
X75598501Y-74741336D01*
X75598501Y-74458666D01*
X75543354Y-74181427D01*
X75435181Y-73920274D01*
X75278138Y-73685242D01*
X75078260Y-73485364D01*
X74845742Y-73330001D01*
X75078260Y-73174638D01*
X75278138Y-72974760D01*
X75435181Y-72739728D01*
X75456292Y-72688760D01*
X77604490Y-72688760D01*
X77604490Y-72853240D01*
X77636579Y-73014560D01*
X77699523Y-73166521D01*
X77790903Y-73303281D01*
X77907209Y-73419587D01*
X78043969Y-73510967D01*
X78195930Y-73573911D01*
X78357250Y-73606000D01*
X78521730Y-73606000D01*
X78683050Y-73573911D01*
X78835011Y-73510967D01*
X78971771Y-73419587D01*
X79088077Y-73303281D01*
X79179457Y-73166521D01*
X79242401Y-73014560D01*
X79274490Y-72853240D01*
X79274490Y-72815760D01*
X84509000Y-72815760D01*
X84509000Y-72980240D01*
X84541089Y-73141560D01*
X84604033Y-73293521D01*
X84695413Y-73430281D01*
X84811719Y-73546587D01*
X84948479Y-73637967D01*
X85100440Y-73700911D01*
X85261760Y-73733000D01*
X85426240Y-73733000D01*
X85587560Y-73700911D01*
X85739521Y-73637967D01*
X85876281Y-73546587D01*
X85992587Y-73430281D01*
X86083967Y-73293521D01*
X86146911Y-73141560D01*
X86179000Y-72980240D01*
X86179000Y-72815760D01*
X86146911Y-72654440D01*
X86083967Y-72502479D01*
X85992587Y-72365719D01*
X85876281Y-72249413D01*
X85739521Y-72158033D01*
X85587560Y-72095089D01*
X85426240Y-72063000D01*
X85261760Y-72063000D01*
X85100440Y-72095089D01*
X84948479Y-72158033D01*
X84811719Y-72249413D01*
X84695413Y-72365719D01*
X84604033Y-72502479D01*
X84541089Y-72654440D01*
X84509000Y-72815760D01*
X79274490Y-72815760D01*
X79274490Y-72688760D01*
X79242401Y-72527440D01*
X79179457Y-72375479D01*
X79088077Y-72238719D01*
X78971771Y-72122413D01*
X78835011Y-72031033D01*
X78683050Y-71968089D01*
X78521730Y-71936000D01*
X78357250Y-71936000D01*
X78195930Y-71968089D01*
X78043969Y-72031033D01*
X77907209Y-72122413D01*
X77790903Y-72238719D01*
X77699523Y-72375479D01*
X77636579Y-72527440D01*
X77604490Y-72688760D01*
X75456292Y-72688760D01*
X75543354Y-72478575D01*
X75598501Y-72201336D01*
X75598501Y-71918666D01*
X75543354Y-71641427D01*
X75435181Y-71380274D01*
X75278138Y-71145242D01*
X75079540Y-70946644D01*
X75087983Y-70945813D01*
X75207681Y-70909503D01*
X75317995Y-70850538D01*
X75414686Y-70771186D01*
X75494038Y-70674495D01*
X75553003Y-70564181D01*
X75589313Y-70444483D01*
X75601573Y-70320001D01*
X75601573Y-68720001D01*
X75594974Y-68653000D01*
X75647240Y-68653000D01*
X75808560Y-68620911D01*
X75960521Y-68557967D01*
X76097281Y-68466587D01*
X76213587Y-68350281D01*
X76304967Y-68213521D01*
X76367911Y-68061560D01*
X76400000Y-67900240D01*
X76400000Y-67843000D01*
X77139820Y-67843000D01*
X77050390Y-67902755D01*
M02*
